<?xml version="1.0" encoding="UTF-8"?>
<svg version="1.1" xmlns="http://www.w3.org/2000/svg" width="644" height="619">
<path d="M0 0 C212.52 0 425.04 0 644 0 C644 204.27 644 408.54 644 619 C431.48 619 218.96 619 0 619 C0 414.73 0 210.46 0 0 Z " fill="#0C161B" transform="translate(0,0)"/>
<path d="M0 0 C1.15623619 -0.00021904 1.15623619 -0.00021904 2.33583069 -0.0004425 C4.88976838 0.0002555 7.4436336 0.00804264 9.99755859 0.01586914 C11.76589925 0.01773372 13.53424043 0.01915743 15.30258179 0.02015686 C19.96164369 0.02397889 24.62067452 0.03380651 29.27972412 0.04486084 C34.03201884 0.0550817 38.78431856 0.05965593 43.53662109 0.06469727 C52.86475976 0.07542905 62.19287535 0.09250172 71.52099609 0.11352539 C72.09570312 1.98754883 72.09570312 1.98754883 72.52099609 4.11352539 C71.32568359 6.12915039 71.32568359 6.12915039 69.39599609 8.36352539 C68.65865234 9.23879883 67.92130859 10.11407227 67.16162109 11.01586914 C66.74332031 11.5042627 66.32501953 11.99265625 65.89404297 12.49584961 C63.26114952 15.59783254 60.71004438 18.76712691 58.14599609 21.92602539 C57.30488281 22.95771851 57.30488281 22.95771851 56.44677734 24.01025391 C53.02285595 28.22047134 49.67649197 32.47841959 46.39599609 36.80102539 C42.61909473 41.75744449 38.67506811 46.51772541 34.62158203 51.24584961 C31.07906214 55.39953509 27.73091236 59.67742196 24.43115234 64.02758789 C21.05219907 68.46577416 17.55332371 72.7967498 14.02099609 77.11352539 C9.2373333 82.9650943 4.57262459 88.88809456 -0.01416016 94.89477539 C-6.64243895 103.57218351 -13.43780881 112.11376693 -20.37353516 120.54711914 C-26.15721146 127.59698061 -31.78627279 134.76902343 -37.41430664 141.94311523 C-41.84626646 147.5893631 -46.32727294 153.19528066 -50.82617188 158.78833008 C-56.16928568 165.43285717 -61.49158518 172.08677341 -66.66650391 178.86352539 C-71.14236131 184.72161983 -75.78015267 190.43332116 -80.47900391 196.11352539 C-87.74081147 204.91374102 -94.80936926 213.85237842 -101.83056641 222.84448242 C-107.77843855 230.45975879 -113.80536466 238.00246537 -119.9128418 245.49047852 C-123.29782812 249.64503423 -126.63100375 253.8322934 -129.90087891 258.07836914 C-131.58985463 260.25647893 -133.31262841 262.40445939 -135.04150391 264.55102539 C-140.693509 271.59395362 -146.20880508 278.74419268 -151.74438477 285.87866211 C-155.78213963 291.08085887 -159.82747638 296.27716099 -163.87353516 301.47290039 C-170.77067307 310.33139945 -177.64318876 319.20762978 -184.47900391 328.11352539 C-186.08305482 330.19694785 -187.68722408 332.2802792 -189.29150391 334.36352539 C-192.07290239 337.97597503 -194.84719277 341.59368579 -197.61181641 345.21899414 C-202.7123112 351.90598888 -207.82396828 358.57977255 -213.04150391 365.17602539 C-216.95047345 370.12093589 -220.76790127 375.12711824 -224.54150391 380.17602539 C-225.04198242 380.84287354 -225.54246094 381.50972168 -226.05810547 382.19677734 C-228.46577436 385.40713324 -230.85615545 388.62764709 -233.21337891 391.87524414 C-234.0725135 393.0381822 -234.93187654 394.20095153 -235.79150391 395.36352539 C-236.53013672 396.37930664 -237.26876953 397.39508789 -238.02978516 398.44165039 C-241.97406242 402.74449831 -245.59528491 404.87761806 -251.31993103 405.59454346 C-252.72181438 405.60597458 -254.12398946 405.59587648 -255.52563477 405.56762695 C-256.68296616 405.56850311 -256.68296616 405.56850311 -257.86367798 405.56939697 C-260.39087352 405.56663042 -262.91686051 405.53560821 -265.44384766 405.50415039 C-267.20503597 405.49668287 -268.96623263 405.49099235 -270.72743225 405.48699951 C-275.34554292 405.47178335 -279.9631442 405.43253663 -284.58105469 405.38818359 C-289.30022289 405.34714382 -294.01947402 405.32896996 -298.73876953 405.30883789 C-307.98573717 405.26603811 -317.23232805 405.19783592 -326.47900391 405.11352539 C-325.70746476 400.31671866 -323.77384012 397.48579864 -320.72900391 393.80102539 C-320.24455811 393.2 -319.7601123 392.59897461 -319.26098633 391.97973633 C-317.6756403 390.01714296 -316.07758759 388.06534527 -314.47900391 386.11352539 C-313.36492963 384.74047054 -312.25165514 383.3667664 -311.13916016 381.99243164 C-308.92082389 379.25451129 -306.6980236 376.52032099 -304.47119141 373.78930664 C-301.47510964 370.1128063 -298.50451231 366.41672632 -295.54931641 362.70727539 C-293.96602921 360.72368539 -292.3771025 358.74520651 -290.78369141 356.76977539 C-285.37876761 350.05780198 -280.06309024 343.29136161 -274.85400391 336.42602539 C-270.34294532 330.48259906 -265.6983008 324.71111328 -260.88134766 319.01196289 C-257.85007464 315.35471967 -254.96414675 311.59887976 -252.08325195 307.82299805 C-248.29268903 302.85564338 -244.39835836 297.97941446 -240.47900391 293.11352539 C-232.75338508 283.49251709 -225.08822248 273.82678768 -217.47900391 264.11352539 C-215.58400876 261.6962002 -213.68806365 259.2796232 -211.79150391 256.86352539 C-211.32921387 256.27418213 -210.86692383 255.68483887 -210.390625 255.07763672 C-207.79864697 251.77761746 -205.18151663 248.50035929 -202.54150391 245.23852539 C-199.10241922 240.96081145 -195.81892678 236.57763295 -192.54150391 232.17602539 C-188.44598167 226.68268361 -184.26583698 221.29402841 -179.88916016 216.01977539 C-176.89222622 212.4059685 -173.93565025 208.76031055 -170.97900391 205.11352539 C-167.31457492 200.59374734 -163.63224711 196.09129942 -159.91650391 191.61352539 C-155.80658991 186.60198493 -151.93507333 181.42869126 -148.06298828 176.23339844 C-141.275728 167.13748039 -134.32495199 158.21264018 -126.91650391 149.61352539 C-122.6671689 144.67641064 -118.83824795 139.54238127 -115.10766602 134.20556641 C-111.86351674 129.5849553 -108.37409048 125.22611174 -104.76025391 120.88696289 C-98.97634601 113.85515706 -93.53604524 106.54334632 -88.10400391 99.23852539 C-84.24800629 94.07690051 -80.24642429 89.04972284 -76.2043457 84.03417969 C-71.79984672 78.55267071 -67.52385603 72.979375 -63.26733398 67.38256836 C-59.85871004 62.90470218 -56.40929618 58.46347252 -52.91650391 54.05102539 C-48.42655348 48.37506579 -44.07830302 42.60136446 -39.75268555 36.79956055 C-36.41290956 32.33017849 -32.99430307 27.94066668 -29.47119141 23.61352539 C-27.96007934 21.7172279 -26.4947896 19.80887729 -25.04931641 17.86352539 C-11.68703671 -0.05743964 -11.68703671 -0.05743964 0 0 Z " fill="#E5EEF1" transform="translate(456.47900390625,104.886474609375)"/>
<path d="M0 0 C2.85482322 1.10010704 3.66126671 1.95427009 5.390625 4.4453125 C8.84658852 9.18405724 12.51378806 13.69080766 16.265625 18.1953125 C21.28017037 24.24846281 26.14075508 30.38031549 30.89453125 36.640625 C33.82309348 40.46250907 36.89434851 44.16503853 39.953125 47.8828125 C44.4952947 53.41341651 48.75427679 59.06256019 52.85107422 64.9284668 C56.34821553 69.89662787 60.15490066 74.51714922 64.0859375 79.15234375 C71.60616565 88.0252202 78.62174906 97.31020284 85.6796875 106.55126953 C91.10296061 113.65182106 96.60887553 120.67686362 102.20483398 127.64233398 C104.7954719 130.86799361 107.36741138 134.10388391 109.890625 137.3828125 C113.10731691 141.5488208 116.43684354 145.61890304 119.765625 149.6953125 C124.68934758 155.7292517 129.51014393 161.82505023 134.21484375 168.03125 C135.66314014 169.91681563 137.14334968 171.77846866 138.66015625 173.609375 C139.31371094 174.40085937 139.96726562 175.19234375 140.640625 176.0078125 C141.21167969 176.67941406 141.78273438 177.35101563 142.37109375 178.04296875 C143.453125 179.9453125 143.453125 179.9453125 143.02075195 182.06420898 C142.83343506 182.68497314 142.64611816 183.3057373 142.453125 183.9453125 C132.16082485 184.10782084 121.86883207 184.23204223 111.57550812 184.3079977 C106.79531903 184.34446138 102.01601048 184.39388419 97.23632812 184.47338867 C92.61969915 184.54969647 88.00391465 184.5913544 83.38670349 184.6094532 C81.62921358 184.62234321 79.87176761 184.64751564 78.11463928 184.6854229 C62.62019096 185.00626168 62.62019096 185.00626168 57.49414062 180.60180664 C55.84729004 178.7638092 55.84729004 178.7638092 54.453125 176.9453125 C53.4773061 175.87973703 52.49863829 174.81675465 51.515625 173.7578125 C48.2171538 169.76260541 45.14897804 165.5903418 42.05859375 161.43359375 C39.14146384 157.5150779 36.17376953 153.63583461 33.203125 149.7578125 C32.65414551 149.04093262 32.10516602 148.32405273 31.53955078 147.58544922 C30.41176087 146.11301142 29.28382992 144.64068164 28.15576172 143.16845703 C25.9075944 140.23300942 23.66271159 137.29505786 21.41772461 134.35717773 C17.16791596 128.79606416 12.91286098 123.23921738 8.640625 117.6953125 C4.22443994 111.96075572 -0.16265149 106.20433188 -4.546875 100.4453125 C-8.99428378 94.60353911 -13.4430982 88.7630863 -17.921875 82.9453125 C-18.69144531 81.945 -19.46101563 80.9446875 -20.25390625 79.9140625 C-21.85025885 77.84723461 -23.45133076 75.78484631 -25.05859375 73.7265625 C-29.37828015 68.18281373 -33.63157637 62.58936625 -37.734375 56.8828125 C-38.49105469 55.83996094 -39.24773437 54.79710937 -40.02734375 53.72265625 C-41.546875 50.9453125 -41.546875 50.9453125 -41.52734375 48.9140625 C-40.17525763 46.19911667 -38.51216385 43.92114503 -36.671875 41.5078125 C-36.07620728 40.72555298 -36.07620728 40.72555298 -35.46850586 39.92749023 C-32.02603845 35.45634668 -28.38931608 31.16063928 -24.7121582 26.88208008 C-21.46044827 23.08132859 -18.37928874 19.18194911 -15.359375 15.1953125 C-12.36644483 11.2809832 -9.37405537 7.36850261 -6.234375 3.5703125 C-5.64011719 2.84070313 -5.04585938 2.11109375 -4.43359375 1.359375 C-2.546875 -0.0546875 -2.546875 -0.0546875 0 0 Z " fill="#E1EAED" transform="translate(385.546875,326.0546875)"/>
<path d="M0 0 C10.03164631 -0.11609239 20.06313157 -0.20481581 30.09531403 -0.25906086 C34.75421457 -0.28510219 39.41265391 -0.32039962 44.07128906 -0.37719727 C48.57116702 -0.43171307 53.0706027 -0.4614616 57.57078552 -0.47438622 C59.28355365 -0.48359113 60.99629885 -0.50156637 62.70887756 -0.52865028 C73.28256406 -0.68914773 80.07834002 -0.44124312 88.21484375 7.03515625 C92.5426844 12.12846532 96.60350257 17.37341713 100.57421875 22.75 C104.02423638 27.40517054 107.63484813 31.93448318 111.2265625 36.48046875 C114.50790023 40.63535099 117.75207769 44.81898514 121 49 C122.13131493 50.4532772 123.26282281 51.90640422 124.39453125 53.359375 C125.53389557 54.82288443 126.67321756 56.28642682 127.8125 57.75 C128.72696899 58.9244165 128.72696899 58.9244165 129.65991211 60.12255859 C132.34222585 63.57028984 135.02192808 67.01949127 137.671875 70.4921875 C142.72458877 77.11355424 147.90728436 83.60349922 153.17724609 90.05249023 C158.24866795 96.27242677 163.13829074 102.61506041 168 109 C169.2976642 110.69258404 170.59735246 112.38358681 171.89819336 114.07373047 C172.7468416 115.17708568 173.59404964 116.28155037 174.43969727 117.38720703 C176.32233227 119.84491378 178.22610885 122.27707435 180.18359375 124.67578125 C180.82425781 125.46339844 181.46492187 126.25101562 182.125 127.0625 C182.68445313 127.73410156 183.24390625 128.40570313 183.8203125 129.09765625 C185 131 185 131 185 135 C184.34 135 183.68 135 183 135 C182.74476563 135.56460938 182.48953125 136.12921875 182.2265625 136.7109375 C180.84762461 139.28436936 179.22297142 141.36473217 177.375 143.625 C176.65828125 144.50800781 175.9415625 145.39101562 175.203125 146.30078125 C174.47609375 147.19152344 173.7490625 148.08226562 173 149 C168.62786267 154.41270602 164.30947344 159.86347371 160.0625 165.375 C159.64347412 165.91576172 159.22444824 166.45652344 158.79272461 167.01367188 C156.64449974 169.80029017 154.5537514 172.61116894 152.5390625 175.49609375 C152.14323975 176.05312988 151.74741699 176.61016602 151.33959961 177.18408203 C150.24946576 178.72491543 149.1769092 180.27814106 148.10546875 181.83203125 C146 184 146 184 143.46484375 184.61328125 C140.03094669 183.75888848 139.29741355 182.31366741 137.375 179.375 C136.68535156 178.36566406 135.99570312 177.35632813 135.28515625 176.31640625 C134.91664551 175.77387207 134.54813477 175.23133789 134.16845703 174.67236328 C132.16092042 171.79906078 129.98824385 169.05939123 127.8125 166.3125 C127.35351318 165.73040771 126.89452637 165.14831543 126.42163086 164.54858398 C122.257776 159.28669464 118.01274343 154.09155144 113.76904297 148.89404297 C110.42684114 144.78949751 107.14756844 140.64608304 103.9375 136.4375 C100.37116242 131.76317404 96.74393535 127.14666279 93.0625 122.5625 C86.86430912 114.84444622 80.7488714 107.06362744 74.64550781 99.27050781 C73.28511615 97.53402515 71.9240145 95.79810241 70.5625 94.0625 C70.11052246 93.48604736 69.65854492 92.90959473 69.19287109 92.31567383 C66.83331715 89.31218785 64.4596876 86.3212125 62.0625 83.34765625 C56.83290479 76.85954295 51.71056061 70.3219529 46.75 63.625 C43.03053097 58.60761294 39.20204191 53.84500968 34.97265625 49.2421875 C32.1682351 46.05458802 29.63065018 42.67506161 27.06640625 39.29492188 C23.58989021 34.72804399 20.00363574 30.25923957 16.375 25.8125 C15.82191162 25.13469482 15.26882324 24.45688965 14.69897461 23.75854492 C13.62629204 22.44453678 12.55346204 21.13064897 11.48046875 19.81689453 C8.29053459 15.90207098 5.12267275 11.96871709 2 8 C1.41476563 7.33484375 0.82953125 6.6696875 0.2265625 5.984375 C-1 4 -1 4 -0.57666016 1.87597656 C-0.3863623 1.2569043 -0.19606445 0.63783203 0 0 Z " fill="#ECF3F6" transform="translate(131,105)"/>
<path d="M0 0 C0.6875 1.6875 0.6875 1.6875 1 4 C-0.3125 6.4375 -0.3125 6.4375 -2 9 C-2.33 9.86625 -2.66 10.7325 -3 11.625 C-4.04830443 14.11472303 -5.08073468 15.15750529 -7 17 C-7.44472656 17.75023437 -7.88945312 18.50046875 -8.34765625 19.2734375 C-10.05159733 22.08514169 -11.9357256 24.56811466 -14 27.125 C-14.680625 27.97320312 -15.36125 28.82140625 -16.0625 29.6953125 C-18 32 -18 32 -19.5625 33.4296875 C-21.20437492 35.07621446 -21.20437492 35.07621446 -22.41796875 37.87890625 C-24.05500955 41.10852502 -25.842937 43.3058586 -28.3125 45.9375 C-29.10269531 46.7934375 -29.89289063 47.649375 -30.70703125 48.53125 C-31.46371094 49.3459375 -32.22039062 50.160625 -33 51 C-37.24571437 55.52657616 -37.24571437 55.52657616 -40 61 C-40.7425 61.28875 -41.485 61.5775 -42.25 61.875 C-46.40906456 63.5764355 -49.17904253 66.21321021 -51.0625 70.3125 C-51.371875 71.199375 -51.68125 72.08625 -52 73 C-54.51918566 78.86982668 -57.70536457 83.30910146 -62 88 C-62.98324397 89.1423365 -63.96241077 90.28819483 -64.9375 91.4375 C-68.26203948 95.31759913 -71.62900575 99.16025803 -75 103 C-75.99 102.67 -76.98 102.34 -78 102 C-73.8208286 92.80151449 -66.03897155 84.75552386 -59.72729492 76.92285156 C-55.32185783 71.44083795 -51.04544355 65.86662725 -46.78833008 60.26904297 C-43.37970614 55.79117678 -39.93029227 51.34994713 -36.4375 46.9375 C-31.94754957 41.2615404 -27.59929911 35.48783907 -23.27368164 29.68603516 C-19.94103452 25.22619314 -16.52563207 20.84885873 -13.01953125 16.5234375 C-10.03419497 12.79321073 -7.13566941 8.99732708 -4.23583984 5.20043945 C-1.09762603 1.09762603 -1.09762603 1.09762603 0 0 Z " fill="#C8F4F8" transform="translate(440,112)"/>
<path d="M0 0 C0.59375 1.82421875 0.59375 1.82421875 1 4 C-0.96342892 7.68142922 -3.22908952 10.27730686 -6.25 13.125 C-10.24661566 16.97643945 -13.02442009 21.42119169 -16.015625 26.0703125 C-18.26530307 29.3916876 -20.78922977 32.26340785 -23.4921875 35.21484375 C-25.2816571 37.33346449 -26.49320191 39.65545744 -27.7890625 42.09765625 C-29.98439061 45.54644589 -32.87905307 48.41069126 -35.64453125 51.40625 C-40.66297623 56.9323652 -45.15320163 62.8819559 -49.66333008 68.82421875 C-53.87539045 74.36389731 -58.24830058 79.60926262 -62.98046875 84.72265625 C-64.84070603 86.82037063 -66.45443669 88.9571011 -68.0625 91.25 C-71.05795586 95.40144868 -74.77540872 98.16930939 -79 101 C-77.29977481 97.07123105 -74.70938384 93.8841696 -72.0625 90.5625 C-71.57668457 89.94777832 -71.09086914 89.33305664 -70.59033203 88.69970703 C-67.2667171 84.51976619 -63.84894974 80.43029957 -60.375 76.375 C-56.13498028 71.42445824 -52.17287547 66.32562763 -48.296875 61.08203125 C-41.36675538 51.78294217 -34.0345685 42.79883511 -26.69628906 33.82128906 C-22.79870657 29.03336055 -19.07940463 24.13736252 -15.41015625 19.171875 C-10.4491654 12.6429859 -5.20282206 6.33666736 0 0 Z " fill="#AEC7D1" transform="translate(224,388)"/>
<path d="M0 0 C0.33 0 0.66 0 1 0 C1.83790524 6.7032419 1.83790524 6.7032419 -0.3125 10.03125 C-2.14490497 12.09270559 -4.04980543 14.04980543 -6 16 C-7.2827458 17.4058894 -8.55403762 18.82233259 -9.8125 20.25 C-10.37582031 20.87390625 -10.93914062 21.4978125 -11.51953125 22.140625 C-13.08146642 23.95331584 -13.08146642 23.95331584 -14.01171875 26.171875 C-15 28 -15 28 -18 29 C-19.52601771 30.86322762 -20.97469912 32.7905346 -22.375 34.75 C-25.3332505 38.87731857 -28.41465145 42.41465145 -32 46 C-32.67966676 47.66140763 -33.34938905 49.32700041 -34 51 C-37 52 -37 52 -40 51 C-39.46632813 50.35675781 -38.93265625 49.71351563 -38.3828125 49.05078125 C-30.81896105 39.87732128 -23.58304209 30.47401068 -16.47900391 20.94213867 C-5.25823164 5.89521457 -5.25823164 5.89521457 0 0 Z " fill="#CFF6FB" transform="translate(361,214)"/>
<path d="M0 0 C0.495 1.485 0.495 1.485 1 3 C0.67 3.66 0.34 4.32 0 5 C-0.66 5 -1.32 5 -2 5 C-2.2784375 6.2065625 -2.2784375 6.2065625 -2.5625 7.4375 C-4.18014457 11.44644524 -6.29355009 14.1637773 -9 17.49609375 C-11.1449686 20.18149389 -13.13429306 22.94868323 -15.125 25.75 C-17.8498114 29.52402039 -20.66437252 32.7477632 -24 36 C-25.28026029 37.638511 -26.55002275 39.28524823 -27.8125 40.9375 C-31.38327142 45.48768301 -35.1732894 48.84209892 -40 52 C-38.29977481 48.07123105 -35.70938384 44.8841696 -33.0625 41.5625 C-32.57668457 40.94777832 -32.09086914 40.33305664 -31.59033203 39.69970703 C-27.82646795 34.96608731 -23.92986707 30.35665782 -19.99536133 25.76489258 C-16.1591163 21.25776865 -12.59693278 16.57503325 -9.08203125 11.8125 C-6.12586574 7.81918074 -3.06856118 3.90723546 0 0 Z " fill="#AAC2CC" transform="translate(185,437)"/>
<path d="M0 0 C0.66 0.66 1.32 1.32 2 2 C1.34 2.66 0.68 3.32 0 4 C0 4.66 0 5.32 0 6 C-0.66 6 -1.32 6 -2 6 C-2.33 6.99 -2.66 7.98 -3 9 C-4.66666667 10.66666667 -6.33333333 12.33333333 -8 14 C-9.2516467 16.08334635 -9.2516467 16.08334635 -10 18 C-10.33 18.66 -10.66 19.32 -11 20 C14.08 20 39.16 20 65 20 C65 20.33 65 20.66 65 21 C38.93 21 12.86 21 -14 21 C-12.87475831 15.37379157 -12.87475831 15.37379157 -10.56640625 12.51953125 C-10.08236328 11.91302734 -9.59832031 11.30652344 -9.09960938 10.68164062 C-8.59236328 10.06482422 -8.08511719 9.44800781 -7.5625 8.8125 C-7.05912109 8.18408203 -6.55574219 7.55566406 -6.03710938 6.90820312 C-4.09811529 4.50055442 -2.18769187 2.18769187 0 0 Z " fill="#A5B6BF" transform="translate(144,489)"/>
<path d="M0 0 C0.33 1.32 0.66 2.64 1 4 C0.38125 4.391875 -0.2375 4.78375 -0.875 5.1875 C-3.32496368 7.27717491 -4.01879998 8.97463327 -5 12 C-5.99 12 -6.98 12 -8 12 C-8.103125 12.680625 -8.20625 13.36125 -8.3125 14.0625 C-9.76961497 20.28835487 -11.95982652 24.94327501 -17 29 C-18.32 29 -19.64 29 -21 29 C-21.0825 29.7425 -21.165 30.485 -21.25 31.25 C-22.1396946 34.51221354 -23.48503749 35.80954878 -26 38 C-26.99 37.67 -27.98 37.34 -29 37 C-27.98292969 35.83597656 -27.98292969 35.83597656 -26.9453125 34.6484375 C-21.48211465 28.33059491 -16.36869222 21.89963438 -11.58300781 15.05371094 C-7.94058383 9.85569896 -4.03911273 4.89657801 0 0 Z " fill="#BFE4EB" transform="translate(320,266)"/>
<path d="M0 0 C1.2393922 3.71817661 0.70783013 4.55877341 -1 8 C-2.23241322 9.73124715 -3.52833671 11.41855444 -4.875 13.0625 C-5.55304688 13.89910156 -6.23109375 14.73570312 -6.9296875 15.59765625 C-9 18 -9 18 -11.19140625 20.140625 C-13.17688677 21.94322426 -13.17688677 21.94322426 -14.0625 24.6875 C-14.371875 25.450625 -14.68125 26.21375 -15 27 C-18 28 -18 28 -21 27 C-20.46632813 26.35675781 -19.93265625 25.71351563 -19.3828125 25.05078125 C-15.02325628 19.7634994 -10.74055781 14.43147515 -6.5625 9 C-6.13791504 8.44868408 -5.71333008 7.89736816 -5.27587891 7.3293457 C-3.43672191 4.92774969 -1.67881395 2.51822093 0 0 Z " fill="#A4D8DF" transform="translate(342,238)"/>
<path d="M0 0 C0 0.66 0 1.32 0 2 C25.74 2 51.48 2 78 2 C78 2.33 78 2.66 78 3 C67.60385587 3.04627317 57.2077361 3.08184359 46.81151009 3.10362434 C41.98449195 3.11407626 37.15754409 3.12826104 32.33056641 3.15087891 C27.67514222 3.17255722 23.01978578 3.18455801 18.36431503 3.18975449 C16.58524381 3.19345928 14.80617644 3.20069348 13.02713394 3.21146011 C10.54160706 3.22590854 8.05636267 3.22798075 5.57080078 3.22705078 C4.82993225 3.23424133 4.08906372 3.24143188 3.32574463 3.24884033 C-1.77189568 3.22810432 -1.77189568 3.22810432 -4 1 C-2 0 -2 0 0 0 Z " fill="#C9D3D4" transform="translate(450,507)"/>
<path d="M0 0 C0.33 0.66 0.66 1.32 1 2 C0.22265625 3.9453125 0.22265625 3.9453125 -0.9375 6.125 C-1.31777344 6.84945313 -1.69804687 7.57390625 -2.08984375 8.3203125 C-2.39019531 8.87460937 -2.69054687 9.42890625 -3 10 C-3.66 10 -4.32 10 -5 10 C-5.0825 10.556875 -5.165 11.11375 -5.25 11.6875 C-6.90038687 16.77619285 -11.24955806 20.353737 -15 24 C-15.99 23.67 -16.98 23.34 -18 23 C-12.08332063 15.26466919 -6.12169517 7.57517029 0 0 Z " fill="#B6D4D8" transform="translate(265,336)"/>
<path d="M0 0 C0.33 0.99 0.66 1.98 1 3 C-0.6171875 5.33984375 -0.6171875 5.33984375 -2.875 7.9375 C-5.55286702 11.03057637 -7.10756778 13.04546091 -8 17 C-9.33984375 18.703125 -9.33984375 18.703125 -10.9375 20.25 C-11.46214844 20.77078125 -11.98679688 21.2915625 -12.52734375 21.828125 C-14 23 -14 23 -16 23 C-16.99 25.475 -16.99 25.475 -18 28 C-18.99 27.67 -19.98 27.34 -21 27 C-16.30040985 20.93704752 -11.56955284 14.89918621 -6.82104492 8.87451172 C-4.51233336 5.94154565 -2.22182674 2.9994661 0 0 Z M-7 14 C-5 15 -5 15 -5 15 Z " fill="#BBD4DC" transform="translate(246,360)"/>
<path d="M0 0 C0.33 0.66 0.66 1.32 1 2 C0.328125 3.83984375 0.328125 3.83984375 -0.75 5.9375 C-1.09546875 6.62714844 -1.4409375 7.31679688 -1.796875 8.02734375 C-3.00649949 10.01065663 -4.3574168 11.37556689 -6 13 C-6.433125 14.2065625 -6.433125 14.2065625 -6.875 15.4375 C-8.31428372 18.71586848 -10.0442039 20.02946927 -13 22 C-15.3125 22.75 -15.3125 22.75 -17 23 C-17 23.66 -17 24.32 -17 25 C-17.66 24.67 -18.32 24.34 -19 24 C-18.46632813 23.35675781 -17.93265625 22.71351563 -17.3828125 22.05078125 C-11.42254767 14.82215556 -5.67562624 7.45296223 0 0 Z " fill="#ACCBCF" transform="translate(370,341)"/>
<path d="M0 0 C1 2 1 2 0.43359375 4.13671875 C-1.60406385 9.35472036 -3.71890735 13.39410654 -7.6328125 17.4296875 C-9.14566976 19.16731213 -10.04991873 20.90982121 -11 23 C-11.99 21.68 -12.98 20.36 -14 19 C-12.34838574 15.10556865 -9.72706947 12.11258803 -7 8.9375 C-4.52334012 6.03273177 -2.12211767 3.18317651 0 0 Z " fill="#B8DBE3" transform="translate(290,304)"/>
<path d="M0 0 C0.33 0.66 0.66 1.32 1 2 C0.52949219 2.66386719 0.05898438 3.32773438 -0.42578125 4.01171875 C-1.04839844 4.89472656 -1.67101562 5.77773437 -2.3125 6.6875 C-2.92738281 7.55761719 -3.54226563 8.42773438 -4.17578125 9.32421875 C-5.99846153 11.92402197 -5.99846153 11.92402197 -7.41796875 14.46875 C-9.34005982 17.54409571 -11.57535541 20.11724775 -14 22.8125 C-14.86625 23.78832031 -15.7325 24.76414062 -16.625 25.76953125 C-19 28 -19 28 -22 28 C-22 26.68 -22 25.36 -22 24 C-21.071875 23.814375 -20.14375 23.62875 -19.1875 23.4375 C-14.88029849 21.49503657 -14.70062602 19.28853518 -13 15 C-11.33716374 13.66189271 -9.66998649 12.32917292 -8 11 C-6.5030162 9.12942339 -5.06455132 7.21054764 -3.6875 5.25 C-2.99011719 4.26515625 -2.29273438 3.2803125 -1.57421875 2.265625 C-1.05472656 1.51796875 -0.53523438 0.7703125 0 0 Z " fill="#D4F4F9" transform="translate(343,242)"/>
<path d="M0 0 C0.33 0.99 0.66 1.98 1 3 C0.38125 3.556875 -0.2375 4.11375 -0.875 4.6875 C-3.06106379 7.06645178 -3.98785699 8.96357096 -5 12 C-5.66 12 -6.32 12 -7 12 C-7 12.99 -7 13.98 -7 15 C-7.66 15 -8.32 15 -9 15 C-9.2475 15.515625 -9.495 16.03125 -9.75 16.5625 C-11.39581616 19.77184151 -13.1976096 22.87585664 -15 26 C-15.99 25.67 -16.98 25.34 -18 25 C-16.38376153 21.39980743 -14.19462028 18.4490267 -11.8125 15.3125 C-10.61753906 13.73662109 -10.61753906 13.73662109 -9.3984375 12.12890625 C-6.2866226 8.0693562 -3.15927128 4.02273771 0 0 Z " fill="#ACD9DF" transform="translate(380,189)"/>
<path d="M0 0 C0.33 0 0.66 0 1 0 C1.36597111 7.44141252 1.36597111 7.44141252 -0.1875 9.8125 C-0.785625 10.204375 -1.38375 10.59625 -2 11 C-3.2375 11.8353125 -3.2375 11.8353125 -4.5 12.6875 C-7 14 -7 14 -10 14 C-8.43810398 10.50004453 -6.33666309 7.72827143 -3.9375 4.75 C-2.86822266 3.41195312 -2.86822266 3.41195312 -1.77734375 2.046875 C-0.89755859 1.03367188 -0.89755859 1.03367188 0 0 Z " fill="#B2E0E8" transform="translate(361,214)"/>
<path d="M0 0 C0.33 0.99 0.66 1.98 1 3 C-0.53169336 5.78327158 -2.55010891 7.98816891 -5 10 C-8.375 10.4375 -8.375 10.4375 -11 10 C-8.60677759 4.76482597 -4.83901623 2.70111357 0 0 Z " fill="#C2F3F6" transform="translate(417,147)"/>
<path d="M0 0 C0.33 1.32 0.66 2.64 1 4 C0.071875 4.5878125 0.071875 4.5878125 -0.875 5.1875 C-3.32496368 7.27717491 -4.01879998 8.97463327 -5 12 C-5.99 12 -6.98 12 -8 12 C-8.04125 12.7425 -8.0825 13.485 -8.125 14.25 C-9.34857383 18.09551776 -11.59346582 19.04305483 -15 21 C-13.29200715 17.06293174 -10.6939578 13.84912811 -8.0625 10.5 C-7.1782145 9.36471644 -6.29409589 8.22930287 -5.41015625 7.09375 C-4.21712891 5.56234375 -4.21712891 5.56234375 -3 4 C-1.9958587 2.66978271 -0.99369219 1.33804096 0 0 Z " fill="#95C8D0" transform="translate(320,266)"/>
<path d="M0 0 C1.32 0.33 2.64 0.66 4 1 C1.78071806 3.90802461 0.07030857 5.95312762 -3 8 C-3.45375 8.78375 -3.9075 9.5675 -4.375 10.375 C-6.20039408 13.32371351 -8.21683376 14.96904085 -11 17 C-9.125 11.25 -9.125 11.25 -8 9 C-7.01 9 -6.02 9 -5 9 C-4.34 7.68 -3.68 6.36 -3 5 C-2.34 5 -1.68 5 -1 5 C-0.67 3.35 -0.34 1.7 0 0 Z " fill="#CFEAF2" transform="translate(299,295)"/>
<path d="M0 0 C1 2 1 2 0.3125 4.4375 C-1.13814998 7.26972139 -2.50104437 8.12578328 -5 10 C-5.33 10.86625 -5.66 11.7325 -6 12.625 C-6.33 13.40875 -6.66 14.1925 -7 15 C-9.0625 15.625 -9.0625 15.625 -11 16 C-11.33 16.99 -11.66 17.98 -12 19 C-12.66 18.67 -13.32 18.34 -14 18 C-13.24074219 17.03578125 -12.48148437 16.0715625 -11.69921875 15.078125 C-10.69528885 13.80210194 -9.69138391 12.52605924 -8.6875 11.25 C-8.18798828 10.61578125 -7.68847656 9.9815625 -7.17382812 9.328125 C-4.74794301 6.24355585 -2.33433646 3.15493938 0 0 Z " fill="#ABDAE1" transform="translate(395,170)"/>
<path d="M0 0 C1 2 1 2 0.125 5.125 C-2.1688329 10.28884185 -6.69685202 13.52680928 -11 17 C-11 13.62270847 -10.62588793 13.16161118 -8.59375 10.64453125 C-8.09746094 10.02255859 -7.60117188 9.40058594 -7.08984375 8.75976562 C-6.56519531 8.11716797 -6.04054687 7.47457031 -5.5 6.8125 C-4.71302734 5.83120117 -4.71302734 5.83120117 -3.91015625 4.83007812 C-2.61324419 3.2148331 -1.30745336 1.60672434 0 0 Z " fill="#A5BBC7" transform="translate(157,472)"/>
<path d="M0 0 C0.33 0.99 0.66 1.98 1 3 C-1.64868147 7.76762664 -5.06965792 11.24830983 -9 15 C-9.99 14.67 -10.98 14.34 -12 14 C-11.38511719 13.32453125 -10.77023437 12.6490625 -10.13671875 11.953125 C-9.32847656 11.06109375 -8.52023437 10.1690625 -7.6875 9.25 C-6.88699219 8.36828125 -6.08648437 7.4865625 -5.26171875 6.578125 C-3.39083089 4.44550672 -1.65915714 2.29812057 0 0 Z " fill="#202C33" transform="translate(497,148)"/>
<path d="M0 0 C0.66 0.99 1.32 1.98 2 3 C0.59535704 4.82183392 -0.8241624 6.63220561 -2.25 8.4375 C-3.43335938 9.95150391 -3.43335938 9.95150391 -4.640625 11.49609375 C-6.90655283 13.90082842 -7.78577367 14.71248893 -11 15 C-10.62488281 14.50371094 -10.24976563 14.00742188 -9.86328125 13.49609375 C-6.50836081 9.04258476 -3.22288764 4.54995902 0 0 Z " fill="#202A34" transform="translate(511,130)"/>
<path d="M0 0 C0.60546875 1.80859375 0.60546875 1.80859375 1 4 C-1.12958117 7.86479546 -3.28086509 10.60912756 -7 13 C-6.70876501 7.02968261 -3.97185616 4.105466 0 0 Z " fill="#B2CDD6" transform="translate(224,388)"/>
<path d="M0 0 C0.33 0 0.66 0 1 0 C1 2.31 1 4.62 1 7 C-4.2734375 10.22265625 -4.2734375 10.22265625 -6 11 C-6.66 10.67 -7.32 10.34 -8 10 C-6.69118353 8.33043913 -5.37785174 6.66441696 -4.0625 5 C-2.96615234 3.6078125 -2.96615234 3.6078125 -1.84765625 2.1875 C-1.23792969 1.465625 -0.62820313 0.74375 0 0 Z " fill="#A3E2EA" transform="translate(419,139)"/>
<path d="M0 0 C-0.33097938 3.08914085 -1.00284699 4.0026931 -3.3125 6.1875 C-5.69466602 7.79407709 -7.20379133 8.58574686 -10 9 C-10 9.66 -10 10.32 -10 11 C-10.66 10.67 -11.32 10.34 -12 10 C-10.90033225 8.70450101 -9.79508199 7.41373929 -8.6875 6.125 C-8.07261719 5.40570313 -7.45773437 4.68640625 -6.82421875 3.9453125 C-3.12449799 0 -3.12449799 0 0 0 Z " fill="#BFD8DD" transform="translate(363,355)"/>
<path d="M0 0 C0.33 0.66 0.66 1.32 1 2 C-0.21484375 4.3828125 -0.21484375 4.3828125 -1.9375 7.125 C-2.50339844 8.03507812 -3.06929687 8.94515625 -3.65234375 9.8828125 C-4.09707031 10.58148438 -4.54179687 11.28015625 -5 12 C-6.32 11.67 -7.64 11.34 -9 11 C-7.68823998 9.35357683 -6.3755713 7.70787757 -5.0625 6.0625 C-4.33160156 5.14597656 -3.60070312 4.22945313 -2.84765625 3.28515625 C-1 1 -1 1 0 0 Z " fill="#A2BBC9" transform="translate(195,425)"/>
<path d="M0 0 C0 5.04169875 -3.78637167 8.32159072 -7 12 C-9.9375 14.5625 -9.9375 14.5625 -12 16 C-10.24585235 12.21205797 -7.90609326 9.17133151 -5.33984375 5.90234375 C-3.81914723 3.9370042 -3.81914723 3.9370042 -3 1 C-2.01 0.67 -1.02 0.34 0 0 Z " fill="#C9DEE7" transform="translate(250,359)"/>
<path d="M0 0 C1 3 1 3 -0.25 6.5 C-1.67322614 9.34645229 -2.58327112 11.04360043 -5 13 C-5.875 11 -5.875 11 -6 8 C-4.26346566 5.10933821 -2.19022601 2.55843792 0 0 Z " fill="#B0C8CB" transform="translate(350,366)"/>
<path d="M0 0 C0.33 0.99 0.66 1.98 1 3 C-0.546875 5.48046875 -0.546875 5.48046875 -2.75 8.1875 C-3.46671875 9.08855469 -4.1834375 9.98960937 -4.921875 10.91796875 C-5.95054687 11.94857422 -5.95054687 11.94857422 -7 13 C-7.99 13 -8.98 13 -10 13 C-5.05 6.565 -5.05 6.565 0 0 Z " fill="#A3BDC5" transform="translate(246,360)"/>
<path d="M0 0 C0.33 1.32 0.66 2.64 1 4 C0.01 4 -0.98 4 -2 4 C-2.0825 4.7425 -2.165 5.485 -2.25 6.25 C-3.1396946 9.51221354 -4.48503749 10.80954878 -7 13 C-7.99 12.67 -8.98 12.34 -10 12 C-6.7 8.04 -3.4 4.08 0 0 Z " fill="#96C6D0" transform="translate(301,291)"/>
<path d="M0 0 C1 2 1 2 0.25 5 C-1 8 -1 8 -4 10 C-4.99 9.67 -5.98 9.34 -7 9 C-4.69 6.03 -2.38 3.06 0 0 Z " fill="#A2C3C6" transform="translate(254,350)"/>
<path d="M0 0 C0.33 0.99 0.66 1.98 1 3 C0.54625 3.4125 0.0925 3.825 -0.375 4.25 C-2.07558907 5.91709585 -2.07558907 5.91709585 -3 8 C-4.0742607 10.14852141 -5.15983558 11.46652965 -7 13 C-7.66 13 -8.32 13 -9 13 C-7.50923566 9.7173068 -5.61379679 7.06922559 -3.375 4.25 C-2.74335938 3.45078125 -2.11171875 2.6515625 -1.4609375 1.828125 C-0.97882813 1.22484375 -0.49671875 0.6215625 0 0 Z " fill="#8BB4BB" transform="translate(275,323)"/>
<path d="M0 0 C1.10844919 3.32534757 0.84454356 5.62182575 0 9 C-1.65 9.33 -3.3 9.66 -5 10 C-3.14285714 2.42857143 -3.14285714 2.42857143 0 0 Z " fill="#B7E8EE" transform="translate(400,164)"/>
<path d="M0 0 C1.15154588 2.82652171 1.07817396 3.81325108 -0.125 6.6875 C-2 9 -2 9 -4.6875 9.8125 C-5.450625 9.874375 -6.21375 9.93625 -7 10 C-5.33248852 6.05860922 -2.77289351 3.2107188 0 0 Z " fill="#ADDBE5" transform="translate(440,112)"/>
<path d="M0 0 C1 4 1 4 0.375 6.0625 C-1.40672596 8.57311385 -3.23637432 9.6872778 -6 11 C-6.66 10.67 -7.32 10.34 -8 10 C-5.36 6.7 -2.72 3.4 0 0 Z " fill="#1E2B33" transform="translate(453,203)"/>
<path d="M0 0 C0.99 0.33 1.98 0.66 3 1 C0.36 4.63 -2.28 8.26 -5 12 C-6 9 -6 9 -5 6 C-3.68733482 4.64631404 -2.35432675 3.31200404 -1 2 C-0.67 1.34 -0.34 0.68 0 0 Z " fill="#133440" transform="translate(415,140)"/>
<path d="M0 0 C0 0.66 0 1.32 0 2 C6.27 2 12.54 2 19 2 C19 2.33 19 2.66 19 3 C15.54173658 3.05789006 12.08359707 3.09355821 8.625 3.125 C7.64015625 3.14175781 6.6553125 3.15851563 5.640625 3.17578125 C4.69960938 3.18222656 3.75859375 3.18867188 2.7890625 3.1953125 C1.48509521 3.21102295 1.48509521 3.21102295 0.15478516 3.22705078 C-2 3 -2 3 -4 1 C-2 0 -2 0 0 0 Z " fill="#C1CBCD" transform="translate(450,507)"/>
<path d="M0 0 C0.99 0 1.98 0 3 0 C2.67 1.65 2.34 3.3 2 5 C-1 6 -1 6 -4 5 C-2.1875 2.5 -2.1875 2.5 0 0 Z " fill="#AEDEE5" transform="translate(325,260)"/>
<path d="M0 0 C0.33 0.99 0.66 1.98 1 3 C0.071875 3.8353125 0.071875 3.8353125 -0.875 4.6875 C-3.06106379 7.06645178 -3.98785699 8.96357096 -5 12 C-6.32 11.67 -7.64 11.34 -9 11 C-6.03 7.37 -3.06 3.74 0 0 Z " fill="#9DCBD3" transform="translate(380,189)"/>
<path d="M0 0 C0.33 0 0.66 0 1 0 C1.33663062 3.70293685 1.47736015 5.39534381 -0.875 8.375 C-3 10 -3 10 -5 10 C-4.67 8.68 -4.34 7.36 -4 6 C-3.34 6 -2.68 6 -2 6 C-1.34 4.02 -0.68 2.04 0 0 Z " fill="#C8E4EE" transform="translate(277,322)"/>
<path d="M0 0 C0.99 0.33 1.98 0.66 3 1 C0.03 4.3 -2.94 7.6 -6 11 C-6.33 10.34 -6.66 9.68 -7 9 C-6.360625 8.236875 -5.72125 7.47375 -5.0625 6.6875 C-2.85767219 4.11753287 -2.85767219 4.11753287 -2 1 C-1.34 0.67 -0.68 0.34 0 0 Z " fill="#183744" transform="translate(440,109)"/>
<path d="M0 0 C0.33 0.66 0.66 1.32 1 2 C-1.97 5.63 -4.94 9.26 -8 13 C-8 9.06764531 -6.45054659 7.97035951 -4 5 C-3.67 4.01 -3.34 3.02 -3 2 C-2.01 1.34 -1.02 0.68 0 0 Z " fill="#C2D7E1" transform="translate(207,412)"/>
<path d="M0 0 C0.33 0.66 0.66 1.32 1 2 C0.67 2.99 0.34 3.98 0 5 C-0.66 5 -1.32 5 -2 5 C-2.66 6.65 -3.32 8.3 -4 10 C-4.99 9.67 -5.98 9.34 -7 9 C-4.69 6.03 -2.38 3.06 0 0 Z " fill="#A1BCC6" transform="translate(232,378)"/>
<path d="M0 0 C0.99 0.66 1.98 1.32 3 2 C-0.625 8.75 -0.625 8.75 -4 11 C-2.7874262 7.27566618 -1.49140021 3.62197194 0 0 Z " fill="#DDFBFD" transform="translate(441,112)"/>
<path d="M0 0 C1 2 1 2 0.3125 4.5625 C-1 7 -1 7 -3.125 7.8125 C-3.74375 7.874375 -4.3625 7.93625 -5 8 C-5 8.66 -5 9.32 -5 10 C-5.66 9.67 -6.32 9.34 -7 9 C-4.69 6.03 -2.38 3.06 0 0 Z " fill="#95CECE" transform="translate(350,228)"/>
<path d="M0 0 C1 3 1 3 -0.1875 5.5 C-1.94150569 7.9193182 -3.51794573 9.37382651 -6 11 C-6.66 10.67 -7.32 10.34 -8 10 C-7.360625 9.401875 -6.72125 8.80375 -6.0625 8.1875 C-3.79689611 6.09189663 -3.79689611 6.09189663 -3 3 C-1.4375 1.3125 -1.4375 1.3125 0 0 Z " fill="#C2F1F7" transform="translate(384,186)"/>
<path d="M0 0 C0.99 0.33 1.98 0.66 3 1 C0.36 3.64 -2.28 6.28 -5 9 C-5.33 8.01 -5.66 7.02 -6 6 C-4.625 4.5 -4.625 4.5 -3 3 C-2.34 3 -1.68 3 -1 3 C-0.67 2.01 -0.34 1.02 0 0 Z " fill="#D6F7FE" transform="translate(395,174)"/>
<path d="M0 0 C0 4.07605096 -1.55272534 6.7838181 -4 10 C-6.25 10.9375 -6.25 10.9375 -8 11 C-6.63629701 8.00779732 -5.05091917 5.70973471 -2.875 3.25 C-2.33617187 2.63640625 -1.79734375 2.0228125 -1.2421875 1.390625 C-0.62730469 0.70226562 -0.62730469 0.70226562 0 0 Z " fill="#84B2BB" transform="translate(284,312)"/>
<path d="M0 0 C0.66 0.66 1.32 1.32 2 2 C0.02 4.31 -1.96 6.62 -4 9 C-4.66 8.67 -5.32 8.34 -6 8 C-4.02 5.36 -2.04 2.72 0 0 Z " fill="#19272D" transform="translate(392,280)"/>
<path d="M0 0 C1 2 1 2 0.3125 4.4375 C-1.10829685 7.21143671 -2.39746148 8.35172561 -5 10 C-5.66 9.67 -6.32 9.34 -7 9 C-4.69 6.03 -2.38 3.06 0 0 Z " fill="#9BD0D9" transform="translate(395,170)"/>
<path d="M0 0 C1.125 3.75 1.125 3.75 0 6 C-0.66 6 -1.32 6 -2 6 C-2 6.66 -2 7.32 -2 8 C-2.99 8 -3.98 8 -5 8 C-3.62845496 5.04590299 -2.01136276 2.55991624 0 0 Z " fill="#93D7E3" transform="translate(425,131)"/>
<path d="M0 0 C0.33 0.66 0.66 1.32 1 2 C0.29296875 3.91015625 0.29296875 3.91015625 -0.8125 6.0625 C-1.16957031 6.77535156 -1.52664063 7.48820312 -1.89453125 8.22265625 C-3 10 -3 10 -5 11 C-3.92289822 6.69159287 -2.96052484 3.36423277 0 0 Z " fill="#B1D1D5" transform="translate(370,341)"/>
<path d="M0 0 C0.66 0 1.32 0 2 0 C1.52797514 4.24822374 -0.96655518 6.19989709 -4 9 C-4.66 8.67 -5.32 8.34 -6 8 C-5.04956626 6.66102417 -4.08940853 5.32894573 -3.125 4 C-2.59132813 3.2575 -2.05765625 2.515 -1.5078125 1.75 C-1.01023437 1.1725 -0.51265625 0.595 0 0 Z " fill="#1B242B" transform="translate(413,253)"/>
<path d="M0 0 C0.33 0 0.66 0 1 0 C1.3125 2.25 1.3125 2.25 1 5 C-1.5 7.3125 -1.5 7.3125 -4 9 C-4.66 8.67 -5.32 8.34 -6 8 C-5.02471263 6.66382648 -4.04466681 5.3311249 -3.0625 4 C-2.24458984 2.88625 -2.24458984 2.88625 -1.41015625 1.75 C-0.94480469 1.1725 -0.47945312 0.595 0 0 Z " fill="#9EBCC4" transform="translate(173,452)"/>
<path d="M0 0 C0.66 0.33 1.32 0.66 2 1 C-0.31 3.64 -2.62 6.28 -5 9 C-5 4.61031544 -2.87194899 3.23094261 0 0 Z " fill="#97ADB5" transform="translate(151,480)"/>
<path d="M0 0 C0.33 0.66 0.66 1.32 1 2 C-0.14186589 4.94982021 -1.67281553 6.88437775 -4 9 C-4.66 8.67 -5.32 8.34 -6 8 C-4.02 5.36 -2.04 2.72 0 0 Z " fill="#98BBC1" transform="translate(265,336)"/>
<path d="M0 0 C0.66 0 1.32 0 2 0 C1.875 1.75 1.875 1.75 1 4 C-2.0625 6.25 -2.0625 6.25 -5 8 C-3.63055898 5.05043472 -2.12169591 2.47531189 0 0 Z " fill="#8FBEC9" transform="translate(310,279)"/>
<path d="M0 0 C0.99 0.33 1.98 0.66 3 1 C2.1875 2.9375 2.1875 2.9375 1 5 C0.01 5.33 -0.98 5.66 -2 6 C-2.33 5.34 -2.66 4.68 -3 4 C-2.01 2.68 -1.02 1.36 0 0 Z " fill="#18232A" transform="translate(461,193)"/>
<path d="M0 0 C0.99 0.33 1.98 0.66 3 1 C1.68 2.65 0.36 4.3 -1 6 C-1.99 5.67 -2.98 5.34 -4 5 C-2.68 3.35 -1.36 1.7 0 0 Z " fill="#25313A" transform="translate(504,139)"/>
<path d="M0 0 C0.99 0.33 1.98 0.66 3 1 C0.525 4.465 0.525 4.465 -2 8 C-2.33 6.68 -2.66 5.36 -3 4 C-1.5625 1.75 -1.5625 1.75 0 0 Z " fill="#0F2F3E" transform="translate(425,127)"/>
<path d="M0 0 C0.66 0 1.32 0 2 0 C1.60196439 2.88575819 1.20990931 3.82189513 -1.0625 5.75 C-1.701875 6.1625 -2.34125 6.575 -3 7 C-1.125 1.125 -1.125 1.125 0 0 Z " fill="#B1CAD7" transform="translate(160,469)"/>
<path d="M0 0 C0.66 0 1.32 0 2 0 C1.42655063 2.86724686 1.1385485 3.8614515 -1 6 C-1.99 5.67 -2.98 5.34 -4 5 C-2.71937515 3.2925002 -1.38232443 1.62626404 0 0 Z " fill="#172122" transform="translate(303,392)"/>
<path d="M0 0 C0.33 1.32 0.66 2.64 1 4 C-0.9375 6.25 -0.9375 6.25 -3 8 C-3.66 7.67 -4.32 7.34 -5 7 C-3.35 4.69 -1.7 2.38 0 0 Z " fill="#1E282D" transform="translate(288,273)"/>
<path d="M0 0 C0.66 0.33 1.32 0.66 2 1 C0.63016497 4.16115776 0.0109362 4.9927092 -3 7 C-3 3.48283697 -2.17554415 2.62878252 0 0 Z " fill="#1C262D" transform="translate(483,165)"/>
</svg>
