<?xml version="1.0" encoding="UTF-8"?>
<!DOCTYPE svg PUBLIC "-//W3C//DTD SVG 1.1//EN" "http://www.w3.org/Graphics/SVG/1.1/DTD/svg11.dtd">
<svg xmlns="http://www.w3.org/2000/svg" version="1.1" width="1024px" height="1024px" style="shape-rendering:geometricPrecision; text-rendering:geometricPrecision; image-rendering:optimizeQuality; fill-rule:evenodd; clip-rule:evenodd" xmlns:xlink="http://www.w3.org/1999/xlink">
<g><path style="opacity:0.294" fill="#0b0c11" d="M 446.5,357.5 C 441.128,352.13 436.128,346.463 431.5,340.5C 431.573,338.973 430.906,337.973 429.5,337.5C 428.299,335.091 426.633,333.091 424.5,331.5C 423.92,329.251 422.587,327.585 420.5,326.5C 418.975,323.437 416.975,320.77 414.5,318.5C 414.573,316.973 413.906,315.973 412.5,315.5C 407.584,308.246 401.917,301.579 395.5,295.5C 394.653,294.034 393.32,293.2 391.5,293C 362.5,292.333 333.5,292.333 304.5,293C 303.084,294.915 303.418,296.415 305.5,297.5C 324.62,320.278 342.953,343.611 360.5,367.5C 358.983,367.489 357.816,366.823 357,365.5C 345.251,349.63 333.251,333.963 321,318.5C 315,311.833 309,305.167 303,298.5C 301.418,296.376 301.251,294.21 302.5,292C 333.561,291.023 364.561,291.356 395.5,293C 398.28,294.812 400.78,296.979 403,299.5C 417.741,318.729 432.241,338.062 446.5,357.5 Z"/></g>
<g><path style="opacity:0.403" fill="#0d0e16" d="M 732.5,304.5 C 732.5,303.833 732.5,303.167 732.5,302.5C 734.168,300.66 735.668,298.66 737,296.5C 737.74,295.251 737.573,294.251 736.5,293.5C 707.67,292.336 678.67,292.17 649.5,293C 648.016,293.662 646.683,294.496 645.5,295.5C 645.5,294.833 645.167,294.5 644.5,294.5C 645.6,293.442 646.934,292.608 648.5,292C 673.171,291.678 697.837,291.178 722.5,290.5C 728.201,290.572 733.867,290.906 739.5,291.5C 739.663,293.857 739.497,296.19 739,298.5C 736.31,300.027 734.143,302.027 732.5,304.5 Z"/></g>
<g><path style="opacity:1" fill="#393a3f" d="M 395.5,295.5 C 393.518,295.005 391.518,294.505 389.5,294C 375.833,293.833 362.167,293.667 348.5,293.5C 334.445,293.509 320.611,294.176 307,295.5C 306.667,295.167 306.333,294.833 306,294.5C 305.517,295.448 305.351,296.448 305.5,297.5C 303.418,296.415 303.084,294.915 304.5,293C 333.5,292.333 362.5,292.333 391.5,293C 393.32,293.2 394.653,294.034 395.5,295.5 Z"/></g>
<g><path style="opacity:1" fill="#4f5054" d="M 395.5,295.5 C 401.917,301.579 407.584,308.246 412.5,315.5C 412.427,317.027 413.094,318.027 414.5,318.5C 416.975,320.77 418.975,323.437 420.5,326.5C 421.08,328.749 422.413,330.415 424.5,331.5C 426.633,333.091 428.299,335.091 429.5,337.5C 429.427,339.027 430.094,340.027 431.5,340.5C 436.128,346.463 441.128,352.13 446.5,357.5C 446.833,358.833 447.167,360.167 447.5,361.5C 446.17,362.832 444.503,363.665 442.5,364C 444.805,365.664 444.472,367.164 441.5,368.5C 441.151,381.445 440.484,394.445 439.5,407.5C 443.673,407.581 447.339,406.248 450.5,403.5C 451.853,402.476 452.52,401.143 452.5,399.5C 450.857,399.48 449.524,400.147 448.5,401.5C 447.158,399.995 445.492,399.328 443.5,399.5C 443.5,394.167 443.5,388.833 443.5,383.5C 444.833,383.5 446.167,383.5 447.5,383.5C 447.5,386.833 447.5,390.167 447.5,393.5C 450.788,393.927 453.788,393.26 456.5,391.5C 457.452,393.045 457.785,394.712 457.5,396.5C 459.857,396.337 462.19,396.503 464.5,397C 461.088,398.644 460.088,401.144 461.5,404.5C 463.111,403.68 463.778,402.346 463.5,400.5C 465.167,400.5 466.833,400.5 468.5,400.5C 468.509,398.339 469.176,397.006 470.5,396.5C 469.183,393.299 467.016,392.299 464,393.5C 463.023,391.26 462.523,388.927 462.5,386.5C 458.37,386.466 454.37,385.799 450.5,384.5C 450.337,382.143 450.503,379.81 451,377.5C 451.483,378.448 451.649,379.448 451.5,380.5C 452.5,380.5 453.5,380.5 454.5,380.5C 454.306,384.262 456.14,385.929 460,385.5C 461.5,385.333 463,385.167 464.5,385C 463.418,383.67 462.751,382.17 462.5,380.5C 463.637,381.789 464.97,382.789 466.5,383.5C 470.809,389.482 475.142,395.482 479.5,401.5C 480.08,403.749 481.413,405.415 483.5,406.5C 488.85,412.522 493.85,418.855 498.5,425.5C 498.427,427.027 499.094,428.027 500.5,428.5C 501.189,431.353 502.522,433.853 504.5,436C 502.805,437.046 502.472,438.213 503.5,439.5C 494.953,451.56 485.786,463.226 476,474.5C 474.906,476.078 474.072,477.745 473.5,479.5C 469.699,483.473 466.032,487.64 462.5,492C 461.5,492.667 460.5,492.667 459.5,492C 452.028,481.038 443.695,470.871 434.5,461.5C 434.291,460.078 433.791,458.745 433,457.5C 429.301,452.973 425.468,448.639 421.5,444.5C 420.564,441.232 418.564,438.899 415.5,437.5C 415.291,436.078 414.791,434.745 414,433.5C 396.387,411.247 378.554,389.247 360.5,367.5C 342.953,343.611 324.62,320.278 305.5,297.5C 305.351,296.448 305.517,295.448 306,294.5C 306.333,294.833 306.667,295.167 307,295.5C 320.611,294.176 334.445,293.509 348.5,293.5C 362.167,293.667 375.833,293.833 389.5,294C 391.518,294.505 393.518,295.005 395.5,295.5 Z"/></g>
<g><path style="opacity:1" fill="#525255" d="M 736.5,293.5 C 737.573,294.251 737.74,295.251 737,296.5C 735.668,298.66 734.168,300.66 732.5,302.5C 717.833,320.5 703.167,338.5 688.5,356.5C 687.094,356.973 686.427,357.973 686.5,359.5C 661.5,390.833 636.5,422.167 611.5,453.5C 610.094,453.973 609.427,454.973 609.5,456.5C 608.178,456.67 607.011,456.337 606,455.5C 605.667,453.167 605.333,450.833 605,448.5C 604.999,451.687 604.166,454.52 602.5,457C 602.957,457.414 603.291,457.914 603.5,458.5C 602.234,459.724 601.067,461.057 600,462.5C 596.953,462.071 593.786,462.071 590.5,462.5C 590.785,464.288 590.452,465.955 589.5,467.5C 585.539,471.478 584.206,473.478 585.5,473.5C 586.552,473.351 587.552,473.517 588.5,474C 587.137,475.945 586.303,478.112 586,480.5C 584.599,478.808 582.766,478.141 580.5,478.5C 579.626,470.848 579.459,463.182 580,455.5C 580.653,453.436 581.82,451.769 583.5,450.5C 582.272,448.679 580.606,447.679 578.5,447.5C 577.746,451.467 575.913,452.133 573,449.5C 572.501,444.511 572.334,439.511 572.5,434.5C 574.492,434.672 576.158,434.005 577.5,432.5C 578.495,427.208 578.828,421.875 578.5,416.5C 582.833,416.5 587.167,416.5 591.5,416.5C 592.167,405.992 592.833,395.326 593.5,384.5C 595.115,383.846 596.782,383.346 598.5,383C 597.886,381.87 597.886,380.537 598.5,379C 598.969,377.113 599.969,375.613 601.5,374.5C 600.264,367.067 603.597,363.733 611.5,364.5C 611.215,362.712 611.548,361.045 612.5,359.5C 613.59,360.391 613.59,361.391 612.5,362.5C 613.274,363.711 614.107,363.711 615,362.5C 615.333,359.5 615.667,356.5 616,353.5C 618.251,351.623 620.751,350.123 623.5,349C 625.65,345.065 628.317,341.398 631.5,338C 631.167,336.333 630.833,334.667 630.5,333C 632.32,331.193 633.487,329.027 634,326.5C 635.242,325.128 636.742,324.128 638.5,323.5C 638.32,320.788 638.32,318.622 638.5,317C 644.397,315.552 647.397,311.718 647.5,305.5C 646.757,304.818 646.091,304.151 645.5,303.5C 646.156,300.185 647.823,297.518 650.5,295.5C 651.965,296.609 652.965,296.109 653.5,294C 681.165,293.5 708.831,293.333 736.5,293.5 Z"/></g>
<g><path style="opacity:0.984" fill="#2b313b" d="M 643.5,297.5 C 642.92,299.749 641.587,301.415 639.5,302.5C 640.08,300.251 641.413,298.585 643.5,297.5 Z"/></g>
<g><path style="opacity:1" fill="#2d3340" d="M 639.5,302.5 C 637.984,305.533 635.984,308.2 633.5,310.5C 634.529,307.109 636.529,304.443 639.5,302.5 Z"/></g>
<g><path style="opacity:0.969" fill="#2f3035" d="M 412.5,315.5 C 413.906,315.973 414.573,316.973 414.5,318.5C 413.094,318.027 412.427,317.027 412.5,315.5 Z"/></g>
<g><path style="opacity:0.231" fill="#111216" d="M 732.5,302.5 C 732.5,303.167 732.5,303.833 732.5,304.5C 725.21,313.043 718.377,322.043 712,331.5C 704.273,340.718 696.439,349.718 688.5,358.5C 688.5,357.833 688.5,357.167 688.5,356.5C 703.167,338.5 717.833,320.5 732.5,302.5 Z"/></g>
<g><path style="opacity:1" fill="#363e4e" d="M 633.5,310.5 C 631.797,314.909 629.797,319.243 627.5,323.5C 625.273,322.737 623.94,323.737 623.5,326.5C 621.646,327.241 619.979,328.241 618.5,329.5C 622.769,322.567 627.769,316.234 633.5,310.5 Z"/></g>
<g><path style="opacity:1" fill="#3d3e42" d="M 420.5,326.5 C 422.587,327.585 423.92,329.251 424.5,331.5C 422.413,330.415 421.08,328.749 420.5,326.5 Z"/></g>
<g><path style="opacity:0.999" fill="#454b54" d="M 736.5,293.5 C 708.831,293.333 681.165,293.5 653.5,294C 652.965,296.109 651.965,296.609 650.5,295.5C 647.823,297.518 646.156,300.185 645.5,303.5C 644.226,304.189 644.226,305.023 645.5,306C 643.269,307.277 641.602,309.111 640.5,311.5C 639.311,312.429 637.978,312.762 636.5,312.5C 636.554,316.78 634.554,319.114 630.5,319.5C 630.36,325.634 627.693,330.3 622.5,333.5C 621.819,338.118 619.319,341.118 615,342.5C 614.089,345.576 612.256,347.909 609.5,349.5C 608.391,351.385 607.557,353.385 607,355.5C 602.338,358.52 598.338,362.853 595,368.5C 594.689,369.742 595.189,370.742 596.5,371.5C 595,373.167 593.5,374.833 592,376.5C 591.184,375.177 590.017,374.511 588.5,374.5C 587.485,373.54 587.485,372.373 588.5,371C 590.174,368.826 592.174,366.993 594.5,365.5C 596.524,361.991 598.191,358.324 599.5,354.5C 600.496,354.414 601.329,354.748 602,355.5C 605.349,352.318 608.516,348.985 611.5,345.5C 613.417,341.414 616.251,338.081 620,335.5C 620.562,332.128 622.062,329.295 624.5,327C 624.272,326.601 623.938,326.435 623.5,326.5C 623.94,323.737 625.273,322.737 627.5,323.5C 629.797,319.243 631.797,314.909 633.5,310.5C 635.984,308.2 637.984,305.533 639.5,302.5C 641.587,301.415 642.92,299.749 643.5,297.5C 643.833,296.5 644.5,295.833 645.5,295.5C 646.683,294.496 648.016,293.662 649.5,293C 678.67,292.17 707.67,292.336 736.5,293.5 Z"/></g>
<g><path style="opacity:0.992" fill="#303b4b" d="M 618.5,329.5 C 617.85,331.435 617.517,333.435 617.5,335.5C 615.486,335.392 613.82,336.058 612.5,337.5C 614.016,334.467 616.016,331.8 618.5,329.5 Z"/></g>
<g><path style="opacity:1" fill="#313034" d="M 429.5,337.5 C 430.906,337.973 431.573,338.973 431.5,340.5C 430.094,340.027 429.427,339.027 429.5,337.5 Z"/></g>
<g><path style="opacity:0.997" fill="#3c4654" d="M 623.5,326.5 C 623.938,326.435 624.272,326.601 624.5,327C 622.062,329.295 620.562,332.128 620,335.5C 616.251,338.081 613.417,341.414 611.5,345.5C 608.516,348.985 605.349,352.318 602,355.5C 601.329,354.748 600.496,354.414 599.5,354.5C 603.457,348.543 607.79,342.877 612.5,337.5C 613.82,336.058 615.486,335.392 617.5,335.5C 617.517,333.435 617.85,331.435 618.5,329.5C 619.979,328.241 621.646,327.241 623.5,326.5 Z"/></g>
<g><path style="opacity:0.671" fill="#232429" d="M 688.5,356.5 C 688.5,357.167 688.5,357.833 688.5,358.5C 687.833,358.833 687.167,359.167 686.5,359.5C 686.427,357.973 687.094,356.973 688.5,356.5 Z"/></g>
<g><path style="opacity:0.255" fill="#090e1a" d="M 644.5,294.5 C 645.167,294.5 645.5,294.833 645.5,295.5C 644.5,295.833 643.833,296.5 643.5,297.5C 641.413,298.585 640.08,300.251 639.5,302.5C 636.529,304.443 634.529,307.109 633.5,310.5C 627.769,316.234 622.769,322.567 618.5,329.5C 616.016,331.8 614.016,334.467 612.5,337.5C 607.79,342.877 603.457,348.543 599.5,354.5C 591.5,364.167 583.5,373.833 575.5,383.5C 575.351,382.448 575.517,381.448 576,380.5C 580.392,375.449 584.725,370.449 589,365.5C 605.194,342.789 622.028,320.456 639.5,298.5C 641.186,297.143 642.852,295.81 644.5,294.5 Z"/></g>
<g><path style="opacity:1" fill="#515154" d="M 447.5,361.5 C 449.89,362.891 451.557,364.891 452.5,367.5C 453.004,371.92 455.337,374.92 459.5,376.5C 460.974,377.436 461.974,378.77 462.5,380.5C 462.751,382.17 463.418,383.67 464.5,385C 463,385.167 461.5,385.333 460,385.5C 456.14,385.929 454.306,384.262 454.5,380.5C 453.5,380.5 452.5,380.5 451.5,380.5C 451.649,379.448 451.483,378.448 451,377.5C 450.503,379.81 450.337,382.143 450.5,384.5C 454.37,385.799 458.37,386.466 462.5,386.5C 462.523,388.927 463.023,391.26 464,393.5C 467.016,392.299 469.183,393.299 470.5,396.5C 469.176,397.006 468.509,398.339 468.5,400.5C 466.833,400.5 465.167,400.5 463.5,400.5C 463.778,402.346 463.111,403.68 461.5,404.5C 460.088,401.144 461.088,398.644 464.5,397C 462.19,396.503 459.857,396.337 457.5,396.5C 457.785,394.712 457.452,393.045 456.5,391.5C 453.788,393.26 450.788,393.927 447.5,393.5C 447.5,390.167 447.5,386.833 447.5,383.5C 446.167,383.5 444.833,383.5 443.5,383.5C 443.5,388.833 443.5,394.167 443.5,399.5C 445.492,399.328 447.158,399.995 448.5,401.5C 449.524,400.147 450.857,399.48 452.5,399.5C 452.52,401.143 451.853,402.476 450.5,403.5C 447.339,406.248 443.673,407.581 439.5,407.5C 440.484,394.445 441.151,381.445 441.5,368.5C 444.472,367.164 444.805,365.664 442.5,364C 444.503,363.665 446.17,362.832 447.5,361.5 Z"/></g>
<g><path style="opacity:0.031" fill="#0b0c10" d="M 446.5,357.5 C 447.496,357.414 448.329,357.748 449,358.5C 453.95,365.784 459.283,372.784 465,379.5C 465.791,380.745 466.291,382.078 466.5,383.5C 464.97,382.789 463.637,381.789 462.5,380.5C 461.974,378.77 460.974,377.436 459.5,376.5C 457.542,373.208 455.209,370.208 452.5,367.5C 451.557,364.891 449.89,362.891 447.5,361.5C 447.167,360.167 446.833,358.833 446.5,357.5 Z"/></g>
<g><path style="opacity:0.989" fill="#424447" d="M 452.5,367.5 C 455.209,370.208 457.542,373.208 459.5,376.5C 455.337,374.92 453.004,371.92 452.5,367.5 Z"/></g>
<g><path style="opacity:0.995" fill="#3a414f" d="M 599.5,354.5 C 598.191,358.324 596.524,361.991 594.5,365.5C 592.174,366.993 590.174,368.826 588.5,371C 587.485,372.373 587.485,373.54 588.5,374.5C 588.5,374.833 588.5,375.167 588.5,375.5C 585.087,377.112 582.421,379.612 580.5,383C 580.833,383.333 581.167,383.667 581.5,384C 579.281,385.763 577.281,387.763 575.5,390C 574.207,390.49 572.873,390.657 571.5,390.5C 572.833,388.167 574.167,385.833 575.5,383.5C 583.5,373.833 591.5,364.167 599.5,354.5 Z"/></g>
<g><path style="opacity:1" fill="#4f5156" d="M 645.5,303.5 C 646.091,304.151 646.757,304.818 647.5,305.5C 647.397,311.718 644.397,315.552 638.5,317C 638.32,318.622 638.32,320.788 638.5,323.5C 636.742,324.128 635.242,325.128 634,326.5C 633.487,329.027 632.32,331.193 630.5,333C 630.833,334.667 631.167,336.333 631.5,338C 628.317,341.398 625.65,345.065 623.5,349C 620.751,350.123 618.251,351.623 616,353.5C 615.667,356.5 615.333,359.5 615,362.5C 614.107,363.711 613.274,363.711 612.5,362.5C 613.59,361.391 613.59,360.391 612.5,359.5C 611.548,361.045 611.215,362.712 611.5,364.5C 603.597,363.733 600.264,367.067 601.5,374.5C 599.969,375.613 598.969,377.113 598.5,379C 597.886,380.537 597.886,381.87 598.5,383C 596.782,383.346 595.115,383.846 593.5,384.5C 592.833,395.326 592.167,405.992 591.5,416.5C 586.695,415.513 581.695,415.179 576.5,415.5C 576.5,420.833 576.5,426.167 576.5,431.5C 571.859,432.127 567.193,432.46 562.5,432.5C 562.666,437.179 562.499,441.845 562,446.5C 556.271,446.583 550.438,446.75 544.5,447C 543.075,450.246 542.242,453.413 542,456.5C 541.782,453.574 541.282,450.74 540.5,448C 542.301,447.683 542.634,447.016 541.5,446C 542.255,443.825 543.088,441.659 544,439.5C 546.097,439.306 548.263,439.306 550.5,439.5C 552.14,437.86 553.806,436.194 555.5,434.5C 555.833,435.167 556.167,435.833 556.5,436.5C 555.246,438.334 554.579,440.334 554.5,442.5C 555.833,442.5 557.167,442.5 558.5,442.5C 558.5,438.833 558.5,435.167 558.5,431.5C 559.833,431.5 561.167,431.5 562.5,431.5C 563.037,425.865 562.37,420.532 560.5,415.5C 564.261,411.562 567.928,407.395 571.5,403C 570.833,402.667 570.167,402.333 569.5,402C 576.138,396.132 581.804,389.465 586.5,382C 586.167,381.667 585.833,381.333 585.5,381C 587.002,380.417 588.335,379.584 589.5,378.5C 588.944,377.337 588.611,376.337 588.5,375.5C 588.5,375.167 588.5,374.833 588.5,374.5C 590.017,374.511 591.184,375.177 592,376.5C 593.5,374.833 595,373.167 596.5,371.5C 595.189,370.742 594.689,369.742 595,368.5C 598.338,362.853 602.338,358.52 607,355.5C 607.557,353.385 608.391,351.385 609.5,349.5C 612.256,347.909 614.089,345.576 615,342.5C 619.319,341.118 621.819,338.118 622.5,333.5C 627.693,330.3 630.36,325.634 630.5,319.5C 634.554,319.114 636.554,316.78 636.5,312.5C 637.978,312.762 639.311,312.429 640.5,311.5C 641.602,309.111 643.269,307.277 645.5,306C 644.226,305.023 644.226,304.189 645.5,303.5 Z"/></g>
<g><path style="opacity:0.569" fill="#080c17" d="M 575.5,383.5 C 574.167,385.833 572.833,388.167 571.5,390.5C 564.149,399.19 557.149,408.19 550.5,417.5C 548.457,418.579 547.124,420.246 546.5,422.5C 542.833,426.5 539.167,430.5 535.5,434.5C 535.709,433.078 536.209,431.745 537,430.5C 549.431,416.072 561.097,401.072 572,385.5C 572.816,384.177 573.983,383.511 575.5,383.5 Z"/></g>
<g><path style="opacity:0.639" fill="#101014" d="M 360.5,367.5 C 378.554,389.247 396.387,411.247 414,433.5C 414.791,434.745 415.291,436.078 415.5,437.5C 408.87,430.907 402.704,423.907 397,416.5C 387.057,402.286 376.39,388.62 365,375.5C 363.223,372.941 361.723,370.274 360.5,367.5 Z"/></g>
<g><path style="opacity:1" fill="#35353b" d="M 479.5,401.5 C 481.587,402.585 482.92,404.251 483.5,406.5C 481.413,405.415 480.08,403.749 479.5,401.5 Z"/></g>
<g><path style="opacity:0.09" fill="#0a0a0f" d="M 466.5,383.5 C 468.371,383.859 469.871,384.859 471,386.5C 478.982,397.477 487.316,408.144 496,418.5C 497.777,421.059 499.277,423.726 500.5,426.5C 499.833,426.167 499.167,425.833 498.5,425.5C 493.85,418.855 488.85,412.522 483.5,406.5C 482.92,404.251 481.587,402.585 479.5,401.5C 475.142,395.482 470.809,389.482 466.5,383.5 Z"/></g>
<g><path style="opacity:0.997" fill="#373d4b" d="M 571.5,390.5 C 569.11,397.725 564.943,403.725 559,408.5C 557.871,413.14 555.038,416.14 550.5,417.5C 557.149,408.19 564.149,399.19 571.5,390.5 Z"/></g>
<g><path style="opacity:0.999" fill="#464d57" d="M 588.5,375.5 C 588.611,376.337 588.944,377.337 589.5,378.5C 588.335,379.584 587.002,380.417 585.5,381C 585.833,381.333 586.167,381.667 586.5,382C 581.804,389.465 576.138,396.132 569.5,402C 570.167,402.333 570.833,402.667 571.5,403C 567.928,407.395 564.261,411.562 560.5,415.5C 559.766,416.878 559.099,418.378 558.5,420C 558.833,420.333 559.167,420.667 559.5,421C 557.639,422.028 556.305,423.528 555.5,425.5C 553.096,426.35 550.763,427.35 548.5,428.5C 547.49,431.255 545.657,433.255 543,434.5C 542.691,435.766 542.191,436.933 541.5,438C 541.833,438.333 542.167,438.667 542.5,439C 538.964,443.237 535.798,447.737 533,452.5C 530.457,454.342 528.29,456.509 526.5,459C 526.833,459.333 527.167,459.667 527.5,460C 525,461.833 522.5,463.667 520,465.5C 517.903,468.067 516.57,471.067 516,474.5C 515.667,473.5 515.333,472.5 515,471.5C 511.086,478.022 506.253,483.689 500.5,488.5C 501.323,485.539 501.99,482.539 502.5,479.5C 502.5,479.167 502.5,478.833 502.5,478.5C 504.339,477.418 506.339,476.585 508.5,476C 511.426,470.429 515.093,466.262 519.5,463.5C 520.251,462.624 520.751,461.624 521,460.5C 521.333,460.833 521.667,461.167 522,461.5C 522.725,459.051 523.725,456.717 525,454.5C 527.709,451.291 530.875,448.625 534.5,446.5C 534.93,444.62 534.93,442.62 534.5,440.5C 534.833,439.167 535.167,437.833 535.5,436.5C 538.501,433.668 541.667,431.002 545,428.5C 545.505,426.482 546.005,424.482 546.5,422.5C 547.124,420.246 548.457,418.579 550.5,417.5C 555.038,416.14 557.871,413.14 559,408.5C 564.943,403.725 569.11,397.725 571.5,390.5C 572.873,390.657 574.207,390.49 575.5,390C 577.281,387.763 579.281,385.763 581.5,384C 581.167,383.667 580.833,383.333 580.5,383C 582.421,379.612 585.087,377.112 588.5,375.5 Z"/></g>
<g><path style="opacity:1" fill="#4d4e53" d="M 560.5,415.5 C 562.37,420.532 563.037,425.865 562.5,431.5C 561.167,431.5 559.833,431.5 558.5,431.5C 558.5,435.167 558.5,438.833 558.5,442.5C 557.167,442.5 555.833,442.5 554.5,442.5C 554.579,440.334 555.246,438.334 556.5,436.5C 556.167,435.833 555.833,435.167 555.5,434.5C 553.806,436.194 552.14,437.86 550.5,439.5C 548.263,439.306 546.097,439.306 544,439.5C 543.088,441.659 542.255,443.825 541.5,446C 542.634,447.016 542.301,447.683 540.5,448C 541.282,450.74 541.782,453.574 542,456.5C 542.242,453.413 543.075,450.246 544.5,447C 550.438,446.75 556.271,446.583 562,446.5C 562.499,441.845 562.666,437.179 562.5,432.5C 567.193,432.46 571.859,432.127 576.5,431.5C 576.5,426.167 576.5,420.833 576.5,415.5C 581.695,415.179 586.695,415.513 591.5,416.5C 587.167,416.5 582.833,416.5 578.5,416.5C 578.828,421.875 578.495,427.208 577.5,432.5C 576.158,434.005 574.492,434.672 572.5,434.5C 572.334,439.511 572.501,444.511 573,449.5C 575.913,452.133 577.746,451.467 578.5,447.5C 580.606,447.679 582.272,448.679 583.5,450.5C 581.82,451.769 580.653,453.436 580,455.5C 579.459,463.182 579.626,470.848 580.5,478.5C 582.766,478.141 584.599,478.808 586,480.5C 586.303,478.112 587.137,475.945 588.5,474C 587.552,473.517 586.552,473.351 585.5,473.5C 584.206,473.478 585.539,471.478 589.5,467.5C 590.452,465.955 590.785,464.288 590.5,462.5C 593.786,462.071 596.953,462.071 600,462.5C 601.067,461.057 602.234,459.724 603.5,458.5C 603.291,457.914 602.957,457.414 602.5,457C 604.166,454.52 604.999,451.687 605,448.5C 605.333,450.833 605.667,453.167 606,455.5C 607.011,456.337 608.178,456.67 609.5,456.5C 595.515,474.481 581.182,492.148 566.5,509.5C 560.924,516.955 555.091,524.288 549,531.5C 548.209,532.745 547.709,534.078 547.5,535.5C 542.916,540.259 538.416,545.259 534,550.5C 509.97,581.353 485.803,612.02 461.5,642.5C 460.733,641.828 460.066,640.995 459.5,640C 458.262,640.077 457.262,639.911 456.5,639.5C 457.403,637.38 458.737,637.046 460.5,638.5C 461.308,638.192 461.975,637.692 462.5,637C 460.782,635.963 458.949,635.463 457,635.5C 457.267,631.559 457.434,627.559 457.5,623.5C 455.833,623.5 454.167,623.5 452.5,623.5C 452.5,620.833 452.5,618.167 452.5,615.5C 451.5,615.5 450.5,615.5 449.5,615.5C 449.5,612.833 449.5,610.167 449.5,607.5C 451.199,607.66 452.866,607.494 454.5,607C 449.753,602.879 445.086,598.713 440.5,594.5C 439.167,589.833 439.167,585.167 440.5,580.5C 445.911,578.618 448.078,574.952 447,569.5C 446.434,572.229 444.934,574.229 442.5,575.5C 442.178,573.278 442.845,571.444 444.5,570C 444.043,569.586 443.709,569.086 443.5,568.5C 444.689,567.571 446.022,567.238 447.5,567.5C 447.643,565.738 447.309,564.071 446.5,562.5C 447.441,562.511 448.108,562.011 448.5,561C 448.095,560.055 447.428,559.388 446.5,559C 448.061,558.682 449.228,557.849 450,556.5C 451.518,556.057 452.685,556.724 453.5,558.5C 455.959,555.416 457.625,551.916 458.5,548C 457.5,545.787 458.167,543.954 460.5,542.5C 459.371,540.471 459.871,540.137 462,541.5C 462.308,540.692 462.808,540.025 463.5,539.5C 465.1,543.985 467.433,544.485 470.5,541C 467.833,540.333 467.833,539.667 470.5,539C 468.381,538.902 466.714,538.069 465.5,536.5C 466.325,535.614 467.325,535.281 468.5,535.5C 468.78,532.713 470.113,530.547 472.5,529C 472.167,528.667 471.833,528.333 471.5,528C 472.766,527.691 473.933,527.191 475,526.5C 475.333,526.833 475.667,527.167 476,527.5C 477.517,526.048 477.684,524.548 476.5,523C 477.62,521.263 478.62,519.429 479.5,517.5C 479.137,516.817 478.804,516.15 478.5,515.5C 479.09,514.234 479.59,512.901 480,511.5C 480.667,510.167 481.333,510.167 482,511.5C 483.391,507.444 485.891,504.278 489.5,502C 489.167,501.667 488.833,501.333 488.5,501C 490.729,499.515 493.062,498.182 495.5,497C 494.939,495.434 495.606,494.101 497.5,493C 496.72,491.927 496.887,490.76 498,489.5C 499.007,491.742 499.841,491.408 500.5,488.5C 506.253,483.689 511.086,478.022 515,471.5C 515.333,472.5 515.667,473.5 516,474.5C 516.57,471.067 517.903,468.067 520,465.5C 522.5,463.667 525,461.833 527.5,460C 527.167,459.667 526.833,459.333 526.5,459C 528.29,456.509 530.457,454.342 533,452.5C 535.798,447.737 538.964,443.237 542.5,439C 542.167,438.667 541.833,438.333 541.5,438C 542.191,436.933 542.691,435.766 543,434.5C 545.657,433.255 547.49,431.255 548.5,428.5C 550.763,427.35 553.096,426.35 555.5,425.5C 556.305,423.528 557.639,422.028 559.5,421C 559.167,420.667 558.833,420.333 558.5,420C 559.099,418.378 559.766,416.878 560.5,415.5 Z"/></g>
<g><path style="opacity:0.051" fill="#101114" d="M 688.5,358.5 C 674.018,377.44 659.518,396.44 645,415.5C 612.59,454.698 580.924,494.364 550,534.5C 549.329,535.252 548.496,535.586 547.5,535.5C 547.709,534.078 548.209,532.745 549,531.5C 555.091,524.288 560.924,516.955 566.5,509.5C 581.182,492.148 595.515,474.481 609.5,456.5C 610.906,456.027 611.573,455.027 611.5,453.5C 636.5,422.167 661.5,390.833 686.5,359.5C 687.167,359.167 687.833,358.833 688.5,358.5 Z"/></g>
<g><path style="opacity:0.969" fill="#313136" d="M 498.5,425.5 C 499.167,425.833 499.833,426.167 500.5,426.5C 500.5,427.167 500.5,427.833 500.5,428.5C 499.094,428.027 498.427,427.027 498.5,425.5 Z"/></g>
<g><path style="opacity:0.994" fill="#303a46" d="M 546.5,422.5 C 546.005,424.482 545.505,426.482 545,428.5C 541.667,431.002 538.501,433.668 535.5,436.5C 535.5,435.833 535.5,435.167 535.5,434.5C 539.167,430.5 542.833,426.5 546.5,422.5 Z"/></g>
<g><path style="opacity:1" fill="#424349" d="M 500.5,428.5 C 502.829,430.841 504.829,433.508 506.5,436.5C 505.812,437.855 504.812,438.855 503.5,439.5C 502.472,438.213 502.805,437.046 504.5,436C 502.522,433.853 501.189,431.353 500.5,428.5 Z"/></g>
<g><path style="opacity:0.125" fill="#0e0d10" d="M 415.5,437.5 C 418.564,438.899 420.564,441.232 421.5,444.5C 418.092,443.422 416.092,441.089 415.5,437.5 Z"/></g>
<g><path style="opacity:1" fill="#2c3442" d="M 535.5,436.5 C 535.167,437.833 534.833,439.167 534.5,440.5C 533.5,441.167 532.5,441.833 531.5,442.5C 532.34,440.147 533.674,438.147 535.5,436.5 Z"/></g>
<g><path style="opacity:1" fill="#515154" d="M 566.5,509.5 C 564.194,508.215 562.361,508.882 561,511.5C 560.13,510.892 559.63,510.059 559.5,509C 560.259,499.7 560.259,489.866 559.5,479.5C 556.833,479.5 554.167,479.5 551.5,479.5C 551.5,478.5 551.5,477.5 551.5,476.5C 544.385,476.265 537.385,476.932 530.5,478.5C 530.5,474.5 530.5,470.5 530.5,466.5C 535.05,467.155 538.05,465.321 539.5,461C 543.232,460.753 545.565,458.919 546.5,455.5C 547.5,455.5 548.5,455.5 549.5,455.5C 550.167,448.833 550.833,448.833 551.5,455.5C 554.167,455.5 556.833,455.5 559.5,455.5C 559.5,453.833 559.5,452.167 559.5,450.5C 562.394,450.958 564.894,450.291 567,448.5C 570.293,450.896 573.793,452.896 577.5,454.5C 578.454,460.104 578.788,465.771 578.5,471.5C 577.5,471.5 576.5,471.5 575.5,471.5C 575.5,474.167 575.5,476.833 575.5,479.5C 574.5,479.5 573.5,479.5 572.5,479.5C 572.26,482.579 572.593,485.579 573.5,488.5C 570.41,490.625 567.91,493.292 566,496.5C 565.107,495.289 564.274,495.289 563.5,496.5C 564.09,497.799 565.09,498.632 566.5,499C 563.201,500.033 561.701,502.2 562,505.5C 562.667,504.833 563.333,504.167 564,503.5C 564.478,506.205 565.311,508.205 566.5,509.5 Z"/></g>
<g><path style="opacity:0.071" fill="#111015" d="M 421.5,444.5 C 425.468,448.639 429.301,452.973 433,457.5C 433.791,458.745 434.291,460.078 434.5,461.5C 433.504,461.586 432.671,461.252 432,460.5C 429.05,455.882 425.716,451.548 422,447.5C 421.517,446.552 421.351,445.552 421.5,444.5 Z"/></g>
<g><path style="opacity:0.027" fill="#0e0f13" d="M 500.5,426.5 C 502.017,426.511 503.184,427.177 504,428.5C 507.214,432.195 507.88,436.195 506,440.5C 495.596,454.051 484.763,467.051 473.5,479.5C 474.072,477.745 474.906,476.078 476,474.5C 485.786,463.226 494.953,451.56 503.5,439.5C 504.812,438.855 505.812,437.855 506.5,436.5C 504.829,433.508 502.829,430.841 500.5,428.5C 500.5,427.833 500.5,427.167 500.5,426.5 Z"/></g>
<g><path style="opacity:0.995" fill="#3e4552" d="M 534.5,440.5 C 534.93,442.62 534.93,444.62 534.5,446.5C 530.875,448.625 527.709,451.291 525,454.5C 523.725,456.717 522.725,459.051 522,461.5C 521.667,461.167 521.333,460.833 521,460.5C 520.751,461.624 520.251,462.624 519.5,463.5C 515.093,466.262 511.426,470.429 508.5,476C 506.339,476.585 504.339,477.418 502.5,478.5C 505.79,472.913 509.79,467.913 514.5,463.5C 516.914,462.089 518.581,460.089 519.5,457.5C 519.833,456.5 520.5,455.833 521.5,455.5C 524.471,453.557 526.471,450.891 527.5,447.5C 528.08,445.251 529.413,443.585 531.5,442.5C 532.5,441.833 533.5,441.167 534.5,440.5 Z"/></g>
<g><path style="opacity:0.969" fill="#2b303e" d="M 527.5,447.5 C 526.471,450.891 524.471,453.557 521.5,455.5C 523.016,452.467 525.016,449.8 527.5,447.5 Z"/></g>
<g><path style="opacity:0.627" fill="#2f3034" d="M 611.5,453.5 C 611.573,455.027 610.906,456.027 609.5,456.5C 609.427,454.973 610.094,453.973 611.5,453.5 Z"/></g>
<g><path style="opacity:1" fill="#292e3e" d="M 519.5,457.5 C 518.581,460.089 516.914,462.089 514.5,463.5C 515.419,460.911 517.086,458.911 519.5,457.5 Z"/></g>
<g><path style="opacity:0.639" fill="#080c17" d="M 535.5,434.5 C 535.5,435.167 535.5,435.833 535.5,436.5C 533.674,438.147 532.34,440.147 531.5,442.5C 529.413,443.585 528.08,445.251 527.5,447.5C 525.016,449.8 523.016,452.467 521.5,455.5C 520.5,455.833 519.833,456.5 519.5,457.5C 517.086,458.911 515.419,460.911 514.5,463.5C 509.79,467.913 505.79,472.913 502.5,478.5C 502.5,478.833 502.5,479.167 502.5,479.5C 500.554,480.035 499.554,481.368 499.5,483.5C 496.222,486.615 493.055,489.948 490,493.5C 488.606,495.388 487.44,497.388 486.5,499.5C 482.078,503.587 478.411,508.254 475.5,513.5C 473.086,514.911 471.419,516.911 470.5,519.5C 468.413,520.585 467.08,522.251 466.5,524.5C 460.167,531.833 453.833,539.167 447.5,546.5C 448.343,543.484 449.843,540.817 452,538.5C 480.113,505.052 507.113,470.719 533,435.5C 533.671,434.748 534.504,434.414 535.5,434.5 Z"/></g>
<g><path style="opacity:0.435" fill="#0f0f13" d="M 434.5,461.5 C 443.695,470.871 452.028,481.038 459.5,492C 460.5,492.667 461.5,492.667 462.5,492C 466.032,487.64 469.699,483.473 473.5,479.5C 471.873,484.302 469.206,488.468 465.5,492C 462.97,493.422 460.303,493.755 457.5,493C 451.097,483.26 443.93,474.094 436,465.5C 435.209,464.255 434.709,462.922 434.5,461.5 Z"/></g>
<g><path style="opacity:0.992" fill="#343949" d="M 499.5,483.5 C 497.827,486.699 496.327,490.032 495,493.5C 492.269,495.745 489.436,497.745 486.5,499.5C 487.44,497.388 488.606,495.388 490,493.5C 493.055,489.948 496.222,486.615 499.5,483.5 Z"/></g>
<g><path style="opacity:0.996" fill="#3e434f" d="M 502.5,479.5 C 501.99,482.539 501.323,485.539 500.5,488.5C 499.841,491.408 499.007,491.742 498,489.5C 496.887,490.76 496.72,491.927 497.5,493C 495.606,494.101 494.939,495.434 495.5,497C 493.062,498.182 490.729,499.515 488.5,501C 488.833,501.333 489.167,501.667 489.5,502C 485.891,504.278 483.391,507.444 482,511.5C 481.333,510.167 480.667,510.167 480,511.5C 479.59,512.901 479.09,514.234 478.5,515.5C 475.121,518.567 472.454,522.234 470.5,526.5C 469.086,527.624 467.586,528.624 466,529.5C 465.5,534 463,536.5 458.5,537C 457.833,537.667 457.167,538.333 456.5,539C 457.451,539.718 457.617,540.551 457,541.5C 455.491,542.09 453.991,542.756 452.5,543.5C 453.612,547.46 451.945,549.127 447.5,548.5C 447.5,547.833 447.5,547.167 447.5,546.5C 453.833,539.167 460.167,531.833 466.5,524.5C 468.587,523.415 469.92,521.749 470.5,519.5C 472.914,518.089 474.581,516.089 475.5,513.5C 478.411,508.254 482.078,503.587 486.5,499.5C 489.436,497.745 492.269,495.745 495,493.5C 496.327,490.032 497.827,486.699 499.5,483.5C 499.554,481.368 500.554,480.035 502.5,479.5 Z"/></g>
<g><path style="opacity:1" fill="#2c313f" d="M 475.5,513.5 C 474.581,516.089 472.914,518.089 470.5,519.5C 471.419,516.911 473.086,514.911 475.5,513.5 Z"/></g>
<g><path style="opacity:1" fill="#292e3c" d="M 470.5,519.5 C 469.92,521.749 468.587,523.415 466.5,524.5C 467.08,522.251 468.413,520.585 470.5,519.5 Z"/></g>
<g><path style="opacity:0.075" fill="#090c12" d="M 593.5,544.5 C 590.041,541.585 587.041,538.252 584.5,534.5C 582.167,530.5 579.833,530.5 577.5,534.5C 573.767,538.227 570.434,542.227 567.5,546.5C 566.5,546.833 565.833,547.5 565.5,548.5C 564.167,549.833 562.833,551.167 561.5,552.5C 562.128,549.91 563.295,547.577 565,545.5C 569.189,540.313 573.689,535.48 578.5,531C 580.568,530.313 582.568,530.48 584.5,531.5C 587.941,535.594 590.941,539.927 593.5,544.5 Z"/></g>
<g><path style="opacity:1" fill="#4c4d52" d="M 584.5,534.5 C 587.041,538.252 590.041,541.585 593.5,544.5C 619.809,578.481 646.143,612.481 672.5,646.5C 673.136,648.795 674.469,650.461 676.5,651.5C 677.806,653.473 679.473,655.139 681.5,656.5C 686.255,663.676 691.255,670.676 696.5,677.5C 695.883,677.389 695.383,677.056 695,676.5C 694.506,678.134 694.34,679.801 694.5,681.5C 692.5,681.5 690.5,681.5 688.5,681.5C 688.498,683.831 689.331,685.831 691,687.5C 692.011,688.337 693.178,688.67 694.5,688.5C 694.5,692.167 694.5,695.833 694.5,699.5C 693.5,699.5 692.5,699.5 691.5,699.5C 691.649,700.552 691.483,701.552 691,702.5C 690.333,703.833 689.667,703.833 689,702.5C 688.667,705.5 688.333,708.5 688,711.5C 687.667,709.167 687.333,706.833 687,704.5C 686.827,708.541 686.327,712.541 685.5,716.5C 681.488,714.117 677.155,713.117 672.5,713.5C 671.834,710.642 671.167,707.642 670.5,704.5C 666.361,702.973 661.695,702.306 656.5,702.5C 656.666,697.821 656.499,693.155 656,688.5C 655.506,690.134 655.34,691.801 655.5,693.5C 652.833,693.5 650.167,693.5 647.5,693.5C 647.261,691.533 647.594,689.699 648.5,688C 645.547,687.108 642.881,687.608 640.5,689.5C 639.614,688.675 639.281,687.675 639.5,686.5C 634.5,686.5 629.5,686.5 624.5,686.5C 624.5,683.833 624.5,681.167 624.5,678.5C 619.173,678.327 614.006,677.994 609,677.5C 605.842,675.974 605.676,674.141 608.5,672C 607.151,671.228 606.318,670.061 606,668.5C 605.667,670.833 605.333,673.167 605,675.5C 604.517,674.552 604.351,673.552 604.5,672.5C 603.5,672.5 602.5,672.5 601.5,672.5C 601.167,671.833 600.833,671.167 600.5,670.5C 601.694,669.387 603.027,668.387 604.5,667.5C 603.738,667.089 602.738,666.923 601.5,667C 601.957,666.586 602.291,666.086 602.5,665.5C 600.688,662.101 600.021,658.434 600.5,654.5C 597.112,654.812 594.612,653.479 593,650.5C 592.502,647.183 592.335,643.85 592.5,640.5C 590.5,640.167 588.5,639.833 586.5,639.5C 586.36,637.876 587.027,636.71 588.5,636C 587.257,634.846 586.257,633.512 585.5,632C 586.435,629.619 586.768,627.119 586.5,624.5C 585.5,624.5 584.5,624.5 583.5,624.5C 583.649,625.552 583.483,626.552 583,627.5C 582.632,626.09 581.799,625.09 580.5,624.5C 579.686,626.766 579.186,629.1 579,631.5C 578.667,630.833 578.333,630.167 578,629.5C 577.751,630.624 577.251,631.624 576.5,632.5C 574.833,631.5 573.5,630.167 572.5,628.5C 571.735,629.612 570.735,630.279 569.5,630.5C 562.969,621.428 555.969,612.761 548.5,604.5C 546.898,600.905 544.898,597.571 542.5,594.5C 542.369,593.624 542.702,592.957 543.5,592.5C 545.884,591.418 548.05,590.751 550,590.5C 550.876,576.963 556.21,566.296 566,558.5C 566.333,558.833 566.667,559.167 567,559.5C 567.684,558.216 567.517,557.049 566.5,556C 568.847,552.651 571.013,549.151 573,545.5C 573.333,545.833 573.667,546.167 574,546.5C 575.076,543.352 576.409,540.352 578,537.5C 578.414,537.957 578.914,538.291 579.5,538.5C 580.766,536.596 582.433,535.263 584.5,534.5 Z"/></g>
<g><path style="opacity:0.995" fill="#3b3f47" d="M 577.5,534.5 C 577.108,536.179 576.608,537.846 576,539.5C 573.908,542.761 571.075,545.094 567.5,546.5C 570.434,542.227 573.767,538.227 577.5,534.5 Z"/></g>
<g><path style="opacity:0.998" fill="#474a52" d="M 478.5,515.5 C 478.804,516.15 479.137,516.817 479.5,517.5C 478.62,519.429 477.62,521.263 476.5,523C 477.684,524.548 477.517,526.048 476,527.5C 475.667,527.167 475.333,526.833 475,526.5C 473.933,527.191 472.766,527.691 471.5,528C 471.833,528.333 472.167,528.667 472.5,529C 470.113,530.547 468.78,532.713 468.5,535.5C 467.325,535.281 466.325,535.614 465.5,536.5C 466.714,538.069 468.381,538.902 470.5,539C 467.833,539.667 467.833,540.333 470.5,541C 467.433,544.485 465.1,543.985 463.5,539.5C 462.808,540.025 462.308,540.692 462,541.5C 459.871,540.137 459.371,540.471 460.5,542.5C 458.167,543.954 457.5,545.787 458.5,548C 457.625,551.916 455.959,555.416 453.5,558.5C 452.685,556.724 451.518,556.057 450,556.5C 449.228,557.849 448.061,558.682 446.5,559C 447.428,559.388 448.095,560.055 448.5,561C 448.108,562.011 447.441,562.511 446.5,562.5C 447.309,564.071 447.643,565.738 447.5,567.5C 446.022,567.238 444.689,567.571 443.5,568.5C 443.709,569.086 444.043,569.586 444.5,570C 442.845,571.444 442.178,573.278 442.5,575.5C 439.193,576.158 436.36,576.158 434,575.5C 431.609,578.333 429.776,581.5 428.5,585C 431.6,586.668 432.1,588.835 430,591.5C 428.883,590.051 428.216,588.384 428,586.5C 427.781,587.938 427.281,589.271 426.5,590.5C 425.833,590.167 425.167,589.833 424.5,589.5C 423.824,590.602 423.158,591.602 422.5,592.5C 420.13,591.096 418.797,589.43 418.5,587.5C 419.11,586.609 419.443,585.609 419.5,584.5C 421.587,583.415 422.92,581.749 423.5,579.5C 425.504,578.327 427.004,576.66 428,574.5C 428.333,574.833 428.667,575.167 429,575.5C 429.283,572.258 430.117,571.924 431.5,574.5C 434.612,573.649 434.946,572.483 432.5,571C 433.308,570.692 433.975,570.192 434.5,569.5C 433.637,568.274 433.637,566.94 434.5,565.5C 436.09,563.576 437.924,563.243 440,564.5C 441.279,561.888 442.945,559.555 445,557.5C 446.131,554.555 446.964,551.555 447.5,548.5C 451.945,549.127 453.612,547.46 452.5,543.5C 453.991,542.756 455.491,542.09 457,541.5C 457.617,540.551 457.451,539.718 456.5,539C 457.167,538.333 457.833,537.667 458.5,537C 463,536.5 465.5,534 466,529.5C 467.586,528.624 469.086,527.624 470.5,526.5C 472.454,522.234 475.121,518.567 478.5,515.5 Z"/></g>
<g><path style="opacity:0.969" fill="#2e333b" d="M 565.5,548.5 C 564.99,551.674 563.323,554.008 560.5,555.5C 560.557,554.391 560.89,553.391 561.5,552.5C 562.833,551.167 564.167,549.833 565.5,548.5 Z"/></g>
<g><path style="opacity:0.494" fill="#080b13" d="M 447.5,546.5 C 447.5,547.167 447.5,547.833 447.5,548.5C 445.937,549.945 444.604,551.611 443.5,553.5C 441.413,554.585 440.08,556.251 439.5,558.5C 438.194,560.473 436.527,562.139 434.5,563.5C 437.358,557.796 440.858,552.463 445,547.5C 445.671,546.748 446.504,546.414 447.5,546.5 Z"/></g>
<g><path style="opacity:0.994" fill="#3c424a" d="M 447.5,548.5 C 446.964,551.555 446.131,554.555 445,557.5C 442.945,559.555 441.279,561.888 440,564.5C 437.924,563.243 436.09,563.576 434.5,565.5C 434.5,564.833 434.5,564.167 434.5,563.5C 436.527,562.139 438.194,560.473 439.5,558.5C 441.587,557.415 442.92,555.749 443.5,553.5C 444.604,551.611 445.937,549.945 447.5,548.5 Z"/></g>
<g><path style="opacity:0.961" fill="#242933" d="M 443.5,553.5 C 442.92,555.749 441.587,557.415 439.5,558.5C 440.08,556.251 441.413,554.585 443.5,553.5 Z"/></g>
<g><path style="opacity:0.988" fill="#3b3d47" d="M 559.5,556.5 C 559.034,558.201 559.034,559.701 559.5,561C 556.071,565.205 552.071,568.705 547.5,571.5C 550.781,565.944 554.781,560.944 559.5,556.5 Z"/></g>
<g><path style="opacity:1" fill="#3a3d47" d="M 434.5,565.5 C 433.637,566.94 433.637,568.274 434.5,569.5C 433.975,570.192 433.308,570.692 432.5,571C 434.946,572.483 434.612,573.649 431.5,574.5C 430.117,571.924 429.283,572.258 429,575.5C 428.667,575.167 428.333,574.833 428,574.5C 427.004,576.66 425.504,578.327 423.5,579.5C 426.411,574.254 430.078,569.587 434.5,565.5 Z"/></g>
<g><path style="opacity:1" fill="#474a52" d="M 584.5,534.5 C 582.433,535.263 580.766,536.596 579.5,538.5C 578.914,538.291 578.414,537.957 578,537.5C 576.409,540.352 575.076,543.352 574,546.5C 573.667,546.167 573.333,545.833 573,545.5C 571.013,549.151 568.847,552.651 566.5,556C 567.517,557.049 567.684,558.216 567,559.5C 566.667,559.167 566.333,558.833 566,558.5C 556.21,566.296 550.876,576.963 550,590.5C 548.05,590.751 545.884,591.418 543.5,592.5C 542.702,592.957 542.369,593.624 542.5,594.5C 540.478,592.469 538.811,590.135 537.5,587.5C 537.899,584.029 539.399,583.696 542,586.5C 542.617,585.551 542.451,584.718 541.5,584C 543.724,579.93 545.724,575.763 547.5,571.5C 552.071,568.705 556.071,565.205 559.5,561C 559.034,559.701 559.034,558.201 559.5,556.5C 559.5,555.833 559.833,555.5 560.5,555.5C 563.323,554.008 564.99,551.674 565.5,548.5C 565.833,547.5 566.5,546.833 567.5,546.5C 571.075,545.094 573.908,542.761 576,539.5C 576.608,537.846 577.108,536.179 577.5,534.5C 579.833,530.5 582.167,530.5 584.5,534.5 Z"/></g>
<g><path style="opacity:0.306" fill="#0c0d13" d="M 561.5,552.5 C 560.89,553.391 560.557,554.391 560.5,555.5C 559.833,555.5 559.5,555.833 559.5,556.5C 554.781,560.944 550.781,565.944 547.5,571.5C 543.865,575.307 540.365,579.307 537,583.5C 536.235,585.066 536.402,586.399 537.5,587.5C 538.811,590.135 540.478,592.469 542.5,594.5C 544.898,597.571 546.898,600.905 548.5,604.5C 546.983,604.489 545.816,603.823 545,602.5C 543.067,598.302 540.401,594.635 537,591.5C 535.97,589.412 535.137,587.245 534.5,585C 541.936,574.559 549.77,564.392 558,554.5C 558.816,553.177 559.983,552.511 561.5,552.5 Z"/></g>
<g><path style="opacity:0.997" fill="#3d3f48" d="M 547.5,571.5 C 545.724,575.763 543.724,579.93 541.5,584C 542.451,584.718 542.617,585.551 542,586.5C 539.399,583.696 537.899,584.029 537.5,587.5C 536.402,586.399 536.235,585.066 537,583.5C 540.365,579.307 543.865,575.307 547.5,571.5 Z"/></g>
<g><path style="opacity:0.992" fill="#30333c" d="M 423.5,579.5 C 422.92,581.749 421.587,583.415 419.5,584.5C 420.08,582.251 421.413,580.585 423.5,579.5 Z"/></g>
<g><path style="opacity:1" fill="#353842" d="M 419.5,584.5 C 419.443,585.609 419.11,586.609 418.5,587.5C 416.861,590.472 414.528,592.806 411.5,594.5C 413.688,590.793 416.355,587.46 419.5,584.5 Z"/></g>
<g><path style="opacity:1" fill="#46474f" d="M 418.5,587.5 C 418.797,589.43 420.13,591.096 422.5,592.5C 422.5,597.167 422.5,601.833 422.5,606.5C 419.927,606.148 417.594,606.648 415.5,608C 416.448,608.483 417.448,608.649 418.5,608.5C 419.084,613.499 419.251,618.499 419,623.5C 418.617,624.056 418.117,624.389 417.5,624.5C 417.5,626.833 417.5,629.167 417.5,631.5C 419.5,631.5 421.5,631.5 423.5,631.5C 423.5,634.167 423.5,636.833 423.5,639.5C 425.903,639.448 428.236,639.781 430.5,640.5C 430.471,644.105 429.805,647.605 428.5,651C 428.748,652.716 429.415,654.216 430.5,655.5C 429.675,656.386 428.675,656.719 427.5,656.5C 427.334,664.174 427.5,671.841 428,679.5C 429.706,680.308 430.539,681.641 430.5,683.5C 426.33,688.515 422.663,693.848 419.5,699.5C 411.517,707.832 404.183,716.832 397.5,726.5C 395.435,727.857 393.435,729.19 391.5,730.5C 379.151,730.433 366.818,729.933 354.5,729C 364.5,728.667 374.5,728.333 384.5,728C 386.856,724.747 389.023,724.914 391,728.5C 391.465,727.069 392.299,725.903 393.5,725C 392.675,723.312 391.675,723.145 390.5,724.5C 388.002,721.809 385.835,722.142 384,725.5C 383.695,723.443 383.695,721.443 384,719.5C 382.989,720.337 381.822,720.67 380.5,720.5C 379.976,714.813 379.31,709.146 378.5,703.5C 377.5,703.5 376.5,703.5 375.5,703.5C 375.5,706.167 375.5,708.833 375.5,711.5C 374.5,711.5 373.5,711.5 372.5,711.5C 372.167,706.167 371.833,700.833 371.5,695.5C 370.167,695.5 368.833,695.5 367.5,695.5C 367.646,697.942 366.813,698.609 365,697.5C 363.684,694.312 363.184,690.978 363.5,687.5C 362.167,687.5 360.833,687.5 359.5,687.5C 359.762,688.978 359.429,690.311 358.5,691.5C 357.914,691.291 357.414,690.957 357,690.5C 356.797,686.579 356.297,682.745 355.5,679C 357.359,677.019 359.692,676.019 362.5,676C 363.167,675 363.833,674 364.5,673C 362.429,672.017 360.429,671.35 358.5,671C 361.712,668.899 364.712,666.566 367.5,664C 366.465,663.747 365.465,662.914 364.5,661.5C 366.843,660.856 367.843,658.856 367.5,655.5C 370.088,655.457 372.254,654.457 374,652.5C 374.333,652.833 374.667,653.167 375,653.5C 374.805,651.874 374.805,650.207 375,648.5C 377.613,645.254 380.446,642.254 383.5,639.5C 382.944,638.337 382.611,637.337 382.5,636.5C 383.291,633.885 383.957,631.218 384.5,628.5C 385.825,627.047 386.658,627.381 387,629.5C 387.667,628.167 388.333,628.167 389,629.5C 390.506,627.826 392.339,626.826 394.5,626.5C 394.36,624.876 395.027,623.71 396.5,623C 395.549,622.282 395.383,621.449 396,620.5C 397,620.5 398,620.5 399,620.5C 400.728,617.492 402.394,614.492 404,611.5C 404.419,612.672 405.085,613.672 406,614.5C 406.273,612.899 406.773,611.399 407.5,610C 406.5,609.667 405.5,609.333 404.5,609C 408.304,604.892 410.637,600.059 411.5,594.5C 414.528,592.806 416.861,590.472 418.5,587.5 Z"/></g>
<g><path style="opacity:1" fill="#4a4b50" d="M 461.5,642.5 C 451.544,656.456 441.21,670.122 430.5,683.5C 430.539,681.641 429.706,680.308 428,679.5C 427.5,671.841 427.334,664.174 427.5,656.5C 428.675,656.719 429.675,656.386 430.5,655.5C 429.415,654.216 428.748,652.716 428.5,651C 429.805,647.605 430.471,644.105 430.5,640.5C 430.918,639.778 431.584,639.278 432.5,639C 435.146,638.503 437.813,638.336 440.5,638.5C 440.5,633.833 440.5,629.167 440.5,624.5C 437.167,624.5 433.833,624.5 430.5,624.5C 430.5,619.167 430.5,613.833 430.5,608.5C 426.307,607.968 422.307,607.968 418.5,608.5C 417.448,608.649 416.448,608.483 415.5,608C 417.594,606.648 419.927,606.148 422.5,606.5C 422.5,601.833 422.5,597.167 422.5,592.5C 423.158,591.602 423.824,590.602 424.5,589.5C 425.167,589.833 425.833,590.167 426.5,590.5C 427.281,589.271 427.781,587.938 428,586.5C 428.216,588.384 428.883,590.051 430,591.5C 432.1,588.835 431.6,586.668 428.5,585C 429.776,581.5 431.609,578.333 434,575.5C 436.36,576.158 439.193,576.158 442.5,575.5C 444.934,574.229 446.434,572.229 447,569.5C 448.078,574.952 445.911,578.618 440.5,580.5C 439.167,585.167 439.167,589.833 440.5,594.5C 445.086,598.713 449.753,602.879 454.5,607C 452.866,607.494 451.199,607.66 449.5,607.5C 449.5,610.167 449.5,612.833 449.5,615.5C 450.5,615.5 451.5,615.5 452.5,615.5C 452.5,618.167 452.5,620.833 452.5,623.5C 454.167,623.5 455.833,623.5 457.5,623.5C 457.434,627.559 457.267,631.559 457,635.5C 458.949,635.463 460.782,635.963 462.5,637C 461.975,637.692 461.308,638.192 460.5,638.5C 458.737,637.046 457.403,637.38 456.5,639.5C 457.262,639.911 458.262,640.077 459.5,640C 460.066,640.995 460.733,641.828 461.5,642.5 Z"/></g>
<g><path style="opacity:0.031" fill="#0a0a0e" d="M 593.5,544.5 C 595.229,545.117 596.729,546.117 598,547.5C 624.195,581.902 650.862,615.902 678,649.5C 679.879,651.527 681.046,653.86 681.5,656.5C 679.473,655.139 677.806,653.473 676.5,651.5C 675.876,649.246 674.543,647.579 672.5,646.5C 646.143,612.481 619.809,578.481 593.5,544.5 Z"/></g>
<g><path style="opacity:0.498" fill="#090b13" d="M 434.5,563.5 C 434.5,564.167 434.5,564.833 434.5,565.5C 430.078,569.587 426.411,574.254 423.5,579.5C 421.413,580.585 420.08,582.251 419.5,584.5C 416.355,587.46 413.688,590.793 411.5,594.5C 401.746,605.252 392.746,616.585 384.5,628.5C 383.167,629.5 381.833,630.5 380.5,631.5C 383.158,626.185 386.325,621.185 390,616.5C 396.707,609.462 403.04,602.128 409,594.5C 416.565,585.051 423.898,575.385 431,565.5C 431.816,564.177 432.983,563.511 434.5,563.5 Z"/></g>
<g><path style="opacity:1" fill="#494951" d="M 430.5,640.5 C 428.236,639.781 425.903,639.448 423.5,639.5C 423.5,636.833 423.5,634.167 423.5,631.5C 421.5,631.5 419.5,631.5 417.5,631.5C 417.5,629.167 417.5,626.833 417.5,624.5C 418.117,624.389 418.617,624.056 419,623.5C 419.251,618.499 419.084,613.499 418.5,608.5C 422.307,607.968 426.307,607.968 430.5,608.5C 430.5,613.833 430.5,619.167 430.5,624.5C 433.833,624.5 437.167,624.5 440.5,624.5C 440.5,629.167 440.5,633.833 440.5,638.5C 437.813,638.336 435.146,638.503 432.5,639C 431.584,639.278 430.918,639.778 430.5,640.5 Z"/></g>
<g><path style="opacity:1" fill="#484b4f" d="M 417.5,624.5 C 412.008,626.188 406.341,626.855 400.5,626.5C 400.5,625.5 400.5,624.5 400.5,623.5C 402.827,623.247 404.827,623.914 406.5,625.5C 409.27,623.439 411.604,620.939 413.5,618C 410.736,616.456 410.903,615.289 414,614.5C 414.333,613.167 414.667,611.833 415,610.5C 416.102,615.135 416.935,619.801 417.5,624.5 Z"/></g>
<g><path style="opacity:0.997" fill="#3f424c" d="M 411.5,594.5 C 410.637,600.059 408.304,604.892 404.5,609C 405.5,609.333 406.5,609.667 407.5,610C 406.773,611.399 406.273,612.899 406,614.5C 405.085,613.672 404.419,612.672 404,611.5C 402.394,614.492 400.728,617.492 399,620.5C 398,620.5 397,620.5 396,620.5C 395.383,621.449 395.549,622.282 396.5,623C 395.027,623.71 394.36,624.876 394.5,626.5C 392.339,626.826 390.506,627.826 389,629.5C 388.333,628.167 387.667,628.167 387,629.5C 386.658,627.381 385.825,627.047 384.5,628.5C 392.746,616.585 401.746,605.252 411.5,594.5 Z"/></g>
<g><path style="opacity:1" fill="#494a50" d="M 600.5,670.5 C 589.694,657.567 579.361,644.234 569.5,630.5C 570.735,630.279 571.735,629.612 572.5,628.5C 573.5,630.167 574.833,631.5 576.5,632.5C 577.251,631.624 577.751,630.624 578,629.5C 578.333,630.167 578.667,630.833 579,631.5C 579.186,629.1 579.686,626.766 580.5,624.5C 581.799,625.09 582.632,626.09 583,627.5C 583.483,626.552 583.649,625.552 583.5,624.5C 584.5,624.5 585.5,624.5 586.5,624.5C 586.768,627.119 586.435,629.619 585.5,632C 586.257,633.512 587.257,634.846 588.5,636C 587.027,636.71 586.36,637.876 586.5,639.5C 588.5,639.833 590.5,640.167 592.5,640.5C 592.335,643.85 592.502,647.183 593,650.5C 594.612,653.479 597.112,654.812 600.5,654.5C 600.021,658.434 600.688,662.101 602.5,665.5C 602.291,666.086 601.957,666.586 601.5,667C 602.738,666.923 603.738,667.089 604.5,667.5C 603.027,668.387 601.694,669.387 600.5,670.5 Z"/></g>
<g><path style="opacity:0.984" fill="#383a46" d="M 384.5,628.5 C 383.957,631.218 383.291,633.885 382.5,636.5C 380.986,637.68 379.319,638.68 377.5,639.5C 374.359,646.133 370.026,651.799 364.5,656.5C 363.902,657.795 363.402,659.128 363,660.5C 362.768,659.263 362.268,658.263 361.5,657.5C 367.809,648.852 374.142,640.185 380.5,631.5C 381.833,630.5 383.167,629.5 384.5,628.5 Z"/></g>
<g><path style="opacity:1" fill="#3a3a3e" d="M 672.5,646.5 C 674.543,647.579 675.876,649.246 676.5,651.5C 674.469,650.461 673.136,648.795 672.5,646.5 Z"/></g>
<g><path style="opacity:1" fill="#41424c" d="M 382.5,636.5 C 382.611,637.337 382.944,638.337 383.5,639.5C 380.446,642.254 377.613,645.254 375,648.5C 374.805,650.207 374.805,651.874 375,653.5C 374.667,653.167 374.333,652.833 374,652.5C 372.254,654.457 370.088,655.457 367.5,655.5C 367.843,658.856 366.843,660.856 364.5,661.5C 365.465,662.914 366.465,663.747 367.5,664C 364.712,666.566 361.712,668.899 358.5,671C 360.429,671.35 362.429,672.017 364.5,673C 363.833,674 363.167,675 362.5,676C 359.692,676.019 357.359,677.019 355.5,679C 356.297,682.745 356.797,686.579 357,690.5C 357.414,690.957 357.914,691.291 358.5,691.5C 359.429,690.311 359.762,688.978 359.5,687.5C 360.833,687.5 362.167,687.5 363.5,687.5C 363.184,690.978 363.684,694.312 365,697.5C 366.813,698.609 367.646,697.942 367.5,695.5C 368.833,695.5 370.167,695.5 371.5,695.5C 371.833,700.833 372.167,706.167 372.5,711.5C 373.5,711.5 374.5,711.5 375.5,711.5C 375.5,708.833 375.5,706.167 375.5,703.5C 376.5,703.5 377.5,703.5 378.5,703.5C 379.31,709.146 379.976,714.813 380.5,720.5C 381.822,720.67 382.989,720.337 384,719.5C 383.695,721.443 383.695,723.443 384,725.5C 385.835,722.142 388.002,721.809 390.5,724.5C 391.675,723.145 392.675,723.312 393.5,725C 392.299,725.903 391.465,727.069 391,728.5C 389.023,724.914 386.856,724.747 384.5,728C 374.5,728.333 364.5,728.667 354.5,729C 366.818,729.933 379.151,730.433 391.5,730.5C 363.338,731.498 335.005,731.831 306.5,731.5C 305.508,731.672 304.842,731.338 304.5,730.5C 312.552,730.57 320.218,728.904 327.5,725.5C 324.906,723.239 324.906,721.072 327.5,719C 323.792,720.499 321.125,719.332 319.5,715.5C 321.954,712.596 323.287,709.262 323.5,705.5C 325.499,706.857 326.665,706.19 327,703.5C 328.84,704.833 329.34,704.666 328.5,703C 329.96,700.928 331.626,700.094 333.5,700.5C 332.41,698.997 331.243,698.664 330,699.5C 329.536,698.906 329.369,698.239 329.5,697.5C 339.794,683.873 350.46,670.539 361.5,657.5C 362.268,658.263 362.768,659.263 363,660.5C 363.402,659.128 363.902,657.795 364.5,656.5C 370.026,651.799 374.359,646.133 377.5,639.5C 379.319,638.68 380.986,637.68 382.5,636.5 Z"/></g>
<g><path style="opacity:0.188" fill="#0e0f12" d="M 547.5,535.5 C 532.015,556.511 515.848,577.177 499,597.5C 473.314,630.525 447.981,663.859 423,697.5C 422.184,698.823 421.017,699.489 419.5,699.5C 422.663,693.848 426.33,688.515 430.5,683.5C 441.21,670.122 451.544,656.456 461.5,642.5C 485.803,612.02 509.97,581.353 534,550.5C 538.416,545.259 542.916,540.259 547.5,535.5 Z"/></g>
<g><path style="opacity:0.067" fill="#0e0f12" d="M 548.5,604.5 C 555.969,612.761 562.969,621.428 569.5,630.5C 579.361,644.234 589.694,657.567 600.5,670.5C 600.833,671.167 601.167,671.833 601.5,672.5C 614.324,689.47 627.158,706.47 640,723.5C 643.025,728.038 647.191,730.704 652.5,731.5C 652.5,731.833 652.5,732.167 652.5,732.5C 651.167,732.5 649.833,732.5 648.5,732.5C 645.732,730.913 643.065,729.08 640.5,727C 611.594,688.011 582.094,649.511 552,611.5C 550.295,609.423 549.128,607.09 548.5,604.5 Z"/></g>
<g><path style="opacity:0.131" fill="#07090f" d="M 380.5,631.5 C 374.142,640.185 367.809,648.852 361.5,657.5C 350.46,670.539 339.794,683.873 329.5,697.5C 326.529,699.443 324.529,702.109 323.5,705.5C 317.532,711.974 311.698,718.64 306,725.5C 304.991,727.025 304.491,728.692 304.5,730.5C 304.842,731.338 305.508,731.672 306.5,731.5C 334.328,732.498 362.328,732.831 390.5,732.5C 361.67,733.664 332.67,733.83 303.5,733C 301.302,731.122 301.136,728.955 303,726.5C 328.388,696.047 353.055,665.047 377,633.5C 377.816,632.177 378.983,631.511 380.5,631.5 Z"/></g>
<g><path style="opacity:1" fill="#4c4c50" d="M 696.5,677.5 C 710.127,692.763 722.794,708.763 734.5,725.5C 734.714,727.144 734.38,728.644 733.5,730C 721.167,730.667 708.833,730.667 696.5,730C 696.167,729.667 695.833,729.333 695.5,729C 701.158,728.26 706.825,727.594 712.5,727C 709.518,726.502 706.518,726.335 703.5,726.5C 703.5,724.833 703.5,723.167 703.5,721.5C 697.854,720.69 692.187,720.024 686.5,719.5C 686.5,720.5 686.5,721.5 686.5,722.5C 684.167,722.5 681.833,722.5 679.5,722.5C 679.5,721.5 679.5,720.5 679.5,719.5C 677.167,719.5 674.833,719.5 672.5,719.5C 672.5,717.5 672.5,715.5 672.5,713.5C 677.155,713.117 681.488,714.117 685.5,716.5C 686.327,712.541 686.827,708.541 687,704.5C 687.333,706.833 687.667,709.167 688,711.5C 688.333,708.5 688.667,705.5 689,702.5C 689.667,703.833 690.333,703.833 691,702.5C 691.483,701.552 691.649,700.552 691.5,699.5C 692.5,699.5 693.5,699.5 694.5,699.5C 694.5,695.833 694.5,692.167 694.5,688.5C 693.178,688.67 692.011,688.337 691,687.5C 689.331,685.831 688.498,683.831 688.5,681.5C 690.5,681.5 692.5,681.5 694.5,681.5C 694.34,679.801 694.506,678.134 695,676.5C 695.383,677.056 695.883,677.389 696.5,677.5 Z"/></g>
<g><path style="opacity:1" fill="#494b4f" d="M 672.5,713.5 C 672.5,715.5 672.5,717.5 672.5,719.5C 674.833,719.5 677.167,719.5 679.5,719.5C 679.5,720.5 679.5,721.5 679.5,722.5C 681.833,722.5 684.167,722.5 686.5,722.5C 686.5,721.5 686.5,720.5 686.5,719.5C 692.187,720.024 697.854,720.69 703.5,721.5C 703.5,723.167 703.5,724.833 703.5,726.5C 706.518,726.335 709.518,726.502 712.5,727C 706.825,727.594 701.158,728.26 695.5,729C 695.833,729.333 696.167,729.667 696.5,730C 708.833,730.667 721.167,730.667 733.5,730C 734.38,728.644 734.714,727.144 734.5,725.5C 736.727,726.401 737.727,728.067 737.5,730.5C 709.211,731.483 680.877,731.817 652.5,731.5C 647.191,730.704 643.025,728.038 640,723.5C 627.158,706.47 614.324,689.47 601.5,672.5C 602.5,672.5 603.5,672.5 604.5,672.5C 604.351,673.552 604.517,674.552 605,675.5C 605.333,673.167 605.667,670.833 606,668.5C 606.318,670.061 607.151,671.228 608.5,672C 605.676,674.141 605.842,675.974 609,677.5C 614.006,677.994 619.173,678.327 624.5,678.5C 624.5,681.167 624.5,683.833 624.5,686.5C 629.5,686.5 634.5,686.5 639.5,686.5C 639.281,687.675 639.614,688.675 640.5,689.5C 642.881,687.608 645.547,687.108 648.5,688C 647.594,689.699 647.261,691.533 647.5,693.5C 650.167,693.5 652.833,693.5 655.5,693.5C 655.34,691.801 655.506,690.134 656,688.5C 656.499,693.155 656.666,697.821 656.5,702.5C 661.695,702.306 666.361,702.973 670.5,704.5C 671.167,707.642 671.834,710.642 672.5,713.5 Z"/></g>
<g><path style="opacity:0.992" fill="#373845" d="M 329.5,697.5 C 329.369,698.239 329.536,698.906 330,699.5C 331.243,698.664 332.41,698.997 333.5,700.5C 331.626,700.094 329.96,700.928 328.5,703C 329.34,704.666 328.84,704.833 327,703.5C 326.665,706.19 325.499,706.857 323.5,705.5C 324.529,702.109 326.529,699.443 329.5,697.5 Z"/></g>
<g><path style="opacity:0.165" fill="#08080c" d="M 681.5,656.5 C 683.017,656.511 684.184,657.177 685,658.5C 702.497,681.453 720.497,704.119 739,726.5C 739.667,728.5 739.667,730.5 739,732.5C 708.736,733.832 678.569,733.832 648.5,732.5C 649.833,732.5 651.167,732.5 652.5,732.5C 680.502,732.667 708.502,732.5 736.5,732C 737.056,731.617 737.389,731.117 737.5,730.5C 737.727,728.067 736.727,726.401 734.5,725.5C 722.794,708.763 710.127,692.763 696.5,677.5C 691.255,670.676 686.255,663.676 681.5,656.5 Z"/></g>
<g><path style="opacity:0.999" fill="#3b3c4a" d="M 323.5,705.5 C 323.287,709.262 321.954,712.596 319.5,715.5C 321.125,719.332 323.792,720.499 327.5,719C 324.906,721.072 324.906,723.239 327.5,725.5C 320.218,728.904 312.552,730.57 304.5,730.5C 304.491,728.692 304.991,727.025 306,725.5C 311.698,718.64 317.532,711.974 323.5,705.5 Z"/></g>
<g><path style="opacity:1" fill="#0f1116" d="M 419.5,699.5 C 413.227,710.621 405.561,720.788 396.5,730C 394.783,731.559 392.783,732.392 390.5,732.5C 362.328,732.831 334.328,732.498 306.5,731.5C 335.005,731.831 363.338,731.498 391.5,730.5C 393.435,729.19 395.435,727.857 397.5,726.5C 404.183,716.832 411.517,707.832 419.5,699.5 Z"/></g>
<g><path style="opacity:1" fill="#17181d" d="M 737.5,730.5 C 737.389,731.117 737.056,731.617 736.5,732C 708.502,732.5 680.502,732.667 652.5,732.5C 652.5,732.167 652.5,731.833 652.5,731.5C 680.877,731.817 709.211,731.483 737.5,730.5 Z"/></g>
</svg>
