<?xml version="1.0" encoding="UTF-8"?>
<!DOCTYPE svg PUBLIC "-//W3C//DTD SVG 1.1//EN" "http://www.w3.org/Graphics/SVG/1.1/DTD/svg11.dtd">
<svg xmlns="http://www.w3.org/2000/svg" version="1.1" width="1024px" height="1024px" style="shape-rendering:geometricPrecision; text-rendering:geometricPrecision; image-rendering:optimizeQuality; fill-rule:evenodd; clip-rule:evenodd" xmlns:xlink="http://www.w3.org/1999/xlink">
<g><path style="opacity:0.351" fill="#27343a" d="M 707.5,335.5 C 707.5,335.167 707.5,334.833 707.5,334.5C 715.284,321.867 724.451,310.2 735,299.5C 735.85,297.99 736.683,296.49 737.5,295C 737.43,294.235 737.097,293.735 736.5,293.5C 707.67,292.336 678.67,292.17 649.5,293C 648.584,293.278 647.918,293.778 647.5,294.5C 643.833,296.167 641.167,298.833 639.5,302.5C 636.529,304.443 634.529,307.109 633.5,310.5C 630.146,312.863 627.48,315.863 625.5,319.5C 623.863,321.475 622.196,323.475 620.5,325.5C 619.833,325.5 619.167,325.5 618.5,325.5C 625.733,316.711 632.733,307.711 639.5,298.5C 642.081,295.752 645.081,293.586 648.5,292C 673.171,291.678 697.837,291.178 722.5,290.5C 728.201,290.572 733.867,290.906 739.5,291.5C 740.557,296.116 739.057,299.449 735,301.5C 726.065,313.047 716.898,324.38 707.5,335.5 Z"/></g>
<g><path style="opacity:1" fill="#b3bdc2" d="M 736.5,293.5 C 709.167,293.5 681.833,293.5 654.5,293.5C 652.194,293.993 649.861,294.326 647.5,294.5C 647.918,293.778 648.584,293.278 649.5,293C 678.67,292.17 707.67,292.336 736.5,293.5 Z"/></g>
<g><path style="opacity:0.357" fill="#1c262a" d="M 405.5,304.5 C 403.33,303.162 401.664,301.328 400.5,299C 398.283,297.277 395.95,295.777 393.5,294.5C 393.082,293.778 392.416,293.278 391.5,293C 362.5,292.333 333.5,292.333 304.5,293C 303.066,295.528 303.733,297.362 306.5,298.5C 307.11,299.391 307.443,300.391 307.5,301.5C 302.752,299.835 301.086,296.669 302.5,292C 332.5,291.333 362.5,291.333 392.5,292C 398.653,294.321 402.986,298.487 405.5,304.5 Z"/></g>
<g><path style="opacity:1" fill="#abb4b8" d="M 393.5,294.5 C 364.519,293.374 335.519,293.208 306.5,294C 305.587,295.414 305.587,296.914 306.5,298.5C 303.733,297.362 303.066,295.528 304.5,293C 333.5,292.333 362.5,292.333 391.5,293C 392.416,293.278 393.082,293.778 393.5,294.5 Z"/></g>
<g><path style="opacity:1" fill="#eef5f8" d="M 393.5,294.5 C 395.95,295.777 398.283,297.277 400.5,299C 401.664,301.328 403.33,303.162 405.5,304.5C 408.415,309.754 411.749,314.754 415.5,319.5C 415.92,321.094 416.586,322.594 417.5,324C 415.859,325.646 416.193,326.646 418.5,327C 417.692,327.308 417.025,327.808 416.5,328.5C 420.234,330.221 423.234,332.721 425.5,336C 422.183,336.498 418.85,336.665 415.5,336.5C 415.666,341.179 415.499,345.845 415,350.5C 414.501,346.514 414.334,342.514 414.5,338.5C 409.57,338.803 404.737,338.469 400,337.5C 399.501,341.486 399.334,345.486 399.5,349.5C 394.604,351.446 389.271,352.113 383.5,351.5C 383.335,343.138 383.668,334.805 384.5,326.5C 380.766,326.018 377.933,327.351 376,330.5C 376.033,326.907 375.867,323.407 375.5,320C 374.451,319.508 373.451,319.674 372.5,320.5C 371.304,320.154 371.304,319.654 372.5,319C 371.667,318.833 370.833,318.667 370,318.5C 365.874,319.329 361.707,319.663 357.5,319.5C 357.762,320.978 357.429,322.311 356.5,323.5C 354.54,324.723 352.707,326.056 351,327.5C 350.503,329.81 350.337,332.143 350.5,334.5C 346.71,335.101 343.544,334.101 341,331.5C 340.692,332.308 340.192,332.975 339.5,333.5C 338.28,332.289 337.113,332.289 336,333.5C 335.529,331.754 334.862,330.087 334,328.5C 332.869,329.604 332.035,329.271 331.5,327.5C 333.802,326.001 333.469,324.668 330.5,323.5C 329.289,322.28 329.289,321.113 330.5,320C 329.1,318.562 327.433,317.729 325.5,317.5C 325.141,315.234 325.808,313.401 327.5,312C 326.773,310.601 326.273,309.101 326,307.5C 325.193,311.449 324.693,311.449 324.5,307.5C 323.167,307.5 321.833,307.5 320.5,307.5C 320.714,305.856 320.38,304.356 319.5,303C 316.5,302.667 313.5,302.333 310.5,302C 309.468,300.373 308.134,299.207 306.5,298.5C 305.587,296.914 305.587,295.414 306.5,294C 335.519,293.208 364.519,293.374 393.5,294.5 Z"/></g>
<g><path style="opacity:1" fill="#8daeb3" d="M 639.5,302.5 C 637.984,305.533 635.984,308.2 633.5,310.5C 634.529,307.109 636.529,304.443 639.5,302.5 Z"/></g>
<g><path style="opacity:0.141" fill="#1b2127" d="M 405.5,304.5 C 409.468,308.639 413.301,312.973 417,317.5C 417.791,318.745 418.291,320.078 418.5,321.5C 417.5,320.833 416.5,320.167 415.5,319.5C 411.749,314.754 408.415,309.754 405.5,304.5 Z"/></g>
<g><path style="opacity:1" fill="#eaf3f5" d="M 306.5,298.5 C 308.134,299.207 309.468,300.373 310.5,302C 313.5,302.333 316.5,302.667 319.5,303C 320.38,304.356 320.714,305.856 320.5,307.5C 321.833,307.5 323.167,307.5 324.5,307.5C 324.693,311.449 325.193,311.449 326,307.5C 326.273,309.101 326.773,310.601 327.5,312C 325.808,313.401 325.141,315.234 325.5,317.5C 327.433,317.729 329.1,318.562 330.5,320C 329.289,321.113 329.289,322.28 330.5,323.5C 333.469,324.668 333.802,326.001 331.5,327.5C 332.035,329.271 332.869,329.604 334,328.5C 334.862,330.087 335.529,331.754 336,333.5C 337.113,332.289 338.28,332.289 339.5,333.5C 340.192,332.975 340.692,332.308 341,331.5C 343.544,334.101 346.71,335.101 350.5,334.5C 350.337,332.143 350.503,329.81 351,327.5C 352.707,326.056 354.54,324.723 356.5,323.5C 357.429,322.311 357.762,320.978 357.5,319.5C 361.707,319.663 365.874,319.329 370,318.5C 370.833,318.667 371.667,318.833 372.5,319C 371.304,319.654 371.304,320.154 372.5,320.5C 373.451,319.674 374.451,319.508 375.5,320C 375.867,323.407 376.033,326.907 376,330.5C 377.933,327.351 380.766,326.018 384.5,326.5C 383.668,334.805 383.335,343.138 383.5,351.5C 389.271,352.113 394.604,351.446 399.5,349.5C 402.413,350.241 405.413,350.741 408.5,351C 408.043,351.414 407.709,351.914 407.5,352.5C 410.774,356.402 413.774,356.069 416.5,351.5C 417.48,354.086 417.813,356.753 417.5,359.5C 418.5,359.5 419.5,359.5 420.5,359.5C 420.5,362.167 420.5,364.833 420.5,367.5C 423.833,367.5 427.167,367.5 430.5,367.5C 430.34,365.801 430.506,364.134 431,362.5C 431.333,368.833 431.667,375.167 432,381.5C 434.135,383.278 436.635,383.945 439.5,383.5C 439.5,388.833 439.5,394.167 439.5,399.5C 433.167,398.5 430.5,401.167 431.5,407.5C 426.833,407.5 422.167,407.5 417.5,407.5C 417.5,402.167 417.5,396.833 417.5,391.5C 414.167,391.5 410.833,391.5 407.5,391.5C 407.5,388.833 407.5,386.167 407.5,383.5C 404.833,383.5 402.167,383.5 399.5,383.5C 399.991,389.988 399.325,396.321 397.5,402.5C 397.529,404.029 398.196,405.196 399.5,406C 398.552,406.483 397.552,406.649 396.5,406.5C 396.808,404.076 396.474,401.743 395.5,399.5C 394.28,400.711 393.113,400.711 392,399.5C 391.692,400.308 391.192,400.975 390.5,401.5C 389.583,400.873 388.583,400.539 387.5,400.5C 378.848,389.185 369.848,378.185 360.5,367.5C 347.772,350.418 334.772,333.418 321.5,316.5C 317.058,311.277 312.392,306.277 307.5,301.5C 307.443,300.391 307.11,299.391 306.5,298.5 Z"/></g>
<g><path style="opacity:1" fill="#f3f8f8" d="M 654.5,293.5 C 681.833,293.5 709.167,293.5 736.5,293.5C 737.097,293.735 737.43,294.235 737.5,295C 736.683,296.49 735.85,297.99 735,299.5C 724.451,310.2 715.284,321.867 707.5,334.5C 705.5,334.5 704.5,335.5 704.5,337.5C 665.167,386.5 625.833,435.5 586.5,484.5C 585.973,480.756 586.973,477.589 589.5,475C 587.582,473.23 587.082,471.063 588,468.5C 590.016,467.045 590.849,465.045 590.5,462.5C 594.5,462.5 598.5,462.5 602.5,462.5C 603.685,454.881 604.685,446.881 605.5,438.5C 606.949,437.383 608.616,436.716 610.5,436.5C 612.652,437.038 614.652,437.538 616.5,438C 616.306,435.903 616.306,433.737 616.5,431.5C 617.689,430.571 619.022,430.238 620.5,430.5C 620.477,422.817 620.143,415.15 619.5,407.5C 618.167,407.5 616.833,407.5 615.5,407.5C 615.5,404.833 615.5,402.167 615.5,399.5C 617.833,399.5 620.167,399.5 622.5,399.5C 622.5,391.5 622.5,383.5 622.5,375.5C 617.57,375.803 612.737,375.469 608,374.5C 607.179,371.446 607.345,368.446 608.5,365.5C 610.714,367.924 611.714,367.257 611.5,363.5C 612.833,363.5 614.167,363.5 615.5,363.5C 615.335,360.15 615.502,356.817 616,353.5C 620.078,350.524 624.578,348.524 629.5,347.5C 629.5,346.167 629.5,344.833 629.5,343.5C 630.833,343.5 632.167,343.5 633.5,343.5C 633.5,342.167 633.5,340.833 633.5,339.5C 637.352,339.317 639.686,337.317 640.5,333.5C 640.547,332 639.881,331 638.5,330.5C 631.622,334.121 630.122,332.788 634,326.5C 635.6,325.134 637.433,324.134 639.5,323.5C 640.734,321.602 640.401,319.935 638.5,318.5C 640.538,316.724 642.704,315.057 645,313.5C 644.845,311.189 644.845,308.856 645,306.5C 647.697,302.302 651.197,298.969 655.5,296.5C 654.873,295.583 654.539,294.583 654.5,293.5 Z"/></g>
<g><path style="opacity:0.961" fill="#6e9ea5" d="M 625.5,319.5 C 625.031,322.643 623.364,324.977 620.5,326.5C 620.5,326.167 620.5,325.833 620.5,325.5C 622.196,323.475 623.863,321.475 625.5,319.5 Z"/></g>
<g><path style="opacity:0.678" fill="#737e84" d="M 707.5,334.5 C 707.5,334.833 707.5,335.167 707.5,335.5C 706.5,336.167 705.5,336.833 704.5,337.5C 704.5,335.5 705.5,334.5 707.5,334.5 Z"/></g>
<g><path style="opacity:1" fill="#92969a" d="M 429.5,337.5 C 430.906,337.973 431.573,338.973 431.5,340.5C 430.094,340.027 429.427,339.027 429.5,337.5 Z"/></g>
<g><path style="opacity:0.392" fill="#262d30" d="M 307.5,301.5 C 312.392,306.277 317.058,311.277 321.5,316.5C 334.772,333.418 347.772,350.418 360.5,367.5C 358.983,367.489 357.816,366.823 357,365.5C 342.063,345.233 326.397,325.566 310,306.5C 308.906,304.922 308.072,303.255 307.5,301.5 Z"/></g>
<g><path style="opacity:0.118" fill="#1d2226" d="M 418.5,321.5 C 422.468,325.639 426.301,329.973 430,334.5C 435.744,342.064 441.244,349.73 446.5,357.5C 441.128,352.13 436.128,346.463 431.5,340.5C 431.573,338.973 430.906,337.973 429.5,337.5C 426.583,333.348 423.416,329.348 420,325.5C 419.209,324.255 418.709,322.922 418.5,321.5 Z"/></g>
<g><path style="opacity:0.988" fill="#9bc6ca" d="M 607.5,343.5 C 607.66,345.199 607.494,346.866 607,348.5C 606.667,348.167 606.333,347.833 606,347.5C 604.961,348.71 603.794,349.71 602.5,350.5C 603.786,347.883 605.453,345.55 607.5,343.5 Z"/></g>
<g><path style="opacity:0.996" fill="#c4edef" d="M 647.5,294.5 C 646.02,297.397 644.686,300.397 643.5,303.5C 640.762,307.3 638.262,311.3 636,315.5C 633.513,311.944 631.68,312.61 630.5,317.5C 630.709,318.086 631.043,318.586 631.5,319C 628.456,325.045 624.623,330.545 620,335.5C 618.261,337.741 616.094,339.408 613.5,340.5C 611.323,339.496 610.989,340.162 612.5,342.5C 611.863,345.107 610.696,347.44 609,349.5C 605.512,351.479 602.679,354.146 600.5,357.5C 599.311,358.429 597.978,358.762 596.5,358.5C 597.738,355.262 599.738,352.596 602.5,350.5C 603.794,349.71 604.961,348.71 606,347.5C 606.333,347.833 606.667,348.167 607,348.5C 607.494,346.866 607.66,345.199 607.5,343.5C 611.45,337.549 615.783,331.882 620.5,326.5C 623.364,324.977 625.031,322.643 625.5,319.5C 627.48,315.863 630.146,312.863 633.5,310.5C 635.984,308.2 637.984,305.533 639.5,302.5C 641.167,298.833 643.833,296.167 647.5,294.5 Z"/></g>
<g><path style="opacity:0.494" fill="#1d3f44" d="M 618.5,325.5 C 619.167,325.5 619.833,325.5 620.5,325.5C 620.5,325.833 620.5,326.167 620.5,326.5C 615.783,331.882 611.45,337.549 607.5,343.5C 605.453,345.55 603.786,347.883 602.5,350.5C 599.738,352.596 597.738,355.262 596.5,358.5C 594.413,359.585 593.08,361.251 592.5,363.5C 588.836,368.158 585.169,372.825 581.5,377.5C 579.086,378.911 577.419,380.911 576.5,383.5C 576.167,383.5 575.833,383.5 575.5,383.5C 575.351,382.448 575.517,381.448 576,380.5C 580.392,375.449 584.725,370.449 589,365.5C 599.11,352.239 608.944,338.906 618.5,325.5 Z"/></g>
<g><path style="opacity:0.992" fill="#83aeb2" d="M 596.5,358.5 C 595.92,360.749 594.587,362.415 592.5,363.5C 593.08,361.251 594.413,359.585 596.5,358.5 Z"/></g>
<g><path style="opacity:1" fill="#f1f6f9" d="M 611.5,363.5 C 611.714,367.257 610.714,367.924 608.5,365.5C 607.345,368.446 607.179,371.446 608,374.5C 612.737,375.469 617.57,375.803 622.5,375.5C 622.5,383.5 622.5,391.5 622.5,399.5C 620.167,399.5 617.833,399.5 615.5,399.5C 615.5,402.167 615.5,404.833 615.5,407.5C 616.833,407.5 618.167,407.5 619.5,407.5C 620.143,415.15 620.477,422.817 620.5,430.5C 619.022,430.238 617.689,430.571 616.5,431.5C 616.306,433.737 616.306,435.903 616.5,438C 614.652,437.538 612.652,437.038 610.5,436.5C 608.616,436.716 606.949,437.383 605.5,438.5C 604.685,446.881 603.685,454.881 602.5,462.5C 598.5,462.5 594.5,462.5 590.5,462.5C 590.849,465.045 590.016,467.045 588,468.5C 587.082,471.063 587.582,473.23 589.5,475C 586.973,477.589 585.973,480.756 586.5,484.5C 584.599,483.069 582.432,482.069 580,481.5C 577.539,484.275 575.539,487.275 574,490.5C 572.255,491.956 570.422,493.289 568.5,494.5C 567.702,496.078 567.202,497.744 567,499.5C 565.066,501.943 562.566,503.276 559.5,503.5C 559.945,500.635 559.278,498.135 557.5,496C 552.845,495.501 548.179,495.334 543.5,495.5C 543.5,490.167 543.5,484.833 543.5,479.5C 538.821,479.666 534.155,479.499 529.5,479C 528.736,476.931 528.236,474.764 528,472.5C 526.512,473.196 525.012,472.862 523.5,471.5C 524.602,470.824 525.602,470.158 526.5,469.5C 527.931,468.22 528.598,466.553 528.5,464.5C 533.429,465.695 536.429,463.862 537.5,459C 539.5,458.667 541.5,458.333 543.5,458C 544.451,454.943 544.784,451.777 544.5,448.5C 551.508,448.666 558.508,448.5 565.5,448C 564.167,447.667 562.833,447.333 561.5,447C 562.469,442.263 562.803,437.43 562.5,432.5C 565.518,432.665 568.518,432.498 571.5,432C 569.19,431.503 566.857,431.337 564.5,431.5C 564.5,428.833 564.5,426.167 564.5,423.5C 568.226,423.823 571.893,423.489 575.5,422.5C 572.914,421.52 570.247,421.187 567.5,421.5C 567.5,420.5 567.5,419.5 567.5,418.5C 570.119,418.768 572.619,418.435 575,417.5C 574.06,414.861 573.227,412.028 572.5,409C 572.735,408.127 573.069,407.293 573.5,406.5C 576.109,402.031 579.442,398.197 583.5,395C 585.167,394.667 586.833,394.333 588.5,394C 587.446,392.612 587.28,391.112 588,389.5C 590.904,384.173 594.404,379.34 598.5,375C 598.167,374.667 597.833,374.333 597.5,374C 599.123,370.951 600.623,367.784 602,364.5C 605.258,365.555 607.924,364.555 610,361.5C 610.278,362.416 610.778,363.082 611.5,363.5 Z"/></g>
<g><path style="opacity:0.031" fill="#1e2729" d="M 446.5,357.5 C 447.496,357.414 448.329,357.748 449,358.5C 453.95,365.784 459.283,372.784 465,379.5C 465.791,380.745 466.291,382.078 466.5,383.5C 460.25,376.402 454.084,369.068 448,361.5C 447.209,360.255 446.709,358.922 446.5,357.5 Z"/></g>
<g><path style="opacity:0.994" fill="#bfe2e6" d="M 592.5,363.5 C 591.754,367.257 590.254,369.924 588,371.5C 587.316,372.784 587.483,373.951 588.5,375C 587.027,375.71 586.36,376.876 586.5,378.5C 585.325,378.281 584.325,378.614 583.5,379.5C 582.058,382.05 580.892,384.716 580,387.5C 577.8,388.522 575.8,389.855 574,391.5C 572.104,395.729 569.437,399.396 566,402.5C 565.617,401.944 565.117,401.611 564.5,401.5C 563.833,401.833 563.167,402.167 562.5,402.5C 566.417,395.91 570.75,389.577 575.5,383.5C 575.833,383.5 576.167,383.5 576.5,383.5C 578.914,382.089 580.581,380.089 581.5,377.5C 585.169,372.825 588.836,368.158 592.5,363.5 Z"/></g>
<g><path style="opacity:0.992" fill="#82a2a8" d="M 581.5,377.5 C 580.581,380.089 578.914,382.089 576.5,383.5C 577.419,380.911 579.086,378.911 581.5,377.5 Z"/></g>
<g><path style="opacity:1" fill="#eaf1f4" d="M 439.5,399.5 C 434.728,399.943 432.395,402.61 432.5,407.5C 435.5,407.5 438.5,407.5 441.5,407.5C 441.5,410.167 441.5,412.833 441.5,415.5C 442.5,415.5 443.5,415.5 444.5,415.5C 444.515,404.915 445.182,404.915 446.5,415.5C 450.464,416.231 454.464,416.398 458.5,416C 455.019,417.686 451.352,418.519 447.5,418.5C 447.334,422.846 447.501,427.179 448,431.5C 450.996,434.066 453.829,436.732 456.5,439.5C 457.48,442.086 457.813,444.753 457.5,447.5C 464.815,446.585 472.148,446.418 479.5,447C 480.435,449.381 480.768,451.881 480.5,454.5C 484.39,454.445 486.557,452.445 487,448.5C 488.578,453.154 490.578,453.487 493,449.5C 493.333,449.833 493.667,450.167 494,450.5C 494.273,448.671 495.107,447.171 496.5,446C 496.043,445.586 495.709,445.086 495.5,444.5C 497.326,440.918 499.992,439.584 503.5,440.5C 492.765,452.989 482.765,465.989 473.5,479.5C 472.833,479.833 472.167,480.167 471.5,480.5C 470.883,480.389 470.383,480.056 470,479.5C 469.077,480.759 468.243,482.092 467.5,483.5C 466.749,482.624 466.249,481.624 466,480.5C 465.08,482.632 463.913,484.632 462.5,486.5C 460.023,484.575 457.357,482.909 454.5,481.5C 455.025,480.808 455.692,480.308 456.5,480C 452.72,477.389 449.387,474.222 446.5,470.5C 447.48,468.392 447.146,466.392 445.5,464.5C 443.865,463.67 442.198,463.503 440.5,464C 442.36,459.597 441.36,456.097 437.5,453.5C 438.167,452.833 438.833,452.167 439.5,451.5C 434.482,449.711 434.482,448.544 439.5,448C 436.77,447.272 434.103,447.438 431.5,448.5C 431.003,446.784 430.669,445.117 430.5,443.5C 428.312,441.13 425.812,440.463 423,441.5C 422.5,440.5 422,439.5 421.5,438.5C 422.167,438.167 422.833,437.833 423.5,437.5C 422.943,435.765 422.61,434.098 422.5,432.5C 420.547,433.024 418.88,434.024 417.5,435.5C 416.787,433.565 415.787,433.232 414.5,434.5C 405.5,423.167 396.5,411.833 387.5,400.5C 388.583,400.539 389.583,400.873 390.5,401.5C 391.192,400.975 391.692,400.308 392,399.5C 393.113,400.711 394.28,400.711 395.5,399.5C 396.474,401.743 396.808,404.076 396.5,406.5C 397.552,406.649 398.552,406.483 399.5,406C 398.196,405.196 397.529,404.029 397.5,402.5C 399.325,396.321 399.991,389.988 399.5,383.5C 402.167,383.5 404.833,383.5 407.5,383.5C 407.5,386.167 407.5,388.833 407.5,391.5C 410.833,391.5 414.167,391.5 417.5,391.5C 417.5,396.833 417.5,402.167 417.5,407.5C 422.167,407.5 426.833,407.5 431.5,407.5C 430.5,401.167 433.167,398.5 439.5,399.5 Z"/></g>
<g><path style="opacity:0.271" fill="#1b2225" d="M 466.5,383.5 C 468.371,383.859 469.871,384.859 471,386.5C 478.982,397.477 487.316,408.144 496,418.5C 497.777,421.059 499.277,423.726 500.5,426.5C 499.833,426.167 499.167,425.833 498.5,425.5C 492.898,416.9 486.564,408.9 479.5,401.5C 477.206,397.873 474.54,394.539 471.5,391.5C 470.334,388.497 468.667,385.83 466.5,383.5 Z"/></g>
<g><path style="opacity:1" fill="#eef3f6" d="M 415.5,319.5 C 416.5,320.167 417.5,320.833 418.5,321.5C 418.709,322.922 419.209,324.255 420,325.5C 423.416,329.348 426.583,333.348 429.5,337.5C 429.427,339.027 430.094,340.027 431.5,340.5C 436.128,346.463 441.128,352.13 446.5,357.5C 446.709,358.922 447.209,360.255 448,361.5C 454.084,369.068 460.25,376.402 466.5,383.5C 468.667,385.83 470.334,388.497 471.5,391.5C 472.711,395.982 475.378,399.315 479.5,401.5C 486.564,408.9 492.898,416.9 498.5,425.5C 498.738,427.404 499.738,428.738 501.5,429.5C 502.338,429.842 502.672,430.508 502.5,431.5C 504.046,433.882 504.713,436.549 504.5,439.5C 503.833,439.5 503.5,439.833 503.5,440.5C 499.992,439.584 497.326,440.918 495.5,444.5C 495.709,445.086 496.043,445.586 496.5,446C 495.107,447.171 494.273,448.671 494,450.5C 493.667,450.167 493.333,449.833 493,449.5C 490.578,453.487 488.578,453.154 487,448.5C 486.557,452.445 484.39,454.445 480.5,454.5C 480.768,451.881 480.435,449.381 479.5,447C 472.148,446.418 464.815,446.585 457.5,447.5C 457.813,444.753 457.48,442.086 456.5,439.5C 453.829,436.732 450.996,434.066 448,431.5C 447.501,427.179 447.334,422.846 447.5,418.5C 451.352,418.519 455.019,417.686 458.5,416C 454.464,416.398 450.464,416.231 446.5,415.5C 445.182,404.915 444.515,404.915 444.5,415.5C 443.5,415.5 442.5,415.5 441.5,415.5C 441.5,412.833 441.5,410.167 441.5,407.5C 438.5,407.5 435.5,407.5 432.5,407.5C 432.395,402.61 434.728,399.943 439.5,399.5C 439.5,394.167 439.5,388.833 439.5,383.5C 436.635,383.945 434.135,383.278 432,381.5C 431.667,375.167 431.333,368.833 431,362.5C 430.506,364.134 430.34,365.801 430.5,367.5C 427.167,367.5 423.833,367.5 420.5,367.5C 420.5,364.833 420.5,362.167 420.5,359.5C 419.5,359.5 418.5,359.5 417.5,359.5C 417.813,356.753 417.48,354.086 416.5,351.5C 413.774,356.069 410.774,356.402 407.5,352.5C 407.709,351.914 408.043,351.414 408.5,351C 405.413,350.741 402.413,350.241 399.5,349.5C 399.334,345.486 399.501,341.486 400,337.5C 404.737,338.469 409.57,338.803 414.5,338.5C 414.334,342.514 414.501,346.514 415,350.5C 415.499,345.845 415.666,341.179 415.5,336.5C 418.85,336.665 422.183,336.498 425.5,336C 423.234,332.721 420.234,330.221 416.5,328.5C 417.025,327.808 417.692,327.308 418.5,327C 416.193,326.646 415.859,325.646 417.5,324C 416.586,322.594 415.92,321.094 415.5,319.5 Z"/></g>
<g><path style="opacity:1" fill="#bcc4c7" d="M 471.5,391.5 C 474.54,394.539 477.206,397.873 479.5,401.5C 475.378,399.315 472.711,395.982 471.5,391.5 Z"/></g>
<g><path style="opacity:1" fill="#ebf7f9" d="M 654.5,293.5 C 654.539,294.583 654.873,295.583 655.5,296.5C 651.197,298.969 647.697,302.302 645,306.5C 644.845,308.856 644.845,311.189 645,313.5C 642.704,315.057 640.538,316.724 638.5,318.5C 640.401,319.935 640.734,321.602 639.5,323.5C 637.433,324.134 635.6,325.134 634,326.5C 630.122,332.788 631.622,334.121 638.5,330.5C 639.881,331 640.547,332 640.5,333.5C 639.686,337.317 637.352,339.317 633.5,339.5C 633.5,340.833 633.5,342.167 633.5,343.5C 632.167,343.5 630.833,343.5 629.5,343.5C 629.5,344.833 629.5,346.167 629.5,347.5C 624.578,348.524 620.078,350.524 616,353.5C 615.502,356.817 615.335,360.15 615.5,363.5C 614.167,363.5 612.833,363.5 611.5,363.5C 610.778,363.082 610.278,362.416 610,361.5C 607.924,364.555 605.258,365.555 602,364.5C 600.623,367.784 599.123,370.951 597.5,374C 597.833,374.333 598.167,374.667 598.5,375C 594.404,379.34 590.904,384.173 588,389.5C 587.28,391.112 587.446,392.612 588.5,394C 586.833,394.333 585.167,394.667 583.5,395C 579.442,398.197 576.109,402.031 573.5,406.5C 573.069,407.293 572.735,408.127 572.5,409C 573.227,412.028 574.06,414.861 575,417.5C 572.619,418.435 570.119,418.768 567.5,418.5C 567.5,419.5 567.5,420.5 567.5,421.5C 570.247,421.187 572.914,421.52 575.5,422.5C 571.893,423.489 568.226,423.823 564.5,423.5C 564.5,426.167 564.5,428.833 564.5,431.5C 566.857,431.337 569.19,431.503 571.5,432C 568.518,432.498 565.518,432.665 562.5,432.5C 562.803,437.43 562.469,442.263 561.5,447C 562.833,447.333 564.167,447.667 565.5,448C 558.508,448.5 551.508,448.666 544.5,448.5C 544.784,451.777 544.451,454.943 543.5,458C 541.5,458.333 539.5,458.667 537.5,459C 536.429,463.862 533.429,465.695 528.5,464.5C 528.598,466.553 527.931,468.22 526.5,469.5C 525.761,469.631 525.094,469.464 524.5,469C 525.696,468.346 525.696,467.846 524.5,467.5C 523.575,468.641 522.741,468.641 522,467.5C 518.701,470.429 516.701,474.096 516,478.5C 513.825,479.255 511.659,480.088 509.5,481C 511.179,483.565 511.846,486.398 511.5,489.5C 508.14,490.21 506.307,488.876 506,485.5C 505.147,487.125 504.147,487.458 503,486.5C 501.56,487.93 501.226,489.597 502,491.5C 503.845,492.05 505.345,493.05 506.5,494.5C 503.191,495.93 500.191,495.596 497.5,493.5C 500.312,490.587 501.646,486.921 501.5,482.5C 504.878,483.109 506.878,481.776 507.5,478.5C 515.109,472.051 521.943,464.718 528,456.5C 529.667,455.167 531.333,453.833 533,452.5C 533.472,448.89 534.972,445.89 537.5,443.5C 539.63,441.873 541.63,440.04 543.5,438C 544.167,437.333 544.833,437.333 545.5,438C 544.304,438.654 544.304,439.154 545.5,439.5C 547.69,437.144 549.69,434.644 551.5,432C 551.167,431.667 550.833,431.333 550.5,431C 551.958,428.54 553.791,426.373 556,424.5C 556.483,423.552 556.649,422.552 556.5,421.5C 557.833,421.5 559.167,421.5 560.5,421.5C 560.34,419.801 560.506,418.134 561,416.5C 563.46,415.042 565.627,413.209 567.5,411C 567.167,410.667 566.833,410.333 566.5,410C 571.658,403.012 577.324,396.512 583.5,390.5C 584.651,388.227 585.651,385.894 586.5,383.5C 588.68,379.803 591.513,376.47 595,373.5C 595.97,370.556 596.804,367.556 597.5,364.5C 604.896,355.857 612.729,347.524 621,339.5C 621.311,337.444 621.811,335.444 622.5,333.5C 625.655,332.85 628.155,331.183 630,328.5C 630.617,327.551 630.451,326.718 629.5,326C 632.665,322.255 635.831,318.422 639,314.5C 641.054,311.059 642.554,307.392 643.5,303.5C 644.686,300.397 646.02,297.397 647.5,294.5C 649.861,294.326 652.194,293.993 654.5,293.5 Z"/></g>
<g><path style="opacity:0.137" fill="#2c3437" d="M 707.5,335.5 C 654.888,401.627 602.388,467.961 550,534.5C 549.329,535.252 548.496,535.586 547.5,535.5C 547.709,534.078 548.209,532.745 549,531.5C 562.124,516.223 574.624,500.556 586.5,484.5C 625.833,435.5 665.167,386.5 704.5,337.5C 705.5,336.833 706.5,336.167 707.5,335.5 Z"/></g>
<g><path style="opacity:0.992" fill="#9ebbc1" d="M 561.5,402.5 C 561.042,407.74 558.376,411.407 553.5,413.5C 556.174,409.828 558.84,406.161 561.5,402.5 Z"/></g>
<g><path style="opacity:1" fill="#8aadb1" d="M 553.5,413.5 C 552.005,417.673 549.338,421.006 545.5,423.5C 547.794,419.873 550.46,416.539 553.5,413.5 Z"/></g>
<g><path style="opacity:0.533" fill="#292e34" d="M 360.5,367.5 C 369.848,378.185 378.848,389.185 387.5,400.5C 396.5,411.833 405.5,423.167 414.5,434.5C 415.11,435.391 415.443,436.391 415.5,437.5C 408.87,430.907 402.704,423.907 397,416.5C 387.057,402.286 376.39,388.62 365,375.5C 363.223,372.941 361.723,370.274 360.5,367.5 Z"/></g>
<g><path style="opacity:0.118" fill="#172f33" d="M 575.5,383.5 C 570.75,389.577 566.417,395.91 562.5,402.5C 562.167,402.5 561.833,402.5 561.5,402.5C 558.84,406.161 556.174,409.828 553.5,413.5C 550.46,416.539 547.794,419.873 545.5,423.5C 543.122,425.878 541.122,428.545 539.5,431.5C 538.167,432.5 536.833,433.5 535.5,434.5C 535.709,433.078 536.209,431.745 537,430.5C 549.431,416.072 561.097,401.072 572,385.5C 572.816,384.177 573.983,383.511 575.5,383.5 Z"/></g>
<g><path style="opacity:0.999" fill="#e1f9fb" d="M 643.5,303.5 C 642.554,307.392 641.054,311.059 639,314.5C 635.831,318.422 632.665,322.255 629.5,326C 630.451,326.718 630.617,327.551 630,328.5C 628.155,331.183 625.655,332.85 622.5,333.5C 621.811,335.444 621.311,337.444 621,339.5C 612.729,347.524 604.896,355.857 597.5,364.5C 596.804,367.556 595.97,370.556 595,373.5C 591.513,376.47 588.68,379.803 586.5,383.5C 585.651,385.894 584.651,388.227 583.5,390.5C 577.324,396.512 571.658,403.012 566.5,410C 566.833,410.333 567.167,410.667 567.5,411C 565.627,413.209 563.46,415.042 561,416.5C 560.506,418.134 560.34,419.801 560.5,421.5C 559.167,421.5 557.833,421.5 556.5,421.5C 556.649,422.552 556.483,423.552 556,424.5C 553.791,426.373 551.958,428.54 550.5,431C 550.833,431.333 551.167,431.667 551.5,432C 549.69,434.644 547.69,437.144 545.5,439.5C 544.304,439.154 544.304,438.654 545.5,438C 544.833,437.333 544.167,437.333 543.5,438C 541.63,440.04 539.63,441.873 537.5,443.5C 538.903,437.754 542.236,433.421 547.5,430.5C 548.875,428.624 550.042,426.624 551,424.5C 552.243,425.336 553.41,425.003 554.5,423.5C 556.114,419.28 557.947,415.28 560,411.5C 560.948,409.43 562.448,407.93 564.5,407C 563.862,405.293 563.862,403.46 564.5,401.5C 565.117,401.611 565.617,401.944 566,402.5C 569.437,399.396 572.104,395.729 574,391.5C 575.8,389.855 577.8,388.522 580,387.5C 580.892,384.716 582.058,382.05 583.5,379.5C 584.325,378.614 585.325,378.281 586.5,378.5C 586.36,376.876 587.027,375.71 588.5,375C 587.483,373.951 587.316,372.784 588,371.5C 590.254,369.924 591.754,367.257 592.5,363.5C 594.587,362.415 595.92,360.749 596.5,358.5C 597.978,358.762 599.311,358.429 600.5,357.5C 602.679,354.146 605.512,351.479 609,349.5C 610.696,347.44 611.863,345.107 612.5,342.5C 610.989,340.162 611.323,339.496 613.5,340.5C 616.094,339.408 618.261,337.741 620,335.5C 624.623,330.545 628.456,325.045 631.5,319C 631.043,318.586 630.709,318.086 630.5,317.5C 631.68,312.61 633.513,311.944 636,315.5C 638.262,311.3 640.762,307.3 643.5,303.5 Z"/></g>
<g><path style="opacity:0.969" fill="#899295" d="M 498.5,425.5 C 499.167,425.833 499.833,426.167 500.5,426.5C 501.11,427.391 501.443,428.391 501.5,429.5C 499.738,428.738 498.738,427.404 498.5,425.5 Z"/></g>
<g><path style="opacity:1" fill="#cff1f4" d="M 564.5,401.5 C 563.862,403.46 563.862,405.293 564.5,407C 562.448,407.93 560.948,409.43 560,411.5C 557.947,415.28 556.114,419.28 554.5,423.5C 553.41,425.003 552.243,425.336 551,424.5C 550.042,426.624 548.875,428.624 547.5,430.5C 542.236,433.421 538.903,437.754 537.5,443.5C 534.972,445.89 533.472,448.89 533,452.5C 531.333,453.833 529.667,455.167 528,456.5C 521.943,464.718 515.109,472.051 507.5,478.5C 507.877,476.742 508.544,475.075 509.5,473.5C 509.291,472.914 508.957,472.414 508.5,472C 510.156,470.171 512.156,468.837 514.5,468C 513.587,466.586 513.587,465.086 514.5,463.5C 516.914,462.089 518.581,460.089 519.5,457.5C 521.914,456.089 523.581,454.089 524.5,451.5C 526.016,448.467 528.016,445.8 530.5,443.5C 535.061,440.614 538.061,436.614 539.5,431.5C 542.972,429.961 544.972,427.294 545.5,423.5C 549.338,421.006 552.005,417.673 553.5,413.5C 558.376,411.407 561.042,407.74 561.5,402.5C 561.833,402.5 562.167,402.5 562.5,402.5C 563.167,402.167 563.833,401.833 564.5,401.5 Z"/></g>
<g><path style="opacity:1" fill="#92babb" d="M 545.5,423.5 C 544.972,427.294 542.972,429.961 539.5,431.5C 541.122,428.545 543.122,425.878 545.5,423.5 Z"/></g>
<g><path style="opacity:0.341" fill="#1b262a" d="M 500.5,426.5 C 503.921,427.973 505.921,430.639 506.5,434.5C 505.167,433.5 503.833,432.5 502.5,431.5C 502.672,430.508 502.338,429.842 501.5,429.5C 501.443,428.391 501.11,427.391 500.5,426.5 Z"/></g>
<g><path style="opacity:0.98" fill="#8b959c" d="M 502.5,431.5 C 503.833,432.5 505.167,433.5 506.5,434.5C 507.833,435.833 507.833,437.167 506.5,438.5C 505.833,438.833 505.167,439.167 504.5,439.5C 504.713,436.549 504.046,433.882 502.5,431.5 Z"/></g>
<g><path style="opacity:1" fill="#8eb7b9" d="M 539.5,431.5 C 538.061,436.614 535.061,440.614 530.5,443.5C 531.901,440.366 533.568,437.366 535.5,434.5C 536.833,433.5 538.167,432.5 539.5,431.5 Z"/></g>
<g><path style="opacity:0.125" fill="#1d1f22" d="M 415.5,437.5 C 417.727,439.607 419.727,441.94 421.5,444.5C 418.092,443.422 416.092,441.089 415.5,437.5 Z"/></g>
<g><path style="opacity:0.18" fill="#292d33" d="M 421.5,444.5 C 426.558,449.618 430.891,455.285 434.5,461.5C 433.504,461.586 432.671,461.252 432,460.5C 429.05,455.882 425.716,451.548 422,447.5C 421.517,446.552 421.351,445.552 421.5,444.5 Z"/></g>
<g><path style="opacity:0.999" fill="#e3e8ec" d="M 471.5,480.5 C 469.049,484.124 466.383,487.624 463.5,491C 461.833,491.667 460.167,491.667 458.5,491C 451.308,480.415 443.308,470.582 434.5,461.5C 430.891,455.285 426.558,449.618 421.5,444.5C 419.727,441.94 417.727,439.607 415.5,437.5C 415.443,436.391 415.11,435.391 414.5,434.5C 415.787,433.232 416.787,433.565 417.5,435.5C 418.88,434.024 420.547,433.024 422.5,432.5C 422.61,434.098 422.943,435.765 423.5,437.5C 422.833,437.833 422.167,438.167 421.5,438.5C 422,439.5 422.5,440.5 423,441.5C 425.812,440.463 428.312,441.13 430.5,443.5C 430.669,445.117 431.003,446.784 431.5,448.5C 434.103,447.438 436.77,447.272 439.5,448C 434.482,448.544 434.482,449.711 439.5,451.5C 438.833,452.167 438.167,452.833 437.5,453.5C 441.36,456.097 442.36,459.597 440.5,464C 442.198,463.503 443.865,463.67 445.5,464.5C 447.146,466.392 447.48,468.392 446.5,470.5C 449.387,474.222 452.72,477.389 456.5,480C 455.692,480.308 455.025,480.808 454.5,481.5C 457.357,482.909 460.023,484.575 462.5,486.5C 463.913,484.632 465.08,482.632 466,480.5C 466.249,481.624 466.749,482.624 467.5,483.5C 468.243,482.092 469.077,480.759 470,479.5C 470.383,480.056 470.883,480.389 471.5,480.5 Z"/></g>
<g><path style="opacity:0.361" fill="#1a3137" d="M 535.5,434.5 C 533.568,437.366 531.901,440.366 530.5,443.5C 528.016,445.8 526.016,448.467 524.5,451.5C 522.086,452.911 520.419,454.911 519.5,457.5C 517.086,458.911 515.419,460.911 514.5,463.5C 509.076,468.922 504.409,474.922 500.5,481.5C 498.386,484.07 496.053,486.403 493.5,488.5C 502.33,475.156 512.163,462.489 523,450.5C 526.493,444.445 530.66,439.112 535.5,434.5 Z"/></g>
<g><path style="opacity:0.984" fill="#7c9da3" d="M 524.5,451.5 C 523.581,454.089 521.914,456.089 519.5,457.5C 520.419,454.911 522.086,452.911 524.5,451.5 Z"/></g>
<g><path style="opacity:1" fill="#84a5ad" d="M 519.5,457.5 C 518.581,460.089 516.914,462.089 514.5,463.5C 515.419,460.911 517.086,458.911 519.5,457.5 Z"/></g>
<g><path style="opacity:1" fill="#e9f1f4" d="M 526.5,469.5 C 525.602,470.158 524.602,470.824 523.5,471.5C 525.012,472.862 526.512,473.196 528,472.5C 528.236,474.764 528.736,476.931 529.5,479C 534.155,479.499 538.821,479.666 543.5,479.5C 543.5,484.833 543.5,490.167 543.5,495.5C 548.179,495.334 552.845,495.501 557.5,496C 559.278,498.135 559.945,500.635 559.5,503.5C 562.566,503.276 565.066,501.943 567,499.5C 567.202,497.744 567.702,496.078 568.5,494.5C 570.422,493.289 572.255,491.956 574,490.5C 575.539,487.275 577.539,484.275 580,481.5C 582.432,482.069 584.599,483.069 586.5,484.5C 574.624,500.556 562.124,516.223 549,531.5C 548.209,532.745 547.709,534.078 547.5,535.5C 533.161,551.517 519.494,568.183 506.5,585.5C 505.167,585.5 503.833,585.5 502.5,585.5C 502.445,588.209 501.778,590.209 500.5,591.5C 499.041,591.433 497.708,591.766 496.5,592.5C 496.075,583.645 495.408,574.645 494.5,565.5C 495.156,563.547 495.489,561.547 495.5,559.5C 499.5,560.167 501.167,558.5 500.5,554.5C 498.856,554.286 497.356,554.62 496,555.5C 495.667,553.5 495.333,551.5 495,549.5C 494.502,552.482 494.335,555.482 494.5,558.5C 489.833,558.5 485.167,558.5 480.5,558.5C 480.139,551.889 480.806,545.389 482.5,539C 481.833,536.667 481.167,534.333 480.5,532C 480.833,530.833 481.167,529.667 481.5,528.5C 482.192,529.025 482.692,529.692 483,530.5C 485.244,529.046 487.577,527.712 490,526.5C 490.333,524.167 490.667,521.833 491,519.5C 491.333,522.167 491.667,524.833 492,527.5C 492.183,517.355 493.349,507.355 495.5,497.5C 495.157,495.517 495.824,494.183 497.5,493.5C 500.191,495.596 503.191,495.93 506.5,494.5C 505.345,493.05 503.845,492.05 502,491.5C 501.226,489.597 501.56,487.93 503,486.5C 504.147,487.458 505.147,487.125 506,485.5C 506.307,488.876 508.14,490.21 511.5,489.5C 511.846,486.398 511.179,483.565 509.5,481C 511.659,480.088 513.825,479.255 516,478.5C 516.701,474.096 518.701,470.429 522,467.5C 522.741,468.641 523.575,468.641 524.5,467.5C 525.696,467.846 525.696,468.346 524.5,469C 525.094,469.464 525.761,469.631 526.5,469.5 Z"/></g>
<g><path style="opacity:0.204" fill="#252d30" d="M 506.5,438.5 C 505.928,440.255 505.094,441.922 504,443.5C 493.887,455.761 483.72,467.761 473.5,479.5C 482.765,465.989 492.765,452.989 503.5,440.5C 503.5,439.833 503.833,439.5 504.5,439.5C 505.167,439.167 505.833,438.833 506.5,438.5 Z"/></g>
<g><path style="opacity:1" fill="#c9e7eb" d="M 514.5,463.5 C 513.587,465.086 513.587,466.586 514.5,468C 512.156,468.837 510.156,470.171 508.5,472C 508.957,472.414 509.291,472.914 509.5,473.5C 508.544,475.075 507.877,476.742 507.5,478.5C 506.878,481.776 504.878,483.109 501.5,482.5C 501.646,486.921 500.312,490.587 497.5,493.5C 495.824,494.183 495.157,495.517 495.5,497.5C 491.505,501.49 487.171,505.156 482.5,508.5C 479.846,513.471 476.513,517.804 472.5,521.5C 471.957,521.44 471.624,521.107 471.5,520.5C 472.63,519.378 473.297,518.044 473.5,516.5C 475.705,514.637 477.039,512.303 477.5,509.5C 479.833,506.833 482.167,504.167 484.5,501.5C 492.061,496.606 497.395,489.94 500.5,481.5C 504.409,474.922 509.076,468.922 514.5,463.5 Z"/></g>
<g><path style="opacity:0.188" fill="#282c30" d="M 434.5,461.5 C 443.308,470.582 451.308,480.415 458.5,491C 460.167,491.667 461.833,491.667 463.5,491C 466.383,487.624 469.049,484.124 471.5,480.5C 472.167,480.167 472.833,479.833 473.5,479.5C 471.873,484.302 469.206,488.468 465.5,492C 462.97,493.422 460.303,493.755 457.5,493C 451.097,483.26 443.93,474.094 436,465.5C 435.209,464.255 434.709,462.922 434.5,461.5 Z"/></g>
<g><path style="opacity:0.984" fill="#9ebec6" d="M 500.5,481.5 C 497.395,489.94 492.061,496.606 484.5,501.5C 487.737,497.37 490.737,493.037 493.5,488.5C 496.053,486.403 498.386,484.07 500.5,481.5 Z"/></g>
<g><path style="opacity:0.078" fill="#182c32" d="M 493.5,488.5 C 490.737,493.037 487.737,497.37 484.5,501.5C 482.167,504.167 479.833,506.833 477.5,509.5C 475.122,511.878 473.122,514.545 471.5,517.5C 465.817,523.854 460.484,530.52 455.5,537.5C 453.178,538.802 451.845,540.802 451.5,543.5C 449.97,544.211 448.637,545.211 447.5,546.5C 447.709,545.078 448.209,543.745 449,542.5C 456.816,533.53 464.149,524.196 471,514.5C 478.388,505.621 485.888,496.955 493.5,488.5 Z"/></g>
<g><path style="opacity:0.969" fill="#6b8890" d="M 477.5,509.5 C 477.039,512.303 475.705,514.637 473.5,516.5C 472.833,516.833 472.167,517.167 471.5,517.5C 473.122,514.545 475.122,511.878 477.5,509.5 Z"/></g>
<g><path style="opacity:1" fill="#b8d3d8" d="M 473.5,516.5 C 473.297,518.044 472.63,519.378 471.5,520.5C 471.624,521.107 471.957,521.44 472.5,521.5C 471.713,523.104 470.38,523.771 468.5,523.5C 466.69,526.524 465.523,529.858 465,533.5C 463.39,533.13 461.89,533.797 460.5,535.5C 459.086,538.213 457.753,540.88 456.5,543.5C 452.419,546.251 449.419,549.918 447.5,554.5C 444.878,556.411 442.711,558.745 441,561.5C 439.289,560.419 437.789,560.752 436.5,562.5C 440.167,557.167 443.833,551.833 447.5,546.5C 448.637,545.211 449.97,544.211 451.5,543.5C 453.326,541.853 454.66,539.853 455.5,537.5C 460.484,530.52 465.817,523.854 471.5,517.5C 472.167,517.167 472.833,516.833 473.5,516.5 Z"/></g>
<g><path style="opacity:0.792" fill="#1c2a2e" d="M 587.5,536.5 C 585.427,535.7 583.76,534.367 582.5,532.5C 581.749,531.427 580.749,531.26 579.5,532C 575.915,535.078 572.915,538.578 570.5,542.5C 568.413,543.585 567.08,545.251 566.5,547.5C 564.605,548.973 562.939,550.64 561.5,552.5C 562.128,549.91 563.295,547.577 565,545.5C 569.189,540.313 573.689,535.48 578.5,531C 583.395,529.779 586.395,531.613 587.5,536.5 Z"/></g>
<g><path style="opacity:0.953" fill="#6d868c" d="M 455.5,537.5 C 454.66,539.853 453.326,541.853 451.5,543.5C 451.845,540.802 453.178,538.802 455.5,537.5 Z"/></g>
<g><path style="opacity:0.992" fill="#b5cacd" d="M 582.5,532.5 C 580.484,533.456 578.651,534.79 577,536.5C 576.51,537.793 576.343,539.127 576.5,540.5C 574.282,540.614 572.282,541.28 570.5,542.5C 572.915,538.578 575.915,535.078 579.5,532C 580.749,531.26 581.749,531.427 582.5,532.5 Z"/></g>
<g><path style="opacity:1" fill="#e3edef" d="M 495.5,497.5 C 493.349,507.355 492.183,517.355 492,527.5C 491.667,524.833 491.333,522.167 491,519.5C 490.667,521.833 490.333,524.167 490,526.5C 487.577,527.712 485.244,529.046 483,530.5C 482.692,529.692 482.192,529.025 481.5,528.5C 481.167,529.667 480.833,530.833 480.5,532C 481.167,534.333 481.833,536.667 482.5,539C 480.806,545.389 480.139,551.889 480.5,558.5C 485.167,558.5 489.833,558.5 494.5,558.5C 494.335,555.482 494.502,552.482 495,549.5C 495.333,551.5 495.667,553.5 496,555.5C 497.356,554.62 498.856,554.286 500.5,554.5C 501.167,558.5 499.5,560.167 495.5,559.5C 495.489,561.547 495.156,563.547 494.5,565.5C 495.408,574.645 496.075,583.645 496.5,592.5C 495.262,592.81 495.262,593.31 496.5,594C 493.776,594.27 491.109,594.77 488.5,595.5C 487.614,596.325 487.281,597.325 487.5,598.5C 482.155,598.687 476.822,599.02 471.5,599.5C 471.5,596.833 471.5,594.167 471.5,591.5C 466.167,591.5 460.833,591.5 455.5,591.5C 455.5,589.833 455.5,588.167 455.5,586.5C 452.833,586.5 450.167,586.5 447.5,586.5C 447.5,588.167 447.5,589.833 447.5,591.5C 446.5,591.5 445.5,591.5 444.5,591.5C 444.5,588.833 444.5,586.167 444.5,583.5C 445.833,583.5 447.167,583.5 448.5,583.5C 449.97,576.012 450.804,568.346 451,560.5C 454.843,555.644 456.676,549.978 456.5,543.5C 457.753,540.88 459.086,538.213 460.5,535.5C 461.89,533.797 463.39,533.13 465,533.5C 465.523,529.858 466.69,526.524 468.5,523.5C 470.38,523.771 471.713,523.104 472.5,521.5C 476.513,517.804 479.846,513.471 482.5,508.5C 487.171,505.156 491.505,501.49 495.5,497.5 Z"/></g>
<g><path style="opacity:0.11" fill="#171f22" d="M 587.5,536.5 C 590.471,538.443 592.471,541.109 593.5,544.5C 590.353,542.687 588.353,540.02 587.5,536.5 Z"/></g>
<g><path style="opacity:1" fill="#7a9594" d="M 570.5,542.5 C 569.92,544.749 568.587,546.415 566.5,547.5C 567.08,545.251 568.413,543.585 570.5,542.5 Z"/></g>
<g><path style="opacity:1" fill="#e6ebef" d="M 594.5,547.5 C 600.862,554.859 607.196,562.192 613.5,569.5C 616.912,575.03 620.578,580.363 624.5,585.5C 625.419,588.089 627.086,590.089 629.5,591.5C 632.984,595.134 635.984,599.134 638.5,603.5C 636.072,604.415 633.739,605.582 631.5,607C 628.854,607.497 626.187,607.664 623.5,607.5C 623.735,603.423 624.402,599.423 625.5,595.5C 623.665,594.572 623.332,593.406 624.5,592C 623.027,591.29 622.36,590.124 622.5,588.5C 621.5,588.5 620.5,588.5 619.5,588.5C 619.719,587.325 619.386,586.325 618.5,585.5C 618.167,586 617.833,586.5 617.5,587C 618.148,588.44 618.481,589.94 618.5,591.5C 615.319,591.024 612.153,590.691 609,590.5C 606.73,585.753 605.563,580.753 605.5,575.5C 600.875,575.242 596.375,575.242 592,575.5C 591.503,572.854 591.336,570.187 591.5,567.5C 586.5,567.5 581.5,567.5 576.5,567.5C 576.5,564.833 576.5,562.167 576.5,559.5C 579.85,559.665 583.183,559.498 586.5,559C 587.874,556.417 589.374,553.917 591,551.5C 591.203,553.937 592.037,556.271 593.5,558.5C 594.931,558.023 596.264,557.357 597.5,556.5C 596.167,554.167 594.833,551.833 593.5,549.5C 593.863,548.817 594.196,548.15 594.5,547.5 Z"/></g>
<g><path style="opacity:0.275" fill="#1b2023" d="M 593.5,544.5 C 595.229,545.117 596.729,546.117 598,547.5C 603.411,554.731 608.578,562.064 613.5,569.5C 607.196,562.192 600.862,554.859 594.5,547.5C 593.89,546.609 593.557,545.609 593.5,544.5 Z"/></g>
<g><path style="opacity:0.118" fill="#131d20" d="M 561.5,552.5 C 560.2,555.432 558.2,557.766 555.5,559.5C 556.348,556.112 558.348,553.779 561.5,552.5 Z"/></g>
<g><path style="opacity:0.114" fill="#15272b" d="M 447.5,546.5 C 443.833,551.833 440.167,557.167 436.5,562.5C 435.833,562.833 435.167,563.167 434.5,563.5C 437.358,557.796 440.858,552.463 445,547.5C 445.671,546.748 446.504,546.414 447.5,546.5 Z"/></g>
<g><path style="opacity:0.988" fill="#acbfc3" d="M 566.5,547.5 C 565.474,550.372 563.808,552.872 561.5,555C 562.448,558.161 561.115,559.994 557.5,560.5C 556.833,560.833 556.167,561.167 555.5,561.5C 555.5,560.833 555.5,560.167 555.5,559.5C 558.2,557.766 560.2,555.432 561.5,552.5C 562.939,550.64 564.605,548.973 566.5,547.5 Z"/></g>
<g><path style="opacity:1" fill="#e4eef1" d="M 582.5,532.5 C 583.76,534.367 585.427,535.7 587.5,536.5C 588.353,540.02 590.353,542.687 593.5,544.5C 593.557,545.609 593.89,546.609 594.5,547.5C 594.196,548.15 593.863,548.817 593.5,549.5C 594.833,551.833 596.167,554.167 597.5,556.5C 596.264,557.357 594.931,558.023 593.5,558.5C 592.037,556.271 591.203,553.937 591,551.5C 589.374,553.917 587.874,556.417 586.5,559C 583.183,559.498 579.85,559.665 576.5,559.5C 576.5,562.167 576.5,564.833 576.5,567.5C 581.5,567.5 586.5,567.5 591.5,567.5C 591.336,570.187 591.503,572.854 592,575.5C 596.375,575.242 600.875,575.242 605.5,575.5C 605.563,580.753 606.73,585.753 609,590.5C 612.153,590.691 615.319,591.024 618.5,591.5C 618.481,589.94 618.148,588.44 617.5,587C 617.833,586.5 618.167,586 618.5,585.5C 619.386,586.325 619.719,587.325 619.5,588.5C 620.5,588.5 621.5,588.5 622.5,588.5C 622.36,590.124 623.027,591.29 624.5,592C 623.332,593.406 623.665,594.572 625.5,595.5C 624.402,599.423 623.735,603.423 623.5,607.5C 626.187,607.664 628.854,607.497 631.5,607C 633.739,605.582 636.072,604.415 638.5,603.5C 640.262,604.262 641.262,605.596 641.5,607.5C 641.539,608.583 641.873,609.583 642.5,610.5C 640.654,614.582 639.987,618.915 640.5,623.5C 639.022,623.762 637.689,623.429 636.5,622.5C 635.472,620.639 633.972,619.305 632,618.5C 631.506,616.866 631.34,615.199 631.5,613.5C 628.833,613.5 626.167,613.5 623.5,613.5C 623.5,612.5 623.5,611.5 623.5,610.5C 620.833,610.5 618.167,610.5 615.5,610.5C 615.663,608.143 615.497,605.81 615,603.5C 612.667,608.833 610.333,608.833 608,603.5C 607.501,599.514 607.334,595.514 607.5,591.5C 605.5,591.5 603.5,591.5 601.5,591.5C 600.833,580.833 600.167,580.833 599.5,591.5C 597.833,591.5 596.167,591.5 594.5,591.5C 594.5,588.833 594.5,586.167 594.5,583.5C 591.014,582.047 587.347,581.381 583.5,581.5C 583.5,578.833 583.5,576.167 583.5,573.5C 579.397,572.769 575.897,573.769 573,576.5C 571.667,576.5 570.333,576.5 569,576.5C 568.333,573.833 567.667,573.833 567,576.5C 566.333,575.167 565.667,575.167 565,576.5C 563.711,573.649 563.211,570.649 563.5,567.5C 560.679,567.461 558.012,566.795 555.5,565.5C 556.95,564.15 557.617,562.484 557.5,560.5C 561.115,559.994 562.448,558.161 561.5,555C 563.808,552.872 565.474,550.372 566.5,547.5C 568.587,546.415 569.92,544.749 570.5,542.5C 572.282,541.28 574.282,540.614 576.5,540.5C 576.343,539.127 576.51,537.793 577,536.5C 578.651,534.79 580.484,533.456 582.5,532.5 Z"/></g>
<g><path style="opacity:0.149" fill="#172227" d="M 555.5,559.5 C 555.5,560.167 555.5,560.833 555.5,561.5C 552.862,564.474 550.195,567.474 547.5,570.5C 546.167,571.5 544.833,572.5 543.5,573.5C 547.047,568.38 551.047,563.714 555.5,559.5 Z"/></g>
<g><path style="opacity:0.976" fill="#7a9094" d="M 436.5,562.5 C 435.194,564.816 433.861,567.15 432.5,569.5C 431.833,569.833 431.167,570.167 430.5,570.5C 431.569,568.031 432.902,565.698 434.5,563.5C 435.167,563.167 435.833,562.833 436.5,562.5 Z"/></g>
<g><path style="opacity:1" fill="#a5b7bc" d="M 555.5,561.5 C 554.316,566.018 551.649,569.351 547.5,571.5C 547.5,571.167 547.5,570.833 547.5,570.5C 550.195,567.474 552.862,564.474 555.5,561.5 Z"/></g>
<g><path style="opacity:1" fill="#e2eaee" d="M 557.5,560.5 C 557.617,562.484 556.95,564.15 555.5,565.5C 558.012,566.795 560.679,567.461 563.5,567.5C 563.211,570.649 563.711,573.649 565,576.5C 565.667,575.167 566.333,575.167 567,576.5C 567.667,573.833 568.333,573.833 569,576.5C 570.333,576.5 571.667,576.5 573,576.5C 575.897,573.769 579.397,572.769 583.5,573.5C 583.5,576.167 583.5,578.833 583.5,581.5C 587.347,581.381 591.014,582.047 594.5,583.5C 594.5,586.167 594.5,588.833 594.5,591.5C 596.167,591.5 597.833,591.5 599.5,591.5C 600.167,580.833 600.833,580.833 601.5,591.5C 603.5,591.5 605.5,591.5 607.5,591.5C 607.334,595.514 607.501,599.514 608,603.5C 610.333,608.833 612.667,608.833 615,603.5C 615.497,605.81 615.663,608.143 615.5,610.5C 618.167,610.5 620.833,610.5 623.5,610.5C 623.5,611.5 623.5,612.5 623.5,613.5C 626.167,613.5 628.833,613.5 631.5,613.5C 631.34,615.199 631.506,616.866 632,618.5C 633.972,619.305 635.472,620.639 636.5,622.5C 637.689,623.429 639.022,623.762 640.5,623.5C 639.987,618.915 640.654,614.582 642.5,610.5C 641.873,609.583 641.539,608.583 641.5,607.5C 650.545,617.877 659.212,628.543 667.5,639.5C 667.427,641.027 668.094,642.027 669.5,642.5C 670.974,643.436 671.974,644.77 672.5,646.5C 672.92,648.094 673.586,649.594 674.5,651C 673.991,652.169 673.158,653.002 672,653.5C 670.951,652.483 669.784,652.316 668.5,653C 670.679,654.142 673.012,654.975 675.5,655.5C 676.192,654.975 676.692,654.308 677,653.5C 677.783,655.433 677.283,656.933 675.5,658C 677.112,658.72 678.612,658.554 680,657.5C 680.49,658.793 680.657,660.127 680.5,661.5C 681.959,661.433 683.292,661.766 684.5,662.5C 691.896,670.232 698.563,678.565 704.5,687.5C 704.92,689.094 705.586,690.594 706.5,692C 704.824,695.295 705.49,697.962 708.5,700C 706.741,704.172 704.908,704.338 703,700.5C 702.667,701.5 702.333,702.5 702,703.5C 701.667,700.833 701.333,698.167 701,695.5C 699,694.167 697,694.167 695,695.5C 694.503,697.81 694.337,700.143 694.5,702.5C 693.5,702.5 692.5,702.5 691.5,702.5C 691.5,701.5 691.5,700.5 691.5,699.5C 689.508,699.328 687.842,699.995 686.5,701.5C 683.991,700.079 681.657,698.412 679.5,696.5C 680.5,695.833 681.5,695.167 682.5,694.5C 680.766,692.766 679.432,690.766 678.5,688.5C 677.526,690.743 677.192,693.076 677.5,695.5C 676.167,695.5 674.833,695.5 673.5,695.5C 673.5,692.833 673.5,690.167 673.5,687.5C 670.102,687.82 666.768,687.487 663.5,686.5C 660.319,684.408 657.319,682.075 654.5,679.5C 653.52,682.086 653.187,684.753 653.5,687.5C 652.167,687.5 650.833,687.5 649.5,687.5C 649.466,683.37 648.799,679.37 647.5,675.5C 640.733,675.821 634.066,675.154 627.5,673.5C 620.594,675.342 613.594,675.842 606.5,675C 607,674.5 607.5,674 608,673.5C 612.737,674.469 617.57,674.803 622.5,674.5C 622.5,670.833 622.5,667.167 622.5,663.5C 618.393,662.85 614.893,663.85 612,666.5C 611.667,666.167 611.333,665.833 611,665.5C 612.299,659.726 612.799,653.726 612.5,647.5C 614.5,647.5 616.5,647.5 618.5,647.5C 618.5,645.167 618.5,642.833 618.5,640.5C 617.5,640.5 616.5,640.5 615.5,640.5C 615.5,641.5 615.5,642.5 615.5,643.5C 612.833,643.5 610.167,643.5 607.5,643.5C 607.5,644.833 607.5,646.167 607.5,647.5C 604.833,647.5 602.167,647.5 599.5,647.5C 599.5,642.833 599.5,638.167 599.5,633.5C 596.833,633.5 594.167,633.5 591.5,633.5C 592.167,638.16 592.333,642.826 592,647.5C 591.16,650.464 590.16,650.797 589,648.5C 588.675,650.553 589.009,652.553 590,654.5C 591.483,652.054 592.649,652.388 593.5,655.5C 592.388,656.265 591.721,657.265 591.5,658.5C 581.26,646.35 571.26,634.017 561.5,621.5C 560.928,619.745 560.094,618.078 559,616.5C 555.257,612.656 551.757,608.656 548.5,604.5C 547.764,601.68 546.098,599.68 543.5,598.5C 543.649,597.448 543.483,596.448 543,595.5C 540.43,592.599 538.263,589.432 536.5,586C 536.387,584.301 537.053,583.134 538.5,582.5C 541.573,580.431 543.906,577.764 545.5,574.5C 546.167,573.5 546.833,572.5 547.5,571.5C 551.649,569.351 554.316,566.018 555.5,561.5C 556.167,561.167 556.833,560.833 557.5,560.5 Z"/></g>
<g><path style="opacity:0.91" fill="#5d6e75" d="M 547.5,570.5 C 547.5,570.833 547.5,571.167 547.5,571.5C 546.833,572.5 546.167,573.5 545.5,574.5C 544.833,574.833 544.167,575.167 543.5,575.5C 543.5,574.833 543.5,574.167 543.5,573.5C 544.833,572.5 546.167,571.5 547.5,570.5 Z"/></g>
<g><path style="opacity:1" fill="#98aaae" d="M 545.5,574.5 C 543.906,577.764 541.573,580.431 538.5,582.5C 539.754,579.907 541.42,577.573 543.5,575.5C 544.167,575.167 544.833,574.833 545.5,574.5 Z"/></g>
<g><path style="opacity:0.997" fill="#b8ccd1" d="M 432.5,569.5 C 433.917,572.474 432.917,574.474 429.5,575.5C 428.678,577.139 428.011,578.805 427.5,580.5C 425.549,581.282 424.049,582.616 423,584.5C 422.667,584.167 422.333,583.833 422,583.5C 421.833,585.833 421.667,588.167 421.5,590.5C 419.898,591.55 419.065,590.883 419,588.5C 417.826,590.671 415.993,591.671 413.5,591.5C 418.45,583.942 424.117,576.942 430.5,570.5C 431.167,570.167 431.833,569.833 432.5,569.5 Z"/></g>
<g><path style="opacity:0.42" fill="#1b2b2e" d="M 434.5,563.5 C 432.902,565.698 431.569,568.031 430.5,570.5C 424.117,576.942 418.45,583.942 413.5,591.5C 409.497,596.579 405.497,601.579 401.5,606.5C 399.413,607.585 398.08,609.251 397.5,611.5C 395.292,612.894 393.792,614.894 393,617.5C 391.887,618.305 390.721,618.972 389.5,619.5C 389.351,618.448 389.517,617.448 390,616.5C 396.707,609.462 403.04,602.128 409,594.5C 416.565,585.051 423.898,575.385 431,565.5C 431.816,564.177 432.983,563.511 434.5,563.5 Z"/></g>
<g><path style="opacity:0.294" fill="#1b2022" d="M 613.5,569.5 C 626.088,583.29 637.754,597.957 648.5,613.5C 653.721,619.383 658.888,625.383 664,631.5C 665.777,634.059 667.277,636.726 668.5,639.5C 668.167,639.5 667.833,639.5 667.5,639.5C 659.212,628.543 650.545,617.877 641.5,607.5C 641.262,605.596 640.262,604.262 638.5,603.5C 635.984,599.134 632.984,595.134 629.5,591.5C 628.581,588.911 626.914,586.911 624.5,585.5C 620.578,580.363 616.912,575.03 613.5,569.5 Z"/></g>
<g><path style="opacity:0.424" fill="#1f2b2f" d="M 543.5,573.5 C 543.5,574.167 543.5,574.833 543.5,575.5C 541.42,577.573 539.754,579.907 538.5,582.5C 537.053,583.134 536.387,584.301 536.5,586C 538.263,589.432 540.43,592.599 543,595.5C 543.483,596.448 543.649,597.448 543.5,598.5C 539.141,594.962 536.141,590.462 534.5,585C 536.968,580.705 539.968,576.871 543.5,573.5 Z"/></g>
<g><path style="opacity:1" fill="#dfe9eb" d="M 456.5,543.5 C 456.676,549.978 454.843,555.644 451,560.5C 450.804,568.346 449.97,576.012 448.5,583.5C 447.167,583.5 445.833,583.5 444.5,583.5C 444.5,586.167 444.5,588.833 444.5,591.5C 445.5,591.5 446.5,591.5 447.5,591.5C 447.5,589.833 447.5,588.167 447.5,586.5C 450.167,586.5 452.833,586.5 455.5,586.5C 455.5,588.167 455.5,589.833 455.5,591.5C 460.833,591.5 466.167,591.5 471.5,591.5C 471.5,594.167 471.5,596.833 471.5,599.5C 476.822,599.02 482.155,598.687 487.5,598.5C 487.281,597.325 487.614,596.325 488.5,595.5C 491.109,594.77 493.776,594.27 496.5,594C 495.262,593.31 495.262,592.81 496.5,592.5C 497.708,591.766 499.041,591.433 500.5,591.5C 501.778,590.209 502.445,588.209 502.5,585.5C 503.833,585.5 505.167,585.5 506.5,585.5C 492.518,604.144 478.184,622.477 463.5,640.5C 461.208,640.244 459.041,640.577 457,641.5C 456.233,638.097 457.399,637.097 460.5,638.5C 461.308,638.192 461.975,637.692 462.5,637C 460.644,636.07 458.644,635.57 456.5,635.5C 455.406,634.132 455.74,632.965 457.5,632C 455.866,631.506 454.199,631.34 452.5,631.5C 451.507,624.853 450.507,618.186 449.5,611.5C 449.551,609.9 449.884,608.4 450.5,607C 450,606.5 449.5,606 449,605.5C 446.258,607.558 443.091,608.558 439.5,608.5C 439.5,610.833 439.5,613.167 439.5,615.5C 437.833,615.5 436.167,615.5 434.5,615.5C 434.664,618.187 434.497,620.854 434,623.5C 432.658,624.902 431.824,624.569 431.5,622.5C 430.234,617.495 430.234,612.495 431.5,607.5C 429.833,607.5 428.167,607.5 426.5,607.5C 425.5,607.5 424.5,607.5 423.5,607.5C 422.823,601.667 424.156,596.5 427.5,592C 428.793,591.51 430.127,591.343 431.5,591.5C 431.373,587.738 430.706,584.072 429.5,580.5C 428.571,581.55 427.905,581.55 427.5,580.5C 428.011,578.805 428.678,577.139 429.5,575.5C 432.917,574.474 433.917,572.474 432.5,569.5C 433.861,567.15 435.194,564.816 436.5,562.5C 437.789,560.752 439.289,560.419 441,561.5C 442.711,558.745 444.878,556.411 447.5,554.5C 449.419,549.918 452.419,546.251 456.5,543.5 Z"/></g>
<g><path style="opacity:0.976" fill="#9ea2a6" d="M 624.5,585.5 C 626.914,586.911 628.581,588.911 629.5,591.5C 627.086,590.089 625.419,588.089 624.5,585.5 Z"/></g>
<g><path style="opacity:0.043" fill="#242e2f" d="M 543.5,598.5 C 546.098,599.68 547.764,601.68 548.5,604.5C 545.438,603.732 543.772,601.732 543.5,598.5 Z"/></g>
<g><path style="opacity:1" fill="#dce5e9" d="M 463.5,640.5 C 455.638,651.568 447.305,662.235 438.5,672.5C 437.312,671.952 436.145,671.619 435,671.5C 435.295,666.332 434.962,661.332 434,656.5C 432.768,659.23 431.935,659.063 431.5,656C 429.969,650.581 428.969,645.081 428.5,639.5C 426.833,639.5 425.167,639.5 423.5,639.5C 422.993,634.474 422.326,629.474 421.5,624.5C 420.5,624.5 419.5,624.5 418.5,624.5C 418.663,626.857 418.497,629.19 418,631.5C 417.741,628.413 417.241,625.413 416.5,622.5C 416.979,618.089 416.312,613.922 414.5,610C 418.503,608.9 422.503,608.067 426.5,607.5C 428.167,607.5 429.833,607.5 431.5,607.5C 430.234,612.495 430.234,617.495 431.5,622.5C 431.824,624.569 432.658,624.902 434,623.5C 434.497,620.854 434.664,618.187 434.5,615.5C 436.167,615.5 437.833,615.5 439.5,615.5C 439.5,613.167 439.5,610.833 439.5,608.5C 443.091,608.558 446.258,607.558 449,605.5C 449.5,606 450,606.5 450.5,607C 449.884,608.4 449.551,609.9 449.5,611.5C 450.507,618.186 451.507,624.853 452.5,631.5C 454.199,631.34 455.866,631.506 457.5,632C 455.74,632.965 455.406,634.132 456.5,635.5C 458.644,635.57 460.644,636.07 462.5,637C 461.975,637.692 461.308,638.192 460.5,638.5C 457.399,637.097 456.233,638.097 457,641.5C 459.041,640.577 461.208,640.244 463.5,640.5 Z"/></g>
<g><path style="opacity:1" fill="#768a8e" d="M 401.5,606.5 C 400.92,608.749 399.587,610.415 397.5,611.5C 398.08,609.251 399.413,607.585 401.5,606.5 Z"/></g>
<g><path style="opacity:0.451" fill="#2a3133" d="M 548.5,604.5 C 551.757,608.656 555.257,612.656 559,616.5C 560.094,618.078 560.928,619.745 561.5,621.5C 560.504,621.586 559.671,621.252 559,620.5C 557.392,616.957 555.058,613.957 552,611.5C 550.295,609.423 549.128,607.09 548.5,604.5 Z"/></g>
<g><path style="opacity:1" fill="#d8e2e8" d="M 416.5,622.5 C 417.241,625.413 417.741,628.413 418,631.5C 418.497,629.19 418.663,626.857 418.5,624.5C 419.5,624.5 420.5,624.5 421.5,624.5C 422.326,629.474 422.993,634.474 423.5,639.5C 425.167,639.5 426.833,639.5 428.5,639.5C 428.969,645.081 429.969,650.581 431.5,656C 431.935,659.063 432.768,659.23 434,656.5C 434.962,661.332 435.295,666.332 435,671.5C 436.145,671.619 437.312,671.952 438.5,672.5C 432.878,680.788 426.878,688.788 420.5,696.5C 419.417,696.461 418.417,696.127 417.5,695.5C 416.742,696.811 415.742,697.311 414.5,697C 415.836,694.19 416.169,691.357 415.5,688.5C 416.325,687.614 417.325,687.281 418.5,687.5C 418.5,682.167 418.5,676.833 418.5,671.5C 417.167,671.5 415.833,671.5 414.5,671.5C 409.456,671.827 404.456,671.494 399.5,670.5C 400.263,669.281 401.263,668.281 402.5,667.5C 401.758,666.713 400.925,666.047 400,665.5C 399.667,662.167 399.333,658.833 399,655.5C 397.128,653.622 395.628,651.455 394.5,649C 395.122,645.546 396.789,642.713 399.5,640.5C 399.833,638.5 400.167,636.5 400.5,634.5C 400.41,632.036 399.743,629.87 398.5,628C 398.693,626.355 398.86,624.521 399,622.5C 401.539,623.736 404.039,624.736 406.5,625.5C 408.776,624.787 411.109,624.287 413.5,624C 413.167,623.667 412.833,623.333 412.5,623C 413.878,621.666 415.211,621.499 416.5,622.5 Z"/></g>
<g><path style="opacity:1" fill="#d4e2e7" d="M 427.5,580.5 C 427.905,581.55 428.571,581.55 429.5,580.5C 430.706,584.072 431.373,587.738 431.5,591.5C 430.127,591.343 428.793,591.51 427.5,592C 424.156,596.5 422.823,601.667 423.5,607.5C 424.5,607.5 425.5,607.5 426.5,607.5C 422.503,608.067 418.503,608.9 414.5,610C 416.312,613.922 416.979,618.089 416.5,622.5C 415.211,621.499 413.878,621.666 412.5,623C 412.833,623.333 413.167,623.667 413.5,624C 411.109,624.287 408.776,624.787 406.5,625.5C 404.039,624.736 401.539,623.736 399,622.5C 398.86,624.521 398.693,626.355 398.5,628C 399.743,629.87 400.41,632.036 400.5,634.5C 400.167,636.5 399.833,638.5 399.5,640.5C 396.789,642.713 395.122,645.546 394.5,649C 395.628,651.455 397.128,653.622 399,655.5C 399.333,658.833 399.667,662.167 400,665.5C 400.925,666.047 401.758,666.713 402.5,667.5C 401.263,668.281 400.263,669.281 399.5,670.5C 404.456,671.494 409.456,671.827 414.5,671.5C 409.36,672.488 404.026,672.821 398.5,672.5C 398.5,667.167 398.5,661.833 398.5,656.5C 394.158,656.261 389.824,655.927 385.5,655.5C 385.522,651.407 386.189,647.407 387.5,643.5C 386.574,640.53 385.908,637.53 385.5,634.5C 386.675,634.719 387.675,634.386 388.5,633.5C 390.61,629.559 393.277,626.059 396.5,623C 396.043,622.586 395.709,622.086 395.5,621.5C 397.514,619.155 399.847,617.155 402.5,615.5C 403.429,614.311 403.762,612.978 403.5,611.5C 407.806,610.934 408.139,610.268 404.5,609.5C 404.201,607.396 404.534,605.396 405.5,603.5C 406.086,603.709 406.586,604.043 407,604.5C 408.675,601.972 410.008,599.306 411,596.5C 411.333,597.5 411.667,598.5 412,599.5C 412.44,597.924 413.273,596.59 414.5,595.5C 413.754,594.264 413.421,592.93 413.5,591.5C 415.993,591.671 417.826,590.671 419,588.5C 419.065,590.883 419.898,591.55 421.5,590.5C 421.667,588.167 421.833,585.833 422,583.5C 422.333,583.833 422.667,584.167 423,584.5C 424.049,582.616 425.549,581.282 427.5,580.5 Z"/></g>
<g><path style="opacity:0.286" fill="#162227" d="M 389.5,619.5 C 387.193,623.149 384.86,626.816 382.5,630.5C 381.833,630.833 381.167,631.167 380.5,631.5C 382.529,626.776 385.529,622.776 389.5,619.5 Z"/></g>
<g><path style="opacity:0.212" fill="#131e21" d="M 380.5,631.5 C 379.557,634.109 377.89,636.109 375.5,637.5C 375.772,634.268 377.438,632.268 380.5,631.5 Z"/></g>
<g><path style="opacity:0.106" fill="#252c2e" d="M 561.5,621.5 C 571.26,634.017 581.26,646.35 591.5,658.5C 602.159,674.139 613.492,689.139 625.5,703.5C 629.728,710.568 634.561,717.235 640,723.5C 642.396,726.067 644.896,728.4 647.5,730.5C 646.833,730.5 646.167,730.5 645.5,730.5C 640.558,726.389 636.058,721.723 632,716.5C 610.243,687.32 588.243,658.32 566,629.5C 564.223,626.941 562.723,624.274 561.5,621.5 Z"/></g>
<g><path style="opacity:1" fill="#cfdce4" d="M 413.5,591.5 C 413.421,592.93 413.754,594.264 414.5,595.5C 413.273,596.59 412.44,597.924 412,599.5C 411.667,598.5 411.333,597.5 411,596.5C 410.008,599.306 408.675,601.972 407,604.5C 406.586,604.043 406.086,603.709 405.5,603.5C 404.534,605.396 404.201,607.396 404.5,609.5C 408.139,610.268 407.806,610.934 403.5,611.5C 403.762,612.978 403.429,614.311 402.5,615.5C 399.847,617.155 397.514,619.155 395.5,621.5C 395.709,622.086 396.043,622.586 396.5,623C 393.277,626.059 390.61,629.559 388.5,633.5C 387.675,634.386 386.675,634.719 385.5,634.5C 385.908,637.53 386.574,640.53 387.5,643.5C 386.189,647.407 385.522,651.407 385.5,655.5C 389.824,655.927 394.158,656.261 398.5,656.5C 398.5,661.833 398.5,667.167 398.5,672.5C 404.026,672.821 409.36,672.488 414.5,671.5C 415.833,671.5 417.167,671.5 418.5,671.5C 418.5,676.833 418.5,682.167 418.5,687.5C 417.325,687.281 416.325,687.614 415.5,688.5C 416.169,691.357 415.836,694.19 414.5,697C 415.742,697.311 416.742,696.811 417.5,695.5C 418.417,696.127 419.417,696.461 420.5,696.5C 419.89,697.391 419.557,698.391 419.5,699.5C 412.842,706.831 406.509,714.498 400.5,722.5C 398.037,722.219 395.87,721.219 394,719.5C 391.39,719.178 388.89,719.844 386.5,721.5C 386.5,718.167 386.5,714.833 386.5,711.5C 385.5,711.5 384.5,711.5 383.5,711.5C 383.5,706.167 383.5,700.833 383.5,695.5C 382.167,695.5 380.833,695.5 379.5,695.5C 379.5,692.833 379.5,690.167 379.5,687.5C 378.167,687.5 376.833,687.5 375.5,687.5C 375.5,690.167 375.5,692.833 375.5,695.5C 374.5,695.5 373.5,695.5 372.5,695.5C 372.167,706.167 371.833,706.167 371.5,695.5C 370.167,695.5 368.833,695.5 367.5,695.5C 367.646,697.942 366.813,698.609 365,697.5C 363.684,694.312 363.184,690.978 363.5,687.5C 362.167,687.5 360.833,687.5 359.5,687.5C 359.762,688.978 359.429,690.311 358.5,691.5C 357.914,691.291 357.414,690.957 357,690.5C 356.797,686.579 356.297,682.745 355.5,679C 357.359,677.019 359.692,676.019 362.5,676C 363.717,674.352 364.55,672.519 365,670.5C 366.388,671.554 367.888,671.72 369.5,671C 370.867,668.699 371.534,666.199 371.5,663.5C 372.833,663.5 374.167,663.5 375.5,663.5C 374.5,666.167 373.5,668.833 372.5,671.5C 374.5,671.833 376.5,672.167 378.5,672.5C 378.666,666.824 378.499,661.157 378,655.5C 375.13,657.075 372.963,656.408 371.5,653.5C 371.833,652.833 372.167,652.167 372.5,651.5C 373.451,652.326 374.451,652.492 375.5,652C 374.289,650.887 374.289,649.72 375.5,648.5C 377.678,645.823 380.011,643.323 382.5,641C 382.043,640.586 381.709,640.086 381.5,639.5C 382.311,638.784 382.978,637.95 383.5,637C 382.962,634.898 381.962,634.065 380.5,634.5C 381.63,633.378 382.297,632.044 382.5,630.5C 384.86,626.816 387.193,623.149 389.5,619.5C 390.721,618.972 391.887,618.305 393,617.5C 393.792,614.894 395.292,612.894 397.5,611.5C 399.587,610.415 400.92,608.749 401.5,606.5C 405.497,601.579 409.497,596.579 413.5,591.5 Z"/></g>
<g><path style="opacity:0.969" fill="#838b8e" d="M 667.5,639.5 C 667.833,639.5 668.167,639.5 668.5,639.5C 669.11,640.391 669.443,641.391 669.5,642.5C 668.094,642.027 667.427,641.027 667.5,639.5 Z"/></g>
<g><path style="opacity:0.267" fill="#182326" d="M 375.5,637.5 C 374.833,639.167 374.167,640.833 373.5,642.5C 369.217,647.12 364.883,651.787 360.5,656.5C 364.364,649.299 369.364,642.966 375.5,637.5 Z"/></g>
<g><path style="opacity:0.067" fill="#12171a" d="M 668.5,639.5 C 669.496,639.414 670.329,639.748 671,640.5C 672.608,644.043 674.942,647.043 678,649.5C 679.879,651.527 681.046,653.86 681.5,656.5C 678.5,653.167 675.5,649.833 672.5,646.5C 671.974,644.77 670.974,643.436 669.5,642.5C 669.443,641.391 669.11,640.391 668.5,639.5 Z"/></g>
<g><path style="opacity:0.055" fill="#252a2c" d="M 547.5,535.5 C 532.015,556.511 515.848,577.177 499,597.5C 473.314,630.525 447.981,663.859 423,697.5C 422.184,698.823 421.017,699.489 419.5,699.5C 419.557,698.391 419.89,697.391 420.5,696.5C 426.878,688.788 432.878,680.788 438.5,672.5C 447.305,662.235 455.638,651.568 463.5,640.5C 478.184,622.477 492.518,604.144 506.5,585.5C 519.494,568.183 533.161,551.517 547.5,535.5 Z"/></g>
<g><path style="opacity:1" fill="#d0d5d9" d="M 672.5,646.5 C 675.5,649.833 678.5,653.167 681.5,656.5C 682.5,658.5 683.5,660.5 684.5,662.5C 683.292,661.766 681.959,661.433 680.5,661.5C 680.657,660.127 680.49,658.793 680,657.5C 678.612,658.554 677.112,658.72 675.5,658C 677.283,656.933 677.783,655.433 677,653.5C 676.692,654.308 676.192,654.975 675.5,655.5C 673.012,654.975 670.679,654.142 668.5,653C 669.784,652.316 670.951,652.483 672,653.5C 673.158,653.002 673.991,652.169 674.5,651C 673.586,649.594 672.92,648.094 672.5,646.5 Z"/></g>
<g><path style="opacity:0.992" fill="#a5b7be" d="M 373.5,642.5 C 372.959,645.749 371.292,648.249 368.5,650C 369.167,650.333 369.833,650.667 370.5,651C 367.949,653.956 364.949,656.456 361.5,658.5C 362.167,658.833 362.833,659.167 363.5,659.5C 361.112,661.89 358.446,663.89 355.5,665.5C 356.738,662.262 358.404,659.262 360.5,656.5C 364.883,651.787 369.217,647.12 373.5,642.5 Z"/></g>
<g><path style="opacity:0.51" fill="#172325" d="M 360.5,656.5 C 358.404,659.262 356.738,662.262 355.5,665.5C 352.532,667.477 350.198,670.144 348.5,673.5C 346.413,674.585 345.08,676.251 344.5,678.5C 341.152,681.851 338.152,685.518 335.5,689.5C 333.11,690.891 331.443,692.891 330.5,695.5C 327.116,699.213 323.783,702.879 320.5,706.5C 329.047,694.44 338.214,682.774 348,671.5C 351,667.167 354,662.833 357,658.5C 357.816,657.177 358.983,656.511 360.5,656.5 Z"/></g>
<g><path style="opacity:1" fill="#c9d8e0" d="M 382.5,630.5 C 382.297,632.044 381.63,633.378 380.5,634.5C 381.962,634.065 382.962,634.898 383.5,637C 382.978,637.95 382.311,638.784 381.5,639.5C 381.709,640.086 382.043,640.586 382.5,641C 380.011,643.323 377.678,645.823 375.5,648.5C 374.289,649.72 374.289,650.887 375.5,652C 374.451,652.492 373.451,652.326 372.5,651.5C 372.167,652.167 371.833,652.833 371.5,653.5C 372.963,656.408 375.13,657.075 378,655.5C 378.499,661.157 378.666,666.824 378.5,672.5C 376.5,672.167 374.5,671.833 372.5,671.5C 373.5,668.833 374.5,666.167 375.5,663.5C 374.167,663.5 372.833,663.5 371.5,663.5C 371.534,666.199 370.867,668.699 369.5,671C 367.888,671.72 366.388,671.554 365,670.5C 364.55,672.519 363.717,674.352 362.5,676C 359.692,676.019 357.359,677.019 355.5,679C 356.297,682.745 356.797,686.579 357,690.5C 357.414,690.957 357.914,691.291 358.5,691.5C 359.429,690.311 359.762,688.978 359.5,687.5C 360.833,687.5 362.167,687.5 363.5,687.5C 363.184,690.978 363.684,694.312 365,697.5C 366.813,698.609 367.646,697.942 367.5,695.5C 368.833,695.5 370.167,695.5 371.5,695.5C 371.833,706.167 372.167,706.167 372.5,695.5C 373.5,695.5 374.5,695.5 375.5,695.5C 375.5,692.833 375.5,690.167 375.5,687.5C 376.833,687.5 378.167,687.5 379.5,687.5C 379.5,690.167 379.5,692.833 379.5,695.5C 380.833,695.5 382.167,695.5 383.5,695.5C 383.5,700.833 383.5,706.167 383.5,711.5C 384.5,711.5 385.5,711.5 386.5,711.5C 386.5,714.833 386.5,718.167 386.5,721.5C 388.89,719.844 391.39,719.178 394,719.5C 395.87,721.219 398.037,722.219 400.5,722.5C 399.167,725.833 396.833,728.167 393.5,729.5C 391.218,728.61 388.885,728.444 386.5,729C 387.5,729.333 388.5,729.667 389.5,730C 365.167,730.667 340.833,730.667 316.5,730C 317.253,728.513 318.086,728.346 319,729.5C 328.481,728.902 337.981,728.068 347.5,727C 347.167,726.667 346.833,726.333 346.5,726C 347.5,725.667 348.5,725.333 349.5,725C 345.167,724.667 340.833,724.333 336.5,724C 335.139,722.416 334.472,720.582 334.5,718.5C 331.751,718.726 329.084,718.393 326.5,717.5C 325.766,715.185 324.432,713.352 322.5,712C 323.766,711.691 324.933,711.191 326,710.5C 326.333,710.833 326.667,711.167 327,711.5C 326.805,709.874 326.805,708.207 327,706.5C 327.333,707.167 327.667,707.833 328,708.5C 328.859,705.341 330.025,702.341 331.5,699.5C 334.447,698.679 337.447,698.179 340.5,698C 338.842,697.275 338.342,696.108 339,694.5C 341.129,695.863 341.629,695.529 340.5,693.5C 342.443,691.41 343.443,689.243 343.5,687C 344.899,686.405 346.232,686.572 347.5,687.5C 349.729,686.696 350.062,685.363 348.5,683.5C 349.351,679.759 350.351,676.092 351.5,672.5C 352.5,672.5 353.5,672.5 354.5,672.5C 354.298,670.05 354.631,667.717 355.5,665.5C 358.446,663.89 361.112,661.89 363.5,659.5C 362.833,659.167 362.167,658.833 361.5,658.5C 364.949,656.456 367.949,653.956 370.5,651C 369.833,650.667 369.167,650.333 368.5,650C 371.292,648.249 372.959,645.749 373.5,642.5C 374.167,640.833 374.833,639.167 375.5,637.5C 377.89,636.109 379.557,634.109 380.5,631.5C 381.167,631.167 381.833,630.833 382.5,630.5 Z"/></g>
<g><path style="opacity:1" fill="#dfe6ea" d="M 704.5,687.5 C 712.878,696.581 720.545,706.248 727.5,716.5C 729.164,718.679 728.83,720.512 726.5,722C 728.23,723.852 729.396,723.686 730,721.5C 731.167,722.667 732.333,723.833 733.5,725C 730.833,725.667 730.833,726.333 733.5,727C 732.027,727.71 731.36,728.876 731.5,730.5C 711.833,730.5 692.167,730.5 672.5,730.5C 672.579,726.05 671.912,721.717 670.5,717.5C 664.263,718.633 664.263,717.633 670.5,714.5C 671.833,710.833 671.833,707.167 670.5,703.5C 669.914,703.291 669.414,702.957 669,702.5C 664.556,702.84 659.722,703.007 654.5,703C 655.28,704.073 655.113,705.24 654,706.5C 651.876,707.622 650.043,709.122 648.5,711C 646.527,711.495 644.527,711.662 642.5,711.5C 642.223,708.552 642.556,705.719 643.5,703C 642.646,701.978 641.646,701.145 640.5,700.5C 637.301,701.799 634.135,701.799 631,700.5C 629.538,702.148 627.705,703.148 625.5,703.5C 613.492,689.139 602.159,674.139 591.5,658.5C 591.721,657.265 592.388,656.265 593.5,655.5C 592.649,652.388 591.483,652.054 590,654.5C 589.009,652.553 588.675,650.553 589,648.5C 590.16,650.797 591.16,650.464 592,647.5C 592.333,642.826 592.167,638.16 591.5,633.5C 594.167,633.5 596.833,633.5 599.5,633.5C 599.5,638.167 599.5,642.833 599.5,647.5C 602.167,647.5 604.833,647.5 607.5,647.5C 607.5,646.167 607.5,644.833 607.5,643.5C 610.167,643.5 612.833,643.5 615.5,643.5C 615.5,642.5 615.5,641.5 615.5,640.5C 616.5,640.5 617.5,640.5 618.5,640.5C 618.5,642.833 618.5,645.167 618.5,647.5C 616.5,647.5 614.5,647.5 612.5,647.5C 612.799,653.726 612.299,659.726 611,665.5C 611.333,665.833 611.667,666.167 612,666.5C 614.893,663.85 618.393,662.85 622.5,663.5C 622.5,667.167 622.5,670.833 622.5,674.5C 617.57,674.803 612.737,674.469 608,673.5C 607.5,674 607,674.5 606.5,675C 613.594,675.842 620.594,675.342 627.5,673.5C 634.066,675.154 640.733,675.821 647.5,675.5C 648.799,679.37 649.466,683.37 649.5,687.5C 650.833,687.5 652.167,687.5 653.5,687.5C 653.187,684.753 653.52,682.086 654.5,679.5C 657.319,682.075 660.319,684.408 663.5,686.5C 666.768,687.487 670.102,687.82 673.5,687.5C 673.5,690.167 673.5,692.833 673.5,695.5C 674.833,695.5 676.167,695.5 677.5,695.5C 677.192,693.076 677.526,690.743 678.5,688.5C 679.432,690.766 680.766,692.766 682.5,694.5C 681.5,695.167 680.5,695.833 679.5,696.5C 681.657,698.412 683.991,700.079 686.5,701.5C 687.842,699.995 689.508,699.328 691.5,699.5C 691.5,700.5 691.5,701.5 691.5,702.5C 692.5,702.5 693.5,702.5 694.5,702.5C 694.337,700.143 694.503,697.81 695,695.5C 697,694.167 699,694.167 701,695.5C 701.333,698.167 701.667,700.833 702,703.5C 702.333,702.5 702.667,701.5 703,700.5C 704.908,704.338 706.741,704.172 708.5,700C 705.49,697.962 704.824,695.295 706.5,692C 705.586,690.594 704.92,689.094 704.5,687.5 Z"/></g>
<g><path style="opacity:0.992" fill="#6c7a7e" d="M 348.5,673.5 C 347.92,675.749 346.587,677.415 344.5,678.5C 345.08,676.251 346.413,674.585 348.5,673.5 Z"/></g>
<g><path style="opacity:0.984" fill="#76898a" d="M 335.5,689.5 C 334.527,692.135 332.86,694.135 330.5,695.5C 331.443,692.891 333.11,690.891 335.5,689.5 Z"/></g>
<g><path style="opacity:0.341" fill="#202628" d="M 681.5,656.5 C 683.017,656.511 684.184,657.177 685,658.5C 702.497,681.453 720.497,704.119 739,726.5C 739.667,728.5 739.667,730.5 739,732.5C 708.905,733.662 678.738,733.828 648.5,733C 647.058,732.623 646.058,731.79 645.5,730.5C 646.167,730.5 646.833,730.5 647.5,730.5C 677.095,731.658 706.762,731.825 736.5,731C 737.517,729.951 737.684,728.784 737,727.5C 733.968,723.641 730.802,719.974 727.5,716.5C 720.545,706.248 712.878,696.581 704.5,687.5C 698.563,678.565 691.896,670.232 684.5,662.5C 683.5,660.5 682.5,658.5 681.5,656.5 Z"/></g>
<g><path style="opacity:0.227" fill="#293133" d="M 419.5,699.5 C 413.227,710.621 405.561,720.788 396.5,730C 394.783,731.559 392.783,732.392 390.5,732.5C 361.662,732.831 332.995,732.498 304.5,731.5C 333.502,731.667 362.502,731.5 391.5,731C 392.416,730.722 393.082,730.222 393.5,729.5C 396.833,728.167 399.167,725.833 400.5,722.5C 406.509,714.498 412.842,706.831 419.5,699.5 Z"/></g>
<g><path style="opacity:1" fill="#dae4e5" d="M 727.5,716.5 C 730.802,719.974 733.968,723.641 737,727.5C 737.684,728.784 737.517,729.951 736.5,731C 706.762,731.825 677.095,731.658 647.5,730.5C 644.896,728.4 642.396,726.067 640,723.5C 634.561,717.235 629.728,710.568 625.5,703.5C 627.705,703.148 629.538,702.148 631,700.5C 634.135,701.799 637.301,701.799 640.5,700.5C 641.646,701.145 642.646,701.978 643.5,703C 642.556,705.719 642.223,708.552 642.5,711.5C 644.527,711.662 646.527,711.495 648.5,711C 650.043,709.122 651.876,707.622 654,706.5C 655.113,705.24 655.28,704.073 654.5,703C 659.722,703.007 664.556,702.84 669,702.5C 669.414,702.957 669.914,703.291 670.5,703.5C 671.833,707.167 671.833,710.833 670.5,714.5C 664.263,717.633 664.263,718.633 670.5,717.5C 671.912,721.717 672.579,726.05 672.5,730.5C 692.167,730.5 711.833,730.5 731.5,730.5C 731.36,728.876 732.027,727.71 733.5,727C 730.833,726.333 730.833,725.667 733.5,725C 732.333,723.833 731.167,722.667 730,721.5C 729.396,723.686 728.23,723.852 726.5,722C 728.83,720.512 729.164,718.679 727.5,716.5 Z"/></g>
<g><path style="opacity:1" fill="#bacbd4" d="M 355.5,665.5 C 354.631,667.717 354.298,670.05 354.5,672.5C 353.5,672.5 352.5,672.5 351.5,672.5C 350.351,676.092 349.351,679.759 348.5,683.5C 350.062,685.363 349.729,686.696 347.5,687.5C 346.232,686.572 344.899,686.405 343.5,687C 343.443,689.243 342.443,691.41 340.5,693.5C 341.629,695.529 341.129,695.863 339,694.5C 338.342,696.108 338.842,697.275 340.5,698C 337.447,698.179 334.447,698.679 331.5,699.5C 330.025,702.341 328.859,705.341 328,708.5C 327.667,707.833 327.333,707.167 327,706.5C 326.805,708.207 326.805,709.874 327,711.5C 326.667,711.167 326.333,710.833 326,710.5C 324.933,711.191 323.766,711.691 322.5,712C 324.432,713.352 325.766,715.185 326.5,717.5C 329.084,718.393 331.751,718.726 334.5,718.5C 334.472,720.582 335.139,722.416 336.5,724C 340.833,724.333 345.167,724.667 349.5,725C 348.5,725.333 347.5,725.667 346.5,726C 346.833,726.333 347.167,726.667 347.5,727C 337.981,728.068 328.481,728.902 319,729.5C 318.086,728.346 317.253,728.513 316.5,730C 340.833,730.667 365.167,730.667 389.5,730C 388.5,729.667 387.5,729.333 386.5,729C 388.885,728.444 391.218,728.61 393.5,729.5C 393.082,730.222 392.416,730.722 391.5,731C 362.502,731.5 333.502,731.667 304.5,731.5C 303.427,730.749 303.26,729.749 304,728.5C 310.126,721.554 315.626,714.221 320.5,706.5C 323.783,702.879 327.116,699.213 330.5,695.5C 332.86,694.135 334.527,692.135 335.5,689.5C 338.152,685.518 341.152,681.851 344.5,678.5C 346.587,677.415 347.92,675.749 348.5,673.5C 350.198,670.144 352.532,667.477 355.5,665.5 Z"/></g>
<g><path style="opacity:0.149" fill="#0b1417" d="M 320.5,706.5 C 315.626,714.221 310.126,721.554 304,728.5C 303.26,729.749 303.427,730.749 304.5,731.5C 332.995,732.498 361.662,732.831 390.5,732.5C 361.67,733.664 332.67,733.83 303.5,733C 301.302,731.122 301.136,728.955 303,726.5C 308.241,720.348 313.241,714.015 318,707.5C 318.671,706.748 319.504,706.414 320.5,706.5 Z"/></g>
</svg>
